<svg width="2311" height="1027" viewBox="0 0 2311 1027" fill="none" xmlns="http://www.w3.org/2000/svg">
<rect width="2311" height="1027" fill="white"/>
<rect x="663" y="282" width="130" height="130" fill="#72A0F9"/>
<rect x="663" y="437" width="130" height="130" fill="#F65E5E"/>
<rect x="663" y="592" width="130" height="130" fill="#B0B0B0"/>
<path d="M355.835 341.312H348.369C348.233 340.347 347.955 339.489 347.534 338.739C347.114 337.977 346.574 337.33 345.915 336.795C345.256 336.261 344.494 335.852 343.631 335.568C342.778 335.284 341.852 335.142 340.852 335.142C339.045 335.142 337.472 335.591 336.131 336.489C334.79 337.375 333.75 338.67 333.011 340.375C332.273 342.068 331.903 344.125 331.903 346.545C331.903 349.034 332.273 351.125 333.011 352.818C333.761 354.511 334.807 355.79 336.148 356.653C337.489 357.517 339.04 357.949 340.801 357.949C341.79 357.949 342.705 357.818 343.545 357.557C344.398 357.295 345.153 356.915 345.812 356.415C346.472 355.903 347.017 355.284 347.449 354.557C347.892 353.83 348.199 353 348.369 352.068L355.835 352.102C355.642 353.705 355.159 355.25 354.386 356.739C353.625 358.216 352.597 359.54 351.301 360.71C350.017 361.869 348.483 362.79 346.699 363.472C344.926 364.142 342.92 364.477 340.682 364.477C337.568 364.477 334.784 363.773 332.33 362.364C329.886 360.955 327.955 358.915 326.534 356.244C325.125 353.574 324.42 350.341 324.42 346.545C324.42 342.739 325.136 339.5 326.568 336.83C328 334.159 329.943 332.125 332.398 330.727C334.852 329.318 337.614 328.614 340.682 328.614C342.705 328.614 344.58 328.898 346.307 329.466C348.045 330.034 349.585 330.864 350.926 331.955C352.267 333.034 353.358 334.358 354.199 335.926C355.051 337.494 355.597 339.29 355.835 341.312ZM360.991 373.818V337.818H368.151V342.216H368.474C368.793 341.511 369.253 340.795 369.855 340.068C370.469 339.33 371.264 338.716 372.241 338.227C373.23 337.727 374.457 337.477 375.923 337.477C377.832 337.477 379.594 337.977 381.207 338.977C382.821 339.966 384.111 341.46 385.077 343.46C386.043 345.449 386.526 347.943 386.526 350.943C386.526 353.864 386.054 356.33 385.111 358.341C384.179 360.341 382.906 361.858 381.293 362.892C379.69 363.915 377.895 364.426 375.906 364.426C374.497 364.426 373.298 364.193 372.31 363.727C371.332 363.261 370.531 362.676 369.906 361.972C369.281 361.256 368.804 360.534 368.474 359.807H368.253V373.818H360.991ZM368.099 350.909C368.099 352.466 368.315 353.824 368.747 354.983C369.179 356.142 369.804 357.045 370.622 357.693C371.44 358.33 372.435 358.648 373.605 358.648C374.787 358.648 375.787 358.324 376.605 357.676C377.423 357.017 378.043 356.108 378.463 354.949C378.895 353.778 379.111 352.432 379.111 350.909C379.111 349.398 378.901 348.068 378.48 346.92C378.06 345.773 377.44 344.875 376.622 344.227C375.804 343.58 374.798 343.256 373.605 343.256C372.423 343.256 371.423 343.568 370.605 344.193C369.798 344.818 369.179 345.705 368.747 346.852C368.315 348 368.099 349.352 368.099 350.909ZM408.156 352.852V337.818H415.418V364H408.446V359.244H408.173C407.582 360.778 406.599 362.011 405.224 362.943C403.861 363.875 402.196 364.341 400.23 364.341C398.48 364.341 396.94 363.943 395.611 363.148C394.281 362.352 393.241 361.222 392.491 359.756C391.753 358.29 391.378 356.534 391.366 354.489V337.818H398.628V353.193C398.639 354.739 399.054 355.96 399.872 356.858C400.69 357.756 401.787 358.205 403.162 358.205C404.037 358.205 404.855 358.006 405.616 357.608C406.378 357.199 406.991 356.597 407.457 355.801C407.935 355.006 408.168 354.023 408.156 352.852ZM447.455 329.091V364H440.074V336.097H439.869L431.875 341.108V334.562L440.517 329.091H447.455Z" fill="#72A0F9"/>
<path d="M355.835 496.312H348.369C348.233 495.347 347.955 494.489 347.534 493.739C347.114 492.977 346.574 492.33 345.915 491.795C345.256 491.261 344.494 490.852 343.631 490.568C342.778 490.284 341.852 490.142 340.852 490.142C339.045 490.142 337.472 490.591 336.131 491.489C334.79 492.375 333.75 493.67 333.011 495.375C332.273 497.068 331.903 499.125 331.903 501.545C331.903 504.034 332.273 506.125 333.011 507.818C333.761 509.511 334.807 510.79 336.148 511.653C337.489 512.517 339.04 512.949 340.801 512.949C341.79 512.949 342.705 512.818 343.545 512.557C344.398 512.295 345.153 511.915 345.812 511.415C346.472 510.903 347.017 510.284 347.449 509.557C347.892 508.83 348.199 508 348.369 507.068L355.835 507.102C355.642 508.705 355.159 510.25 354.386 511.739C353.625 513.216 352.597 514.54 351.301 515.71C350.017 516.869 348.483 517.79 346.699 518.472C344.926 519.142 342.92 519.477 340.682 519.477C337.568 519.477 334.784 518.773 332.33 517.364C329.886 515.955 327.955 513.915 326.534 511.244C325.125 508.574 324.42 505.341 324.42 501.545C324.42 497.739 325.136 494.5 326.568 491.83C328 489.159 329.943 487.125 332.398 485.727C334.852 484.318 337.614 483.614 340.682 483.614C342.705 483.614 344.58 483.898 346.307 484.466C348.045 485.034 349.585 485.864 350.926 486.955C352.267 488.034 353.358 489.358 354.199 490.926C355.051 492.494 355.597 494.29 355.835 496.312ZM360.991 528.818V492.818H368.151V497.216H368.474C368.793 496.511 369.253 495.795 369.855 495.068C370.469 494.33 371.264 493.716 372.241 493.227C373.23 492.727 374.457 492.477 375.923 492.477C377.832 492.477 379.594 492.977 381.207 493.977C382.821 494.966 384.111 496.46 385.077 498.46C386.043 500.449 386.526 502.943 386.526 505.943C386.526 508.864 386.054 511.33 385.111 513.341C384.179 515.341 382.906 516.858 381.293 517.892C379.69 518.915 377.895 519.426 375.906 519.426C374.497 519.426 373.298 519.193 372.31 518.727C371.332 518.261 370.531 517.676 369.906 516.972C369.281 516.256 368.804 515.534 368.474 514.807H368.253V528.818H360.991ZM368.099 505.909C368.099 507.466 368.315 508.824 368.747 509.983C369.179 511.142 369.804 512.045 370.622 512.693C371.44 513.33 372.435 513.648 373.605 513.648C374.787 513.648 375.787 513.324 376.605 512.676C377.423 512.017 378.043 511.108 378.463 509.949C378.895 508.778 379.111 507.432 379.111 505.909C379.111 504.398 378.901 503.068 378.48 501.92C378.06 500.773 377.44 499.875 376.622 499.227C375.804 498.58 374.798 498.256 373.605 498.256C372.423 498.256 371.423 498.568 370.605 499.193C369.798 499.818 369.179 500.705 368.747 501.852C368.315 503 368.099 504.352 368.099 505.909ZM408.156 507.852V492.818H415.418V519H408.446V514.244H408.173C407.582 515.778 406.599 517.011 405.224 517.943C403.861 518.875 402.196 519.341 400.23 519.341C398.48 519.341 396.94 518.943 395.611 518.148C394.281 517.352 393.241 516.222 392.491 514.756C391.753 513.29 391.378 511.534 391.366 509.489V492.818H398.628V508.193C398.639 509.739 399.054 510.96 399.872 511.858C400.69 512.756 401.787 513.205 403.162 513.205C404.037 513.205 404.855 513.006 405.616 512.608C406.378 512.199 406.991 511.597 407.457 510.801C407.935 510.006 408.168 509.023 408.156 507.852ZM432.267 519V513.682L444.693 502.176C445.75 501.153 446.636 500.233 447.352 499.415C448.08 498.597 448.631 497.795 449.006 497.011C449.381 496.216 449.568 495.358 449.568 494.438C449.568 493.415 449.335 492.534 448.869 491.795C448.403 491.045 447.767 490.472 446.96 490.074C446.153 489.665 445.239 489.46 444.216 489.46C443.148 489.46 442.216 489.676 441.42 490.108C440.625 490.54 440.011 491.159 439.58 491.966C439.148 492.773 438.932 493.733 438.932 494.847H431.926C431.926 492.562 432.443 490.58 433.477 488.898C434.511 487.216 435.96 485.915 437.824 484.994C439.688 484.074 441.835 483.614 444.267 483.614C446.767 483.614 448.943 484.057 450.795 484.943C452.659 485.818 454.108 487.034 455.142 488.591C456.176 490.148 456.693 491.932 456.693 493.943C456.693 495.261 456.432 496.562 455.909 497.847C455.398 499.131 454.483 500.557 453.165 502.125C451.847 503.682 449.989 505.551 447.591 507.733L442.494 512.727V512.966H457.153V519H432.267Z" fill="#F65E5E"/>
<path d="M637.596 351.596C640.135 349.058 640.135 344.942 637.596 342.404L596.23 301.038C593.692 298.5 589.576 298.5 587.038 301.038C584.5 303.576 584.5 307.692 587.038 310.23L623.808 347L587.038 383.77C584.5 386.308 584.5 390.424 587.038 392.962C589.576 395.5 593.692 395.5 596.23 392.962L637.596 351.596ZM534 353.5H633V340.5H534V353.5Z" fill="#72A0F9"/>
<path d="M637.596 506.596C640.135 504.058 640.135 499.942 637.596 497.404L596.23 456.038C593.692 453.5 589.576 453.5 587.038 456.038C584.5 458.576 584.5 462.692 587.038 465.23L623.808 502L587.038 538.77C584.5 541.308 584.5 545.424 587.038 547.962C589.576 550.5 593.692 550.5 596.23 547.962L637.596 506.596ZM534 508.5H633V495.5H534V508.5Z" fill="#F65E5E"/>
<path d="M915.596 661.596C918.135 659.058 918.135 654.942 915.596 652.404L874.23 611.038C871.692 608.5 867.576 608.5 865.038 611.038C862.5 613.576 862.5 617.692 865.038 620.23L901.808 657L865.038 693.77C862.5 696.308 862.5 700.424 865.038 702.962C867.576 705.5 871.692 705.5 874.23 702.962L915.596 661.596ZM812 663.5H911V650.5H812V663.5Z" fill="#F65E5E"/>
<path d="M1203.6 816.596C1206.13 814.058 1206.13 809.942 1203.6 807.404L1162.23 766.038C1159.69 763.5 1155.58 763.5 1153.04 766.038C1150.5 768.576 1150.5 772.692 1153.04 775.23L1189.81 812L1153.04 848.77C1150.5 851.308 1150.5 855.424 1153.04 857.962C1155.58 860.5 1159.69 860.5 1162.23 857.962L1203.6 816.596ZM1100 818.5H1199V805.5H1100V818.5Z" fill="#F65E5E"/>
<path d="M1470.6 351.596C1473.13 349.058 1473.13 344.942 1470.6 342.404L1429.23 301.038C1426.69 298.5 1422.58 298.5 1420.04 301.038C1417.5 303.576 1417.5 307.692 1420.04 310.23L1456.81 347L1420.04 383.77C1417.5 386.308 1417.5 390.424 1420.04 392.962C1422.58 395.5 1426.69 395.5 1429.23 392.962L1470.6 351.596ZM1367 353.5H1466V340.5H1367V353.5Z" fill="#F65E5E"/>
<rect x="941" y="282" width="130" height="130" fill="#B0B0B0"/>
<rect x="941" y="437" width="130" height="130" fill="#72A0F9"/>
<rect x="941" y="592" width="130" height="130" fill="#F65E5E"/>
<path d="M915.596 506.596C918.135 504.058 918.135 499.942 915.596 497.404L874.23 456.038C871.692 453.5 867.576 453.5 865.038 456.038C862.5 458.576 862.5 462.692 865.038 465.23L901.808 502L865.038 538.77C862.5 541.308 862.5 545.424 865.038 547.962C867.576 550.5 871.692 550.5 874.23 547.962L915.596 506.596ZM812 508.5H911V495.5H812V508.5Z" fill="#72A0F9"/>
<rect x="1222" y="282" width="130" height="130" fill="#B0B0B0"/>
<rect x="1222" y="437" width="130" height="130" fill="#B0B0B0"/>
<rect x="1222" y="592" width="130" height="130" fill="#72A0F9"/>
<path d="M1196.6 661.596C1199.13 659.058 1199.13 654.942 1196.6 652.404L1155.23 611.038C1152.69 608.5 1148.58 608.5 1146.04 611.038C1143.5 613.576 1143.5 617.692 1146.04 620.23L1182.81 657L1146.04 693.77C1143.5 696.308 1143.5 700.424 1146.04 702.962C1148.58 705.5 1152.69 705.5 1155.23 702.962L1196.6 661.596ZM1093 663.5H1192V650.5H1093V663.5Z" fill="#72A0F9"/>
<path d="M653.705 166.176V160.091H682.375V166.176H671.688V195H664.392V166.176H653.705ZM686.96 195V168.818H694.222V195H686.96ZM690.608 165.443C689.528 165.443 688.602 165.085 687.83 164.369C687.068 163.642 686.688 162.773 686.688 161.761C686.688 160.761 687.068 159.903 687.83 159.188C688.602 158.46 689.528 158.097 690.608 158.097C691.688 158.097 692.608 158.46 693.369 159.188C694.142 159.903 694.528 160.761 694.528 161.761C694.528 162.773 694.142 163.642 693.369 164.369C692.608 165.085 691.688 165.443 690.608 165.443ZM711.868 195.511C709.186 195.511 706.879 194.943 704.947 193.807C703.027 192.659 701.55 191.068 700.516 189.034C699.493 187 698.982 184.659 698.982 182.011C698.982 179.33 699.499 176.977 700.533 174.955C701.578 172.92 703.061 171.335 704.982 170.199C706.902 169.051 709.186 168.477 711.834 168.477C714.118 168.477 716.118 168.892 717.834 169.722C719.55 170.551 720.908 171.716 721.908 173.216C722.908 174.716 723.459 176.477 723.561 178.5H716.709C716.516 177.193 716.004 176.142 715.175 175.347C714.357 174.54 713.283 174.136 711.953 174.136C710.828 174.136 709.845 174.443 709.004 175.057C708.175 175.659 707.527 176.54 707.061 177.699C706.595 178.858 706.362 180.261 706.362 181.909C706.362 183.58 706.589 185 707.044 186.17C707.51 187.341 708.163 188.233 709.004 188.847C709.845 189.46 710.828 189.767 711.953 189.767C712.783 189.767 713.527 189.597 714.186 189.256C714.857 188.915 715.408 188.42 715.839 187.773C716.283 187.114 716.572 186.324 716.709 185.403H723.561C723.447 187.403 722.902 189.165 721.925 190.688C720.959 192.199 719.624 193.381 717.919 194.233C716.214 195.085 714.197 195.511 711.868 195.511ZM734.79 187.466L734.807 178.756H735.864L744.25 168.818H752.585L741.318 181.977H739.597L734.79 187.466ZM728.21 195V160.091H735.472V195H728.21ZM744.574 195L736.869 183.597L741.71 178.466L753.08 195H744.574ZM782.376 160.091V195H774.996V167.097H774.791L766.797 172.108V165.562L775.439 160.091H782.376Z" fill="black"/>
<path d="M936.705 166.176V160.091H965.375V166.176H954.688V195H947.392V166.176H936.705ZM969.96 195V168.818H977.222V195H969.96ZM973.608 165.443C972.528 165.443 971.602 165.085 970.83 164.369C970.068 163.642 969.688 162.773 969.688 161.761C969.688 160.761 970.068 159.903 970.83 159.188C971.602 158.46 972.528 158.097 973.608 158.097C974.688 158.097 975.608 158.46 976.369 159.188C977.142 159.903 977.528 160.761 977.528 161.761C977.528 162.773 977.142 163.642 976.369 164.369C975.608 165.085 974.688 165.443 973.608 165.443ZM994.868 195.511C992.186 195.511 989.879 194.943 987.947 193.807C986.027 192.659 984.55 191.068 983.516 189.034C982.493 187 981.982 184.659 981.982 182.011C981.982 179.33 982.499 176.977 983.533 174.955C984.578 172.92 986.061 171.335 987.982 170.199C989.902 169.051 992.186 168.477 994.834 168.477C997.118 168.477 999.118 168.892 1000.83 169.722C1002.55 170.551 1003.91 171.716 1004.91 173.216C1005.91 174.716 1006.46 176.477 1006.56 178.5H999.709C999.516 177.193 999.004 176.142 998.175 175.347C997.357 174.54 996.283 174.136 994.953 174.136C993.828 174.136 992.845 174.443 992.004 175.057C991.175 175.659 990.527 176.54 990.061 177.699C989.595 178.858 989.362 180.261 989.362 181.909C989.362 183.58 989.589 185 990.044 186.17C990.51 187.341 991.163 188.233 992.004 188.847C992.845 189.46 993.828 189.767 994.953 189.767C995.783 189.767 996.527 189.597 997.186 189.256C997.857 188.915 998.408 188.42 998.839 187.773C999.283 187.114 999.572 186.324 999.709 185.403H1006.56C1006.45 187.403 1005.9 189.165 1004.92 190.688C1003.96 192.199 1002.62 193.381 1000.92 194.233C999.214 195.085 997.197 195.511 994.868 195.511ZM1017.79 187.466L1017.81 178.756H1018.86L1027.25 168.818H1035.59L1024.32 181.977H1022.6L1017.79 187.466ZM1011.21 195V160.091H1018.47V195H1011.21ZM1027.57 195L1019.87 183.597L1024.71 178.466L1036.08 195H1027.57ZM1050.19 195V189.682L1062.62 178.176C1063.67 177.153 1064.56 176.233 1065.27 175.415C1066 174.597 1066.55 173.795 1066.93 173.011C1067.3 172.216 1067.49 171.358 1067.49 170.438C1067.49 169.415 1067.26 168.534 1066.79 167.795C1066.33 167.045 1065.69 166.472 1064.88 166.074C1064.08 165.665 1063.16 165.46 1062.14 165.46C1061.07 165.46 1060.14 165.676 1059.34 166.108C1058.55 166.54 1057.93 167.159 1057.5 167.966C1057.07 168.773 1056.85 169.733 1056.85 170.847H1049.85C1049.85 168.562 1050.37 166.58 1051.4 164.898C1052.43 163.216 1053.88 161.915 1055.75 160.994C1057.61 160.074 1059.76 159.614 1062.19 159.614C1064.69 159.614 1066.87 160.057 1068.72 160.943C1070.58 161.818 1072.03 163.034 1073.06 164.591C1074.1 166.148 1074.62 167.932 1074.62 169.943C1074.62 171.261 1074.35 172.562 1073.83 173.847C1073.32 175.131 1072.4 176.557 1071.09 178.125C1069.77 179.682 1067.91 181.551 1065.51 183.733L1060.42 188.727V188.966H1075.08V195H1050.19Z" fill="black"/>
<rect x="1496" y="282" width="130" height="130" fill="#F65E5E"/>
<rect x="1496" y="437" width="130" height="130" fill="#B0B0B0"/>
<rect x="1496" y="592" width="130" height="130" fill="#B0B0B0"/>
<path d="M1470.6 816.596C1473.13 814.058 1473.13 809.942 1470.6 807.404L1429.23 766.038C1426.69 763.5 1422.58 763.5 1420.04 766.038C1417.5 768.576 1417.5 772.692 1420.04 775.23L1456.81 812L1420.04 848.77C1417.5 851.308 1417.5 855.424 1420.04 857.962C1422.58 860.5 1426.69 860.5 1429.23 857.962L1470.6 816.596ZM1367 818.5H1466V805.5H1367V818.5Z" fill="#72A0F9"/>
<path d="M1214.7 166.176V160.091H1243.38V166.176H1232.69V195H1225.39V166.176H1214.7ZM1247.96 195V168.818H1255.22V195H1247.96ZM1251.61 165.443C1250.53 165.443 1249.6 165.085 1248.83 164.369C1248.07 163.642 1247.69 162.773 1247.69 161.761C1247.69 160.761 1248.07 159.903 1248.83 159.188C1249.6 158.46 1250.53 158.097 1251.61 158.097C1252.69 158.097 1253.61 158.46 1254.37 159.188C1255.14 159.903 1255.53 160.761 1255.53 161.761C1255.53 162.773 1255.14 163.642 1254.37 164.369C1253.61 165.085 1252.69 165.443 1251.61 165.443ZM1272.87 195.511C1270.19 195.511 1267.88 194.943 1265.95 193.807C1264.03 192.659 1262.55 191.068 1261.52 189.034C1260.49 187 1259.98 184.659 1259.98 182.011C1259.98 179.33 1260.5 176.977 1261.53 174.955C1262.58 172.92 1264.06 171.335 1265.98 170.199C1267.9 169.051 1270.19 168.477 1272.83 168.477C1275.12 168.477 1277.12 168.892 1278.83 169.722C1280.55 170.551 1281.91 171.716 1282.91 173.216C1283.91 174.716 1284.46 176.477 1284.56 178.5H1277.71C1277.52 177.193 1277 176.142 1276.17 175.347C1275.36 174.54 1274.28 174.136 1272.95 174.136C1271.83 174.136 1270.85 174.443 1270 175.057C1269.17 175.659 1268.53 176.54 1268.06 177.699C1267.6 178.858 1267.36 180.261 1267.36 181.909C1267.36 183.58 1267.59 185 1268.04 186.17C1268.51 187.341 1269.16 188.233 1270 188.847C1270.85 189.46 1271.83 189.767 1272.95 189.767C1273.78 189.767 1274.53 189.597 1275.19 189.256C1275.86 188.915 1276.41 188.42 1276.84 187.773C1277.28 187.114 1277.57 186.324 1277.71 185.403H1284.56C1284.45 187.403 1283.9 189.165 1282.92 190.688C1281.96 192.199 1280.62 193.381 1278.92 194.233C1277.21 195.085 1275.2 195.511 1272.87 195.511ZM1295.79 187.466L1295.81 178.756H1296.86L1305.25 168.818H1313.59L1302.32 181.977H1300.6L1295.79 187.466ZM1289.21 195V160.091H1296.47V195H1289.21ZM1305.57 195L1297.87 183.597L1302.71 178.466L1314.08 195H1305.57ZM1341.09 195.477C1338.55 195.477 1336.28 195.04 1334.29 194.165C1332.31 193.278 1330.75 192.062 1329.6 190.517C1328.47 188.96 1327.88 187.165 1327.85 185.131H1335.28C1335.33 185.983 1335.6 186.733 1336.12 187.381C1336.64 188.017 1337.33 188.511 1338.19 188.864C1339.06 189.216 1340.03 189.392 1341.11 189.392C1342.23 189.392 1343.23 189.193 1344.09 188.795C1344.96 188.398 1345.63 187.847 1346.12 187.142C1346.61 186.437 1346.85 185.625 1346.85 184.705C1346.85 183.773 1346.59 182.949 1346.07 182.233C1345.56 181.506 1344.82 180.937 1343.85 180.528C1342.9 180.119 1341.76 179.915 1340.44 179.915H1337.19V174.494H1340.44C1341.56 174.494 1342.54 174.301 1343.39 173.915C1344.26 173.528 1344.93 172.994 1345.4 172.312C1345.88 171.619 1346.12 170.812 1346.12 169.892C1346.12 169.017 1345.91 168.25 1345.49 167.591C1345.08 166.92 1344.5 166.398 1343.75 166.023C1343.01 165.648 1342.15 165.46 1341.16 165.46C1340.16 165.46 1339.25 165.642 1338.42 166.006C1337.59 166.358 1336.92 166.864 1336.42 167.523C1335.92 168.182 1335.65 168.955 1335.62 169.841H1328.55C1328.58 167.83 1329.15 166.057 1330.27 164.523C1331.38 162.989 1332.88 161.79 1334.77 160.926C1336.67 160.051 1338.81 159.614 1341.19 159.614C1343.6 159.614 1345.71 160.051 1347.52 160.926C1349.33 161.801 1350.73 162.983 1351.73 164.472C1352.74 165.949 1353.24 167.608 1353.23 169.449C1353.24 171.403 1352.63 173.034 1351.4 174.341C1350.19 175.648 1348.6 176.477 1346.65 176.83V177.102C1349.22 177.432 1351.17 178.324 1352.51 179.778C1353.87 181.222 1354.54 183.028 1354.52 185.199C1354.54 187.188 1353.96 188.955 1352.8 190.5C1351.65 192.045 1350.07 193.261 1348.05 194.148C1346.02 195.034 1343.71 195.477 1341.09 195.477Z" fill="black"/>
<path d="M1486.7 166.176V160.091H1515.38V166.176H1504.69V195H1497.39V166.176H1486.7ZM1519.96 195V168.818H1527.22V195H1519.96ZM1523.61 165.443C1522.53 165.443 1521.6 165.085 1520.83 164.369C1520.07 163.642 1519.69 162.773 1519.69 161.761C1519.69 160.761 1520.07 159.903 1520.83 159.188C1521.6 158.46 1522.53 158.097 1523.61 158.097C1524.69 158.097 1525.61 158.46 1526.37 159.188C1527.14 159.903 1527.53 160.761 1527.53 161.761C1527.53 162.773 1527.14 163.642 1526.37 164.369C1525.61 165.085 1524.69 165.443 1523.61 165.443ZM1544.87 195.511C1542.19 195.511 1539.88 194.943 1537.95 193.807C1536.03 192.659 1534.55 191.068 1533.52 189.034C1532.49 187 1531.98 184.659 1531.98 182.011C1531.98 179.33 1532.5 176.977 1533.53 174.955C1534.58 172.92 1536.06 171.335 1537.98 170.199C1539.9 169.051 1542.19 168.477 1544.83 168.477C1547.12 168.477 1549.12 168.892 1550.83 169.722C1552.55 170.551 1553.91 171.716 1554.91 173.216C1555.91 174.716 1556.46 176.477 1556.56 178.5H1549.71C1549.52 177.193 1549 176.142 1548.17 175.347C1547.36 174.54 1546.28 174.136 1544.95 174.136C1543.83 174.136 1542.85 174.443 1542 175.057C1541.17 175.659 1540.53 176.54 1540.06 177.699C1539.6 178.858 1539.36 180.261 1539.36 181.909C1539.36 183.58 1539.59 185 1540.04 186.17C1540.51 187.341 1541.16 188.233 1542 188.847C1542.85 189.46 1543.83 189.767 1544.95 189.767C1545.78 189.767 1546.53 189.597 1547.19 189.256C1547.86 188.915 1548.41 188.42 1548.84 187.773C1549.28 187.114 1549.57 186.324 1549.71 185.403H1556.56C1556.45 187.403 1555.9 189.165 1554.92 190.688C1553.96 192.199 1552.62 193.381 1550.92 194.233C1549.21 195.085 1547.2 195.511 1544.87 195.511ZM1567.79 187.466L1567.81 178.756H1568.86L1577.25 168.818H1585.59L1574.32 181.977H1572.6L1567.79 187.466ZM1561.21 195V160.091H1568.47V195H1561.21ZM1577.57 195L1569.87 183.597L1574.71 178.466L1586.08 195H1577.57ZM1599.66 188.864V183.051L1614.23 160.091H1619.25V168.136H1616.28L1607.09 182.676V182.949H1627.8V188.864H1599.66ZM1616.42 195V187.091L1616.55 184.517V160.091H1623.47V195H1616.42Z" fill="black"/>
<path d="M719.051 364H711.142L723.193 329.091H732.705L744.739 364H736.83L728.085 337.068H727.812L719.051 364ZM718.557 350.278H737.239V356.04H718.557V350.278Z" fill="black"/>
<path d="M715.034 519V484.091H729.011C731.58 484.091 733.722 484.472 735.438 485.233C737.153 485.994 738.443 487.051 739.307 488.403C740.17 489.744 740.602 491.29 740.602 493.04C740.602 494.403 740.33 495.602 739.784 496.636C739.239 497.659 738.489 498.5 737.534 499.159C736.591 499.807 735.511 500.267 734.295 500.54V500.881C735.625 500.937 736.869 501.312 738.028 502.006C739.199 502.699 740.148 503.67 740.875 504.92C741.602 506.159 741.966 507.636 741.966 509.352C741.966 511.205 741.506 512.858 740.585 514.312C739.676 515.756 738.33 516.898 736.545 517.739C734.761 518.58 732.563 519 729.949 519H715.034ZM722.415 512.966H728.432C730.489 512.966 731.989 512.574 732.932 511.79C733.875 510.994 734.347 509.937 734.347 508.619C734.347 507.653 734.114 506.801 733.648 506.062C733.182 505.324 732.517 504.744 731.653 504.324C730.801 503.903 729.784 503.693 728.602 503.693H722.415V512.966ZM722.415 498.699H727.886C728.898 498.699 729.795 498.523 730.58 498.17C731.375 497.807 732 497.295 732.455 496.636C732.92 495.977 733.153 495.188 733.153 494.267C733.153 493.006 732.705 491.989 731.807 491.216C730.92 490.443 729.659 490.057 728.023 490.057H722.415V498.699Z" fill="white"/>
<path d="M743.835 651.312H736.369C736.233 650.347 735.955 649.489 735.534 648.739C735.114 647.977 734.574 647.33 733.915 646.795C733.256 646.261 732.494 645.852 731.631 645.568C730.778 645.284 729.852 645.142 728.852 645.142C727.045 645.142 725.472 645.591 724.131 646.489C722.79 647.375 721.75 648.67 721.011 650.375C720.273 652.068 719.903 654.125 719.903 656.545C719.903 659.034 720.273 661.125 721.011 662.818C721.761 664.511 722.807 665.79 724.148 666.653C725.489 667.517 727.04 667.949 728.801 667.949C729.79 667.949 730.705 667.818 731.545 667.557C732.398 667.295 733.153 666.915 733.812 666.415C734.472 665.903 735.017 665.284 735.449 664.557C735.892 663.83 736.199 663 736.369 662.068L743.835 662.102C743.642 663.705 743.159 665.25 742.386 666.739C741.625 668.216 740.597 669.54 739.301 670.71C738.017 671.869 736.483 672.79 734.699 673.472C732.926 674.142 730.92 674.477 728.682 674.477C725.568 674.477 722.784 673.773 720.33 672.364C717.886 670.955 715.955 668.915 714.534 666.244C713.125 663.574 712.42 660.341 712.42 656.545C712.42 652.739 713.136 649.5 714.568 646.83C716 644.159 717.943 642.125 720.398 640.727C722.852 639.318 725.614 638.614 728.682 638.614C730.705 638.614 732.58 638.898 734.307 639.466C736.045 640.034 737.585 640.864 738.926 641.955C740.267 643.034 741.358 644.358 742.199 645.926C743.051 647.494 743.597 649.29 743.835 651.312Z" fill="white"/>
<rect x="663" y="747" width="130" height="130" fill="#B0B0B0"/>
<path d="M725.409 829H713.034V794.091H725.511C729.023 794.091 732.045 794.79 734.58 796.188C737.114 797.574 739.063 799.568 740.426 802.17C741.801 804.773 742.489 807.886 742.489 811.511C742.489 815.148 741.801 818.273 740.426 820.886C739.063 823.5 737.102 825.506 734.545 826.903C732 828.301 728.955 829 725.409 829ZM720.415 822.676H725.102C727.284 822.676 729.119 822.29 730.608 821.517C732.108 820.733 733.233 819.523 733.983 817.886C734.744 816.239 735.125 814.114 735.125 811.511C735.125 808.932 734.744 806.824 733.983 805.188C733.233 803.551 732.114 802.347 730.625 801.574C729.136 800.801 727.301 800.415 725.119 800.415H720.415V822.676Z" fill="white"/>
<path d="M996.051 364H988.142L1000.19 329.091H1009.7L1021.74 364H1013.83L1005.09 337.068H1004.81L996.051 364ZM995.557 350.278H1014.24V356.04H995.557V350.278Z" fill="white"/>
<path d="M992.034 519V484.091H1006.01C1008.58 484.091 1010.72 484.472 1012.44 485.233C1014.15 485.994 1015.44 487.051 1016.31 488.403C1017.17 489.744 1017.6 491.29 1017.6 493.04C1017.6 494.403 1017.33 495.602 1016.78 496.636C1016.24 497.659 1015.49 498.5 1014.53 499.159C1013.59 499.807 1012.51 500.267 1011.3 500.54V500.881C1012.63 500.937 1013.87 501.312 1015.03 502.006C1016.2 502.699 1017.15 503.67 1017.88 504.92C1018.6 506.159 1018.97 507.636 1018.97 509.352C1018.97 511.205 1018.51 512.858 1017.59 514.312C1016.68 515.756 1015.33 516.898 1013.55 517.739C1011.76 518.58 1009.56 519 1006.95 519H992.034ZM999.415 512.966H1005.43C1007.49 512.966 1008.99 512.574 1009.93 511.79C1010.88 510.994 1011.35 509.937 1011.35 508.619C1011.35 507.653 1011.11 506.801 1010.65 506.062C1010.18 505.324 1009.52 504.744 1008.65 504.324C1007.8 503.903 1006.78 503.693 1005.6 503.693H999.415V512.966ZM999.415 498.699H1004.89C1005.9 498.699 1006.8 498.523 1007.58 498.17C1008.38 497.807 1009 497.295 1009.45 496.636C1009.92 495.977 1010.15 495.188 1010.15 494.267C1010.15 493.006 1009.7 491.989 1008.81 491.216C1007.92 490.443 1006.66 490.057 1005.02 490.057H999.415V498.699Z" fill="black"/>
<path d="M1020.84 651.312H1013.37C1013.23 650.347 1012.95 649.489 1012.53 648.739C1012.11 647.977 1011.57 647.33 1010.91 646.795C1010.26 646.261 1009.49 645.852 1008.63 645.568C1007.78 645.284 1006.85 645.142 1005.85 645.142C1004.05 645.142 1002.47 645.591 1001.13 646.489C999.79 647.375 998.75 648.67 998.011 650.375C997.273 652.068 996.903 654.125 996.903 656.545C996.903 659.034 997.273 661.125 998.011 662.818C998.761 664.511 999.807 665.79 1001.15 666.653C1002.49 667.517 1004.04 667.949 1005.8 667.949C1006.79 667.949 1007.7 667.818 1008.55 667.557C1009.4 667.295 1010.15 666.915 1010.81 666.415C1011.47 665.903 1012.02 665.284 1012.45 664.557C1012.89 663.83 1013.2 663 1013.37 662.068L1020.84 662.102C1020.64 663.705 1020.16 665.25 1019.39 666.739C1018.63 668.216 1017.6 669.54 1016.3 670.71C1015.02 671.869 1013.48 672.79 1011.7 673.472C1009.93 674.142 1007.92 674.477 1005.68 674.477C1002.57 674.477 999.784 673.773 997.33 672.364C994.886 670.955 992.955 668.915 991.534 666.244C990.125 663.574 989.42 660.341 989.42 656.545C989.42 652.739 990.136 649.5 991.568 646.83C993 644.159 994.943 642.125 997.398 640.727C999.852 639.318 1002.61 638.614 1005.68 638.614C1007.7 638.614 1009.58 638.898 1011.31 639.466C1013.05 640.034 1014.59 640.864 1015.93 641.955C1017.27 643.034 1018.36 644.358 1019.2 645.926C1020.05 647.494 1020.6 649.29 1020.84 651.312Z" fill="white"/>
<rect x="941" y="747" width="130" height="130" fill="#B0B0B0"/>
<path d="M1002.41 829H990.034V794.091H1002.51C1006.02 794.091 1009.05 794.79 1011.58 796.188C1014.11 797.574 1016.06 799.568 1017.43 802.17C1018.8 804.773 1019.49 807.886 1019.49 811.511C1019.49 815.148 1018.8 818.273 1017.43 820.886C1016.06 823.5 1014.1 825.506 1011.55 826.903C1009 828.301 1005.95 829 1002.41 829ZM997.415 822.676H1002.1C1004.28 822.676 1006.12 822.29 1007.61 821.517C1009.11 820.733 1010.23 819.523 1010.98 817.886C1011.74 816.239 1012.12 814.114 1012.12 811.511C1012.12 808.932 1011.74 806.824 1010.98 805.188C1010.23 803.551 1009.11 802.347 1007.62 801.574C1006.14 800.801 1004.3 800.415 1002.12 800.415H997.415V822.676Z" fill="white"/>
<path d="M1277.05 364H1269.14L1281.19 329.091H1290.7L1302.74 364H1294.83L1286.09 337.068H1285.81L1277.05 364ZM1276.56 350.278H1295.24V356.04H1276.56V350.278Z" fill="white"/>
<path d="M1273.03 519V484.091H1287.01C1289.58 484.091 1291.72 484.472 1293.44 485.233C1295.15 485.994 1296.44 487.051 1297.31 488.403C1298.17 489.744 1298.6 491.29 1298.6 493.04C1298.6 494.403 1298.33 495.602 1297.78 496.636C1297.24 497.659 1296.49 498.5 1295.53 499.159C1294.59 499.807 1293.51 500.267 1292.3 500.54V500.881C1293.63 500.937 1294.87 501.312 1296.03 502.006C1297.2 502.699 1298.15 503.67 1298.88 504.92C1299.6 506.159 1299.97 507.636 1299.97 509.352C1299.97 511.205 1299.51 512.858 1298.59 514.312C1297.68 515.756 1296.33 516.898 1294.55 517.739C1292.76 518.58 1290.56 519 1287.95 519H1273.03ZM1280.41 512.966H1286.43C1288.49 512.966 1289.99 512.574 1290.93 511.79C1291.88 510.994 1292.35 509.937 1292.35 508.619C1292.35 507.653 1292.11 506.801 1291.65 506.062C1291.18 505.324 1290.52 504.744 1289.65 504.324C1288.8 503.903 1287.78 503.693 1286.6 503.693H1280.41V512.966ZM1280.41 498.699H1285.89C1286.9 498.699 1287.8 498.523 1288.58 498.17C1289.38 497.807 1290 497.295 1290.45 496.636C1290.92 495.977 1291.15 495.188 1291.15 494.267C1291.15 493.006 1290.7 491.989 1289.81 491.216C1288.92 490.443 1287.66 490.057 1286.02 490.057H1280.41V498.699Z" fill="white"/>
<path d="M1301.84 651.312H1294.37C1294.23 650.347 1293.95 649.489 1293.53 648.739C1293.11 647.977 1292.57 647.33 1291.91 646.795C1291.26 646.261 1290.49 645.852 1289.63 645.568C1288.78 645.284 1287.85 645.142 1286.85 645.142C1285.05 645.142 1283.47 645.591 1282.13 646.489C1280.79 647.375 1279.75 648.67 1279.01 650.375C1278.27 652.068 1277.9 654.125 1277.9 656.545C1277.9 659.034 1278.27 661.125 1279.01 662.818C1279.76 664.511 1280.81 665.79 1282.15 666.653C1283.49 667.517 1285.04 667.949 1286.8 667.949C1287.79 667.949 1288.7 667.818 1289.55 667.557C1290.4 667.295 1291.15 666.915 1291.81 666.415C1292.47 665.903 1293.02 665.284 1293.45 664.557C1293.89 663.83 1294.2 663 1294.37 662.068L1301.84 662.102C1301.64 663.705 1301.16 665.25 1300.39 666.739C1299.63 668.216 1298.6 669.54 1297.3 670.71C1296.02 671.869 1294.48 672.79 1292.7 673.472C1290.93 674.142 1288.92 674.477 1286.68 674.477C1283.57 674.477 1280.78 673.773 1278.33 672.364C1275.89 670.955 1273.95 668.915 1272.53 666.244C1271.12 663.574 1270.42 660.341 1270.42 656.545C1270.42 652.739 1271.14 649.5 1272.57 646.83C1274 644.159 1275.94 642.125 1278.4 640.727C1280.85 639.318 1283.61 638.614 1286.68 638.614C1288.7 638.614 1290.58 638.898 1292.31 639.466C1294.05 640.034 1295.59 640.864 1296.93 641.955C1298.27 643.034 1299.36 644.358 1300.2 645.926C1301.05 647.494 1301.6 649.29 1301.84 651.312Z" fill="black"/>
<rect x="1222" y="747" width="130" height="130" fill="#F65E5E"/>
<path d="M1283.41 829H1271.03V794.091H1283.51C1287.02 794.091 1290.05 794.79 1292.58 796.188C1295.11 797.574 1297.06 799.568 1298.43 802.17C1299.8 804.773 1300.49 807.886 1300.49 811.511C1300.49 815.148 1299.8 818.273 1298.43 820.886C1297.06 823.5 1295.1 825.506 1292.55 826.903C1290 828.301 1286.95 829 1283.41 829ZM1278.41 822.676H1283.1C1285.28 822.676 1287.12 822.29 1288.61 821.517C1290.11 820.733 1291.23 819.523 1291.98 817.886C1292.74 816.239 1293.12 814.114 1293.12 811.511C1293.12 808.932 1292.74 806.824 1291.98 805.188C1291.23 803.551 1290.11 802.347 1288.62 801.574C1287.14 800.801 1285.3 800.415 1283.12 800.415H1278.41V822.676Z" fill="white"/>
<path d="M1553.05 364H1545.14L1557.19 329.091H1566.7L1578.74 364H1570.83L1562.09 337.068H1561.81L1553.05 364ZM1552.56 350.278H1571.24V356.04H1552.56V350.278Z" fill="white"/>
<path d="M1549.03 519V484.091H1563.01C1565.58 484.091 1567.72 484.472 1569.44 485.233C1571.15 485.994 1572.44 487.051 1573.31 488.403C1574.17 489.744 1574.6 491.29 1574.6 493.04C1574.6 494.403 1574.33 495.602 1573.78 496.636C1573.24 497.659 1572.49 498.5 1571.53 499.159C1570.59 499.807 1569.51 500.267 1568.3 500.54V500.881C1569.63 500.937 1570.87 501.312 1572.03 502.006C1573.2 502.699 1574.15 503.67 1574.88 504.92C1575.6 506.159 1575.97 507.636 1575.97 509.352C1575.97 511.205 1575.51 512.858 1574.59 514.312C1573.68 515.756 1572.33 516.898 1570.55 517.739C1568.76 518.58 1566.56 519 1563.95 519H1549.03ZM1556.41 512.966H1562.43C1564.49 512.966 1565.99 512.574 1566.93 511.79C1567.88 510.994 1568.35 509.937 1568.35 508.619C1568.35 507.653 1568.11 506.801 1567.65 506.062C1567.18 505.324 1566.52 504.744 1565.65 504.324C1564.8 503.903 1563.78 503.693 1562.6 503.693H1556.41V512.966ZM1556.41 498.699H1561.89C1562.9 498.699 1563.8 498.523 1564.58 498.17C1565.38 497.807 1566 497.295 1566.45 496.636C1566.92 495.977 1567.15 495.188 1567.15 494.267C1567.15 493.006 1566.7 491.989 1565.81 491.216C1564.92 490.443 1563.66 490.057 1562.02 490.057H1556.41V498.699Z" fill="white"/>
<path d="M1577.84 651.312H1570.37C1570.23 650.347 1569.95 649.489 1569.53 648.739C1569.11 647.977 1568.57 647.33 1567.91 646.795C1567.26 646.261 1566.49 645.852 1565.63 645.568C1564.78 645.284 1563.85 645.142 1562.85 645.142C1561.05 645.142 1559.47 645.591 1558.13 646.489C1556.79 647.375 1555.75 648.67 1555.01 650.375C1554.27 652.068 1553.9 654.125 1553.9 656.545C1553.9 659.034 1554.27 661.125 1555.01 662.818C1555.76 664.511 1556.81 665.79 1558.15 666.653C1559.49 667.517 1561.04 667.949 1562.8 667.949C1563.79 667.949 1564.7 667.818 1565.55 667.557C1566.4 667.295 1567.15 666.915 1567.81 666.415C1568.47 665.903 1569.02 665.284 1569.45 664.557C1569.89 663.83 1570.2 663 1570.37 662.068L1577.84 662.102C1577.64 663.705 1577.16 665.25 1576.39 666.739C1575.63 668.216 1574.6 669.54 1573.3 670.71C1572.02 671.869 1570.48 672.79 1568.7 673.472C1566.93 674.142 1564.92 674.477 1562.68 674.477C1559.57 674.477 1556.78 673.773 1554.33 672.364C1551.89 670.955 1549.95 668.915 1548.53 666.244C1547.12 663.574 1546.42 660.341 1546.42 656.545C1546.42 652.739 1547.14 649.5 1548.57 646.83C1550 644.159 1551.94 642.125 1554.4 640.727C1556.85 639.318 1559.61 638.614 1562.68 638.614C1564.7 638.614 1566.58 638.898 1568.31 639.466C1570.05 640.034 1571.59 640.864 1572.93 641.955C1574.27 643.034 1575.36 644.358 1576.2 645.926C1577.05 647.494 1577.6 649.29 1577.84 651.312Z" fill="white"/>
<rect x="1496" y="747" width="130" height="130" fill="#72A0F9"/>
<path d="M1559.41 829H1547.03V794.091H1559.51C1563.02 794.091 1566.05 794.79 1568.58 796.188C1571.11 797.574 1573.06 799.568 1574.43 802.17C1575.8 804.773 1576.49 807.886 1576.49 811.511C1576.49 815.148 1575.8 818.273 1574.43 820.886C1573.06 823.5 1571.1 825.506 1568.55 826.903C1566 828.301 1562.95 829 1559.41 829ZM1554.41 822.676H1559.1C1561.28 822.676 1563.12 822.29 1564.61 821.517C1566.11 820.733 1567.23 819.523 1567.98 817.886C1568.74 816.239 1569.12 814.114 1569.12 811.511C1569.12 808.932 1568.74 806.824 1567.98 805.188C1567.23 803.551 1566.11 802.347 1564.62 801.574C1563.14 800.801 1561.3 800.415 1559.12 800.415H1554.41V822.676Z" fill="black"/>
</svg>
