<svg width="2311" height="1027" viewBox="0 0 2311 1027" fill="none" xmlns="http://www.w3.org/2000/svg">
<rect width="2311" height="1027" fill="white"/>
<rect x="333.5" y="289.5" width="145" height="145" fill="#F65E5E" stroke="black" stroke-width="15"/>
<rect x="333" y="444" width="146" height="146" rx="73" fill="#72A0F9" stroke="black" stroke-width="16"/>
<rect x="341" y="607" width="130" height="130" fill="#5EC289"/>
<path d="M33.8352 356.312H26.3693C26.233 355.347 25.9545 354.489 25.5341 353.739C25.1136 352.977 24.5739 352.33 23.9148 351.795C23.2557 351.261 22.4943 350.852 21.6307 350.568C20.7784 350.284 19.8523 350.142 18.8523 350.142C17.0455 350.142 15.4716 350.591 14.1307 351.489C12.7898 352.375 11.75 353.67 11.0114 355.375C10.2727 357.068 9.90341 359.125 9.90341 361.545C9.90341 364.034 10.2727 366.125 11.0114 367.818C11.7614 369.511 12.8068 370.79 14.1477 371.653C15.4886 372.517 17.0398 372.949 18.8011 372.949C19.7898 372.949 20.7045 372.818 21.5455 372.557C22.3977 372.295 23.1534 371.915 23.8125 371.415C24.4716 370.903 25.017 370.284 25.4489 369.557C25.892 368.83 26.1989 368 26.3693 367.068L33.8352 367.102C33.642 368.705 33.1591 370.25 32.3864 371.739C31.625 373.216 30.5966 374.54 29.3011 375.71C28.017 376.869 26.483 377.79 24.6989 378.472C22.9261 379.142 20.9205 379.477 18.6818 379.477C15.5682 379.477 12.7841 378.773 10.3295 377.364C7.88636 375.955 5.95455 373.915 4.53409 371.244C3.125 368.574 2.42045 365.341 2.42045 361.545C2.42045 357.739 3.13636 354.5 4.56818 351.83C6 349.159 7.94318 347.125 10.3977 345.727C12.8523 344.318 15.6136 343.614 18.6818 343.614C20.7045 343.614 22.5795 343.898 24.3068 344.466C26.0455 345.034 27.5852 345.864 28.9261 346.955C30.267 348.034 31.358 349.358 32.1989 350.926C33.0511 352.494 33.5966 354.29 33.8352 356.312ZM55.7812 367.852V352.818H63.0426V379H56.071V374.244H55.7983C55.2074 375.778 54.2244 377.011 52.8494 377.943C51.4858 378.875 49.821 379.341 47.8551 379.341C46.1051 379.341 44.5653 378.943 43.2358 378.148C41.9063 377.352 40.8665 376.222 40.1165 374.756C39.3778 373.29 39.0028 371.534 38.9915 369.489V352.818H46.2528V368.193C46.2642 369.739 46.679 370.96 47.4972 371.858C48.3153 372.756 49.4119 373.205 50.7869 373.205C51.6619 373.205 52.4801 373.006 53.2415 372.608C54.0028 372.199 54.6165 371.597 55.0824 370.801C55.5597 370.006 55.7926 369.023 55.7812 367.852ZM68.8509 379V352.818H75.8906V357.386H76.1634C76.6406 355.761 77.4418 354.534 78.5668 353.705C79.6918 352.864 80.9872 352.443 82.4531 352.443C82.8168 352.443 83.2088 352.466 83.6293 352.511C84.0497 352.557 84.419 352.619 84.7372 352.699V359.142C84.3963 359.04 83.9247 358.949 83.3224 358.869C82.7202 358.79 82.169 358.75 81.669 358.75C80.6009 358.75 79.6463 358.983 78.8054 359.449C77.9759 359.903 77.3168 360.54 76.8281 361.358C76.3509 362.176 76.1122 363.119 76.1122 364.188V379H68.8509ZM110.276 360.284L103.628 360.693C103.514 360.125 103.27 359.614 102.895 359.159C102.52 358.693 102.026 358.324 101.412 358.051C100.81 357.767 100.088 357.625 99.2472 357.625C98.1222 357.625 97.1733 357.864 96.4006 358.341C95.6278 358.807 95.2415 359.432 95.2415 360.216C95.2415 360.841 95.4915 361.369 95.9915 361.801C96.4915 362.233 97.3494 362.58 98.5653 362.841L103.304 363.795C105.849 364.318 107.747 365.159 108.997 366.318C110.247 367.477 110.872 369 110.872 370.886C110.872 372.602 110.366 374.108 109.355 375.403C108.355 376.699 106.98 377.71 105.23 378.438C103.491 379.153 101.486 379.511 99.2131 379.511C95.7472 379.511 92.9858 378.79 90.929 377.347C88.8835 375.892 87.6847 373.915 87.3324 371.415L94.4744 371.04C94.6903 372.097 95.2131 372.903 96.0426 373.46C96.8722 374.006 97.9347 374.278 99.2301 374.278C100.503 374.278 101.526 374.034 102.298 373.545C103.082 373.045 103.48 372.403 103.491 371.619C103.48 370.96 103.202 370.42 102.656 370C102.111 369.568 101.27 369.239 100.134 369.011L95.5994 368.108C93.0426 367.597 91.1392 366.71 89.8892 365.449C88.6506 364.187 88.0312 362.58 88.0312 360.625C88.0312 358.943 88.4858 357.494 89.3949 356.278C90.3153 355.062 91.6051 354.125 93.2642 353.466C94.9347 352.807 96.8892 352.477 99.1278 352.477C102.435 352.477 105.037 353.176 106.935 354.574C108.844 355.972 109.957 357.875 110.276 360.284ZM127.274 379.511C124.626 379.511 122.337 378.949 120.405 377.824C118.484 376.687 117.001 375.108 115.956 373.085C114.911 371.051 114.388 368.693 114.388 366.011C114.388 363.307 114.911 360.943 115.956 358.92C117.001 356.886 118.484 355.307 120.405 354.182C122.337 353.045 124.626 352.477 127.274 352.477C129.922 352.477 132.206 353.045 134.126 354.182C136.058 355.307 137.547 356.886 138.592 358.92C139.638 360.943 140.161 363.307 140.161 366.011C140.161 368.693 139.638 371.051 138.592 373.085C137.547 375.108 136.058 376.687 134.126 377.824C132.206 378.949 129.922 379.511 127.274 379.511ZM127.308 373.886C128.513 373.886 129.518 373.545 130.325 372.864C131.132 372.17 131.74 371.227 132.149 370.034C132.57 368.841 132.78 367.483 132.78 365.96C132.78 364.438 132.57 363.08 132.149 361.886C131.74 360.693 131.132 359.75 130.325 359.057C129.518 358.364 128.513 358.017 127.308 358.017C126.092 358.017 125.07 358.364 124.24 359.057C123.422 359.75 122.803 360.693 122.382 361.886C121.973 363.08 121.768 364.438 121.768 365.96C121.768 367.483 121.973 368.841 122.382 370.034C122.803 371.227 123.422 372.17 124.24 372.864C125.07 373.545 126.092 373.886 127.308 373.886ZM144.882 379V352.818H151.922V357.386H152.195C152.672 355.761 153.473 354.534 154.598 353.705C155.723 352.864 157.018 352.443 158.484 352.443C158.848 352.443 159.24 352.466 159.661 352.511C160.081 352.557 160.45 352.619 160.768 352.699V359.142C160.428 359.04 159.956 358.949 159.354 358.869C158.751 358.79 158.2 358.75 157.7 358.75C156.632 358.75 155.678 358.983 154.837 359.449C154.007 359.903 153.348 360.54 152.859 361.358C152.382 362.176 152.143 363.119 152.143 364.188V379H144.882ZM190.751 344.091V379H183.371V351.097H183.166L175.172 356.108V349.562L183.814 344.091H190.751Z" fill="black"/>
<path d="M33.8352 511.312H26.3693C26.233 510.347 25.9545 509.489 25.5341 508.739C25.1136 507.977 24.5739 507.33 23.9148 506.795C23.2557 506.261 22.4943 505.852 21.6307 505.568C20.7784 505.284 19.8523 505.142 18.8523 505.142C17.0455 505.142 15.4716 505.591 14.1307 506.489C12.7898 507.375 11.75 508.67 11.0114 510.375C10.2727 512.068 9.90341 514.125 9.90341 516.545C9.90341 519.034 10.2727 521.125 11.0114 522.818C11.7614 524.511 12.8068 525.79 14.1477 526.653C15.4886 527.517 17.0398 527.949 18.8011 527.949C19.7898 527.949 20.7045 527.818 21.5455 527.557C22.3977 527.295 23.1534 526.915 23.8125 526.415C24.4716 525.903 25.017 525.284 25.4489 524.557C25.892 523.83 26.1989 523 26.3693 522.068L33.8352 522.102C33.642 523.705 33.1591 525.25 32.3864 526.739C31.625 528.216 30.5966 529.54 29.3011 530.71C28.017 531.869 26.483 532.79 24.6989 533.472C22.9261 534.142 20.9205 534.477 18.6818 534.477C15.5682 534.477 12.7841 533.773 10.3295 532.364C7.88636 530.955 5.95455 528.915 4.53409 526.244C3.125 523.574 2.42045 520.341 2.42045 516.545C2.42045 512.739 3.13636 509.5 4.56818 506.83C6 504.159 7.94318 502.125 10.3977 500.727C12.8523 499.318 15.6136 498.614 18.6818 498.614C20.7045 498.614 22.5795 498.898 24.3068 499.466C26.0455 500.034 27.5852 500.864 28.9261 501.955C30.267 503.034 31.358 504.358 32.1989 505.926C33.0511 507.494 33.5966 509.29 33.8352 511.312ZM55.7812 522.852V507.818H63.0426V534H56.071V529.244H55.7983C55.2074 530.778 54.2244 532.011 52.8494 532.943C51.4858 533.875 49.821 534.341 47.8551 534.341C46.1051 534.341 44.5653 533.943 43.2358 533.148C41.9063 532.352 40.8665 531.222 40.1165 529.756C39.3778 528.29 39.0028 526.534 38.9915 524.489V507.818H46.2528V523.193C46.2642 524.739 46.679 525.96 47.4972 526.858C48.3153 527.756 49.4119 528.205 50.7869 528.205C51.6619 528.205 52.4801 528.006 53.2415 527.608C54.0028 527.199 54.6165 526.597 55.0824 525.801C55.5597 525.006 55.7926 524.023 55.7812 522.852ZM68.8509 534V507.818H75.8906V512.386H76.1634C76.6406 510.761 77.4418 509.534 78.5668 508.705C79.6918 507.864 80.9872 507.443 82.4531 507.443C82.8168 507.443 83.2088 507.466 83.6293 507.511C84.0497 507.557 84.419 507.619 84.7372 507.699V514.142C84.3963 514.04 83.9247 513.949 83.3224 513.869C82.7202 513.79 82.169 513.75 81.669 513.75C80.6009 513.75 79.6463 513.983 78.8054 514.449C77.9759 514.903 77.3168 515.54 76.8281 516.358C76.3509 517.176 76.1122 518.119 76.1122 519.188V534H68.8509ZM110.276 515.284L103.628 515.693C103.514 515.125 103.27 514.614 102.895 514.159C102.52 513.693 102.026 513.324 101.412 513.051C100.81 512.767 100.088 512.625 99.2472 512.625C98.1222 512.625 97.1733 512.864 96.4006 513.341C95.6278 513.807 95.2415 514.432 95.2415 515.216C95.2415 515.841 95.4915 516.369 95.9915 516.801C96.4915 517.233 97.3494 517.58 98.5653 517.841L103.304 518.795C105.849 519.318 107.747 520.159 108.997 521.318C110.247 522.477 110.872 524 110.872 525.886C110.872 527.602 110.366 529.108 109.355 530.403C108.355 531.699 106.98 532.71 105.23 533.438C103.491 534.153 101.486 534.511 99.2131 534.511C95.7472 534.511 92.9858 533.79 90.929 532.347C88.8835 530.892 87.6847 528.915 87.3324 526.415L94.4744 526.04C94.6903 527.097 95.2131 527.903 96.0426 528.46C96.8722 529.006 97.9347 529.278 99.2301 529.278C100.503 529.278 101.526 529.034 102.298 528.545C103.082 528.045 103.48 527.403 103.491 526.619C103.48 525.96 103.202 525.42 102.656 525C102.111 524.568 101.27 524.239 100.134 524.011L95.5994 523.108C93.0426 522.597 91.1392 521.71 89.8892 520.449C88.6506 519.187 88.0312 517.58 88.0312 515.625C88.0312 513.943 88.4858 512.494 89.3949 511.278C90.3153 510.062 91.6051 509.125 93.2642 508.466C94.9347 507.807 96.8892 507.477 99.1278 507.477C102.435 507.477 105.037 508.176 106.935 509.574C108.844 510.972 109.957 512.875 110.276 515.284ZM127.274 534.511C124.626 534.511 122.337 533.949 120.405 532.824C118.484 531.687 117.001 530.108 115.956 528.085C114.911 526.051 114.388 523.693 114.388 521.011C114.388 518.307 114.911 515.943 115.956 513.92C117.001 511.886 118.484 510.307 120.405 509.182C122.337 508.045 124.626 507.477 127.274 507.477C129.922 507.477 132.206 508.045 134.126 509.182C136.058 510.307 137.547 511.886 138.592 513.92C139.638 515.943 140.161 518.307 140.161 521.011C140.161 523.693 139.638 526.051 138.592 528.085C137.547 530.108 136.058 531.687 134.126 532.824C132.206 533.949 129.922 534.511 127.274 534.511ZM127.308 528.886C128.513 528.886 129.518 528.545 130.325 527.864C131.132 527.17 131.74 526.227 132.149 525.034C132.57 523.841 132.78 522.483 132.78 520.96C132.78 519.438 132.57 518.08 132.149 516.886C131.74 515.693 131.132 514.75 130.325 514.057C129.518 513.364 128.513 513.017 127.308 513.017C126.092 513.017 125.07 513.364 124.24 514.057C123.422 514.75 122.803 515.693 122.382 516.886C121.973 518.08 121.768 519.438 121.768 520.96C121.768 522.483 121.973 523.841 122.382 525.034C122.803 526.227 123.422 527.17 124.24 527.864C125.07 528.545 126.092 528.886 127.308 528.886ZM144.882 534V507.818H151.922V512.386H152.195C152.672 510.761 153.473 509.534 154.598 508.705C155.723 507.864 157.018 507.443 158.484 507.443C158.848 507.443 159.24 507.466 159.661 507.511C160.081 507.557 160.45 507.619 160.768 507.699V514.142C160.428 514.04 159.956 513.949 159.354 513.869C158.751 513.79 158.2 513.75 157.7 513.75C156.632 513.75 155.678 513.983 154.837 514.449C154.007 514.903 153.348 515.54 152.859 516.358C152.382 517.176 152.143 518.119 152.143 519.188V534H144.882ZM175.564 534V528.682L187.99 517.176C189.047 516.153 189.933 515.233 190.649 514.415C191.376 513.597 191.928 512.795 192.303 512.011C192.678 511.216 192.865 510.358 192.865 509.438C192.865 508.415 192.632 507.534 192.166 506.795C191.7 506.045 191.064 505.472 190.257 505.074C189.45 504.665 188.536 504.46 187.513 504.46C186.445 504.46 185.513 504.676 184.717 505.108C183.922 505.54 183.308 506.159 182.876 506.966C182.445 507.773 182.229 508.733 182.229 509.847H175.223C175.223 507.562 175.74 505.58 176.774 503.898C177.808 502.216 179.257 500.915 181.121 499.994C182.984 499.074 185.132 498.614 187.564 498.614C190.064 498.614 192.24 499.057 194.092 499.943C195.956 500.818 197.405 502.034 198.439 503.591C199.473 505.148 199.99 506.932 199.99 508.943C199.99 510.261 199.729 511.562 199.206 512.847C198.695 514.131 197.78 515.557 196.462 517.125C195.143 518.682 193.286 520.551 190.888 522.733L185.791 527.727V527.966H200.45V534H175.564Z" fill="#EF72F9"/>
<path d="M315.596 366.596C318.135 364.058 318.135 359.942 315.596 357.404L274.23 316.038C271.692 313.5 267.576 313.5 265.038 316.038C262.5 318.576 262.5 322.692 265.038 325.23L301.808 362L265.038 398.77C262.5 401.308 262.5 405.424 265.038 407.962C267.576 410.5 271.692 410.5 274.23 407.962L315.596 366.596ZM212 368.5H311V355.5H212V368.5Z" fill="black"/>
<path d="M315.596 521.596C318.135 519.058 318.135 514.942 315.596 512.404L274.23 471.038C271.692 468.5 267.576 468.5 265.038 471.038C262.5 473.576 262.5 477.692 265.038 480.23L301.808 517L265.038 553.77C262.5 556.308 262.5 560.424 265.038 562.962C267.576 565.5 271.692 565.5 274.23 562.962L315.596 521.596ZM212 523.5H311V510.5H212V523.5Z" fill="#EF72F9"/>
<path d="M639.596 676.596C642.135 674.058 642.135 669.942 639.596 667.404L598.23 626.038C595.692 623.5 591.576 623.5 589.038 626.038C586.5 628.576 586.5 632.692 589.038 635.23L625.808 672L589.038 708.77C586.5 711.308 586.5 715.424 589.038 717.962C591.576 720.5 595.692 720.5 598.23 717.962L639.596 676.596ZM536 678.5H635V665.5H536V678.5Z" fill="#EF72F9"/>
<path d="M963.596 366.596C966.135 364.058 966.135 359.942 963.596 357.404L922.23 316.038C919.692 313.5 915.576 313.5 913.038 316.038C910.5 318.576 910.5 322.692 913.038 325.23L949.808 362L913.038 398.77C910.5 401.308 910.5 405.424 913.038 407.962C915.576 410.5 919.692 410.5 922.23 407.962L963.596 366.596ZM860 368.5H959V355.5H860V368.5Z" fill="#EF72F9"/>
<path d="M1289.6 521.596C1292.13 519.058 1292.13 514.942 1289.6 512.404L1248.23 471.038C1245.69 468.5 1241.58 468.5 1239.04 471.038C1236.5 473.576 1236.5 477.692 1239.04 480.23L1275.81 517L1239.04 553.77C1236.5 556.308 1236.5 560.424 1239.04 562.962C1241.58 565.5 1245.69 565.5 1248.23 562.962L1289.6 521.596ZM1186 523.5H1285V510.5H1186V523.5Z" fill="#EF72F9"/>
<path d="M1613.6 676.596C1616.13 674.058 1616.13 669.942 1613.6 667.404L1572.23 626.038C1569.69 623.5 1565.58 623.5 1563.04 626.038C1560.5 628.576 1560.5 632.692 1563.04 635.23L1599.81 672L1563.04 708.77C1560.5 711.308 1560.5 715.424 1563.04 717.962C1565.58 720.5 1569.69 720.5 1572.23 717.962L1613.6 676.596ZM1510 678.5H1609V665.5H1510V678.5Z" fill="#EF72F9"/>
<path d="M1937.6 366.596C1940.13 364.058 1940.13 359.942 1937.6 357.404L1896.23 316.038C1893.69 313.5 1889.58 313.5 1887.04 316.038C1884.5 318.576 1884.5 322.692 1887.04 325.23L1923.81 362L1887.04 398.77C1884.5 401.308 1884.5 405.424 1887.04 407.962C1889.58 410.5 1893.69 410.5 1896.23 407.962L1937.6 366.596ZM1834 368.5H1933V355.5H1834V368.5Z" fill="#EF72F9"/>
<rect x="665" y="297" width="130" height="130" fill="#F65E5E"/>
<rect x="657.5" y="444.5" width="145" height="145" fill="#72A0F9" stroke="black" stroke-width="15"/>
<rect x="657" y="599" width="146" height="146" rx="73" fill="#5EC289" stroke="black" stroke-width="16"/>
<path d="M639.596 521.596C642.135 519.058 642.135 514.942 639.596 512.404L598.23 471.038C595.692 468.5 591.576 468.5 589.038 471.038C586.5 473.576 586.5 477.692 589.038 480.23L625.808 517L589.038 553.77C586.5 556.308 586.5 560.424 589.038 562.962C591.576 565.5 595.692 565.5 598.23 562.962L639.596 521.596ZM536 523.5H635V510.5H536V523.5Z" fill="black"/>
<rect x="981" y="289" width="146" height="146" rx="73" fill="#F65E5E" stroke="black" stroke-width="16"/>
<rect x="989" y="452" width="130" height="130" fill="#72A0F9"/>
<rect x="981.5" y="599.5" width="145" height="145" fill="#5EC289" stroke="black" stroke-width="15"/>
<path d="M963.596 676.596C966.135 674.058 966.135 669.942 963.596 667.404L922.23 626.038C919.692 623.5 915.576 623.5 913.038 626.038C910.5 628.576 910.5 632.692 913.038 635.23L949.808 672L913.038 708.77C910.5 711.308 910.5 715.424 913.038 717.962C915.576 720.5 919.692 720.5 922.23 717.962L963.596 676.596ZM860 678.5H959V665.5H860V678.5Z" fill="black"/>
<path d="M331.705 181.176V175.091H360.375V181.176H349.688V210H342.392V181.176H331.705ZM364.96 210V183.818H372.222V210H364.96ZM368.608 180.443C367.528 180.443 366.602 180.085 365.83 179.369C365.068 178.642 364.688 177.773 364.688 176.761C364.688 175.761 365.068 174.903 365.83 174.188C366.602 173.46 367.528 173.097 368.608 173.097C369.688 173.097 370.608 173.46 371.369 174.188C372.142 174.903 372.528 175.761 372.528 176.761C372.528 177.773 372.142 178.642 371.369 179.369C370.608 180.085 369.688 180.443 368.608 180.443ZM389.868 210.511C387.186 210.511 384.879 209.943 382.947 208.807C381.027 207.659 379.55 206.068 378.516 204.034C377.493 202 376.982 199.659 376.982 197.011C376.982 194.33 377.499 191.977 378.533 189.955C379.578 187.92 381.061 186.335 382.982 185.199C384.902 184.051 387.186 183.477 389.834 183.477C392.118 183.477 394.118 183.892 395.834 184.722C397.55 185.551 398.908 186.716 399.908 188.216C400.908 189.716 401.459 191.477 401.561 193.5H394.709C394.516 192.193 394.004 191.142 393.175 190.347C392.357 189.54 391.283 189.136 389.953 189.136C388.828 189.136 387.845 189.443 387.004 190.057C386.175 190.659 385.527 191.54 385.061 192.699C384.595 193.858 384.362 195.261 384.362 196.909C384.362 198.58 384.589 200 385.044 201.17C385.51 202.341 386.163 203.233 387.004 203.847C387.845 204.46 388.828 204.767 389.953 204.767C390.783 204.767 391.527 204.597 392.186 204.256C392.857 203.915 393.408 203.42 393.839 202.773C394.283 202.114 394.572 201.324 394.709 200.403H401.561C401.447 202.403 400.902 204.165 399.925 205.688C398.959 207.199 397.624 208.381 395.919 209.233C394.214 210.085 392.197 210.511 389.868 210.511ZM412.79 202.466L412.807 193.756H413.864L422.25 183.818H430.585L419.318 196.977H417.597L412.79 202.466ZM406.21 210V175.091H413.472V210H406.21ZM422.574 210L414.869 198.597L419.71 193.466L431.08 210H422.574ZM460.376 175.091V210H452.996V182.097H452.791L444.797 187.108V180.562L453.439 175.091H460.376Z" fill="black"/>
<path d="M660.705 181.176V175.091H689.375V181.176H678.688V210H671.392V181.176H660.705ZM693.96 210V183.818H701.222V210H693.96ZM697.608 180.443C696.528 180.443 695.602 180.085 694.83 179.369C694.068 178.642 693.688 177.773 693.688 176.761C693.688 175.761 694.068 174.903 694.83 174.188C695.602 173.46 696.528 173.097 697.608 173.097C698.688 173.097 699.608 173.46 700.369 174.188C701.142 174.903 701.528 175.761 701.528 176.761C701.528 177.773 701.142 178.642 700.369 179.369C699.608 180.085 698.688 180.443 697.608 180.443ZM718.868 210.511C716.186 210.511 713.879 209.943 711.947 208.807C710.027 207.659 708.55 206.068 707.516 204.034C706.493 202 705.982 199.659 705.982 197.011C705.982 194.33 706.499 191.977 707.533 189.955C708.578 187.92 710.061 186.335 711.982 185.199C713.902 184.051 716.186 183.477 718.834 183.477C721.118 183.477 723.118 183.892 724.834 184.722C726.55 185.551 727.908 186.716 728.908 188.216C729.908 189.716 730.459 191.477 730.561 193.5H723.709C723.516 192.193 723.004 191.142 722.175 190.347C721.357 189.54 720.283 189.136 718.953 189.136C717.828 189.136 716.845 189.443 716.004 190.057C715.175 190.659 714.527 191.54 714.061 192.699C713.595 193.858 713.362 195.261 713.362 196.909C713.362 198.58 713.589 200 714.044 201.17C714.51 202.341 715.163 203.233 716.004 203.847C716.845 204.46 717.828 204.767 718.953 204.767C719.783 204.767 720.527 204.597 721.186 204.256C721.857 203.915 722.408 203.42 722.839 202.773C723.283 202.114 723.572 201.324 723.709 200.403H730.561C730.447 202.403 729.902 204.165 728.925 205.688C727.959 207.199 726.624 208.381 724.919 209.233C723.214 210.085 721.197 210.511 718.868 210.511ZM741.79 202.466L741.807 193.756H742.864L751.25 183.818H759.585L748.318 196.977H746.597L741.79 202.466ZM735.21 210V175.091H742.472V210H735.21ZM751.574 210L743.869 198.597L748.71 193.466L760.08 210H751.574ZM774.189 210V204.682L786.615 193.176C787.672 192.153 788.558 191.233 789.274 190.415C790.001 189.597 790.553 188.795 790.928 188.011C791.303 187.216 791.49 186.358 791.49 185.438C791.49 184.415 791.257 183.534 790.791 182.795C790.325 182.045 789.689 181.472 788.882 181.074C788.075 180.665 787.161 180.46 786.138 180.46C785.07 180.46 784.138 180.676 783.342 181.108C782.547 181.54 781.933 182.159 781.501 182.966C781.07 183.773 780.854 184.733 780.854 185.847H773.848C773.848 183.562 774.365 181.58 775.399 179.898C776.433 178.216 777.882 176.915 779.746 175.994C781.609 175.074 783.757 174.614 786.189 174.614C788.689 174.614 790.865 175.057 792.717 175.943C794.581 176.818 796.03 178.034 797.064 179.591C798.098 181.148 798.615 182.932 798.615 184.943C798.615 186.261 798.354 187.562 797.831 188.847C797.32 190.131 796.405 191.557 795.087 193.125C793.768 194.682 791.911 196.551 789.513 198.733L784.416 203.727V203.966H799.075V210H774.189Z" fill="black"/>
<rect x="1307.5" y="289.5" width="145" height="145" fill="#F65E5E" stroke="black" stroke-width="15"/>
<rect x="1307" y="444" width="146" height="146" rx="73" fill="#72A0F9" stroke="black" stroke-width="16"/>
<rect x="1315" y="607" width="130" height="130" fill="#5EC289"/>
<path d="M1289.6 366.596C1292.13 364.058 1292.13 359.942 1289.6 357.404L1248.23 316.038C1245.69 313.5 1241.58 313.5 1239.04 316.038C1236.5 318.576 1236.5 322.692 1239.04 325.23L1275.81 362L1239.04 398.77C1236.5 401.308 1236.5 405.424 1239.04 407.962C1241.58 410.5 1245.69 410.5 1248.23 407.962L1289.6 366.596ZM1186 368.5H1285V355.5H1186V368.5Z" fill="black"/>
<rect x="1639" y="297" width="130" height="130" fill="#F65E5E"/>
<rect x="1631.5" y="444.5" width="145" height="145" fill="#72A0F9" stroke="black" stroke-width="15"/>
<rect x="1631.5" y="599.5" width="145" height="145" rx="72.5" fill="#5EC289" stroke="black" stroke-width="15"/>
<path d="M1613.6 521.596C1616.13 519.058 1616.13 514.942 1613.6 512.404L1572.23 471.038C1569.69 468.5 1565.58 468.5 1563.04 471.038C1560.5 473.576 1560.5 477.692 1563.04 480.23L1599.81 517L1563.04 553.77C1560.5 556.308 1560.5 560.424 1563.04 562.962C1565.58 565.5 1569.69 565.5 1572.23 562.962L1613.6 521.596ZM1510 523.5H1609V510.5H1510V523.5Z" fill="black"/>
<rect x="1955.5" y="289.5" width="145" height="145" rx="72.5" fill="#F65E5E" stroke="black" stroke-width="15"/>
<rect x="1963" y="452" width="130" height="130" fill="#72A0F9"/>
<rect x="1955.5" y="599.5" width="145" height="145" fill="#5EC289" stroke="black" stroke-width="15"/>
<path d="M1937.6 676.596C1940.13 674.058 1940.13 669.942 1937.6 667.404L1896.23 626.038C1893.69 623.5 1889.58 623.5 1887.04 626.038C1884.5 628.576 1884.5 632.692 1887.04 635.23L1923.81 672L1887.04 708.77C1884.5 711.308 1884.5 715.424 1887.04 717.962C1889.58 720.5 1893.69 720.5 1896.23 717.962L1937.6 676.596ZM1834 678.5H1933V665.5H1834V678.5Z" fill="black"/>
<path d="M981.705 181.176V175.091H1010.38V181.176H999.688V210H992.392V181.176H981.705ZM1014.96 210V183.818H1022.22V210H1014.96ZM1018.61 180.443C1017.53 180.443 1016.6 180.085 1015.83 179.369C1015.07 178.642 1014.69 177.773 1014.69 176.761C1014.69 175.761 1015.07 174.903 1015.83 174.188C1016.6 173.46 1017.53 173.097 1018.61 173.097C1019.69 173.097 1020.61 173.46 1021.37 174.188C1022.14 174.903 1022.53 175.761 1022.53 176.761C1022.53 177.773 1022.14 178.642 1021.37 179.369C1020.61 180.085 1019.69 180.443 1018.61 180.443ZM1039.87 210.511C1037.19 210.511 1034.88 209.943 1032.95 208.807C1031.03 207.659 1029.55 206.068 1028.52 204.034C1027.49 202 1026.98 199.659 1026.98 197.011C1026.98 194.33 1027.5 191.977 1028.53 189.955C1029.58 187.92 1031.06 186.335 1032.98 185.199C1034.9 184.051 1037.19 183.477 1039.83 183.477C1042.12 183.477 1044.12 183.892 1045.83 184.722C1047.55 185.551 1048.91 186.716 1049.91 188.216C1050.91 189.716 1051.46 191.477 1051.56 193.5H1044.71C1044.52 192.193 1044 191.142 1043.17 190.347C1042.36 189.54 1041.28 189.136 1039.95 189.136C1038.83 189.136 1037.85 189.443 1037 190.057C1036.17 190.659 1035.53 191.54 1035.06 192.699C1034.6 193.858 1034.36 195.261 1034.36 196.909C1034.36 198.58 1034.59 200 1035.04 201.17C1035.51 202.341 1036.16 203.233 1037 203.847C1037.85 204.46 1038.83 204.767 1039.95 204.767C1040.78 204.767 1041.53 204.597 1042.19 204.256C1042.86 203.915 1043.41 203.42 1043.84 202.773C1044.28 202.114 1044.57 201.324 1044.71 200.403H1051.56C1051.45 202.403 1050.9 204.165 1049.92 205.688C1048.96 207.199 1047.62 208.381 1045.92 209.233C1044.21 210.085 1042.2 210.511 1039.87 210.511ZM1062.79 202.466L1062.81 193.756H1063.86L1072.25 183.818H1080.59L1069.32 196.977H1067.6L1062.79 202.466ZM1056.21 210V175.091H1063.47V210H1056.21ZM1072.57 210L1064.87 198.597L1069.71 193.466L1081.08 210H1072.57ZM1108.09 210.477C1105.55 210.477 1103.28 210.04 1101.29 209.165C1099.31 208.278 1097.75 207.062 1096.6 205.517C1095.47 203.96 1094.88 202.165 1094.85 200.131H1102.28C1102.33 200.983 1102.6 201.733 1103.12 202.381C1103.64 203.017 1104.33 203.511 1105.19 203.864C1106.06 204.216 1107.03 204.392 1108.11 204.392C1109.23 204.392 1110.23 204.193 1111.09 203.795C1111.96 203.398 1112.63 202.847 1113.12 202.142C1113.61 201.437 1113.85 200.625 1113.85 199.705C1113.85 198.773 1113.59 197.949 1113.07 197.233C1112.56 196.506 1111.82 195.937 1110.85 195.528C1109.9 195.119 1108.76 194.915 1107.44 194.915H1104.19V189.494H1107.44C1108.56 189.494 1109.54 189.301 1110.39 188.915C1111.26 188.528 1111.93 187.994 1112.4 187.312C1112.88 186.619 1113.12 185.812 1113.12 184.892C1113.12 184.017 1112.91 183.25 1112.49 182.591C1112.08 181.92 1111.5 181.398 1110.75 181.023C1110.01 180.648 1109.15 180.46 1108.16 180.46C1107.16 180.46 1106.25 180.642 1105.42 181.006C1104.59 181.358 1103.92 181.864 1103.42 182.523C1102.92 183.182 1102.65 183.955 1102.62 184.841H1095.55C1095.58 182.83 1096.15 181.057 1097.27 179.523C1098.38 177.989 1099.88 176.79 1101.77 175.926C1103.67 175.051 1105.81 174.614 1108.19 174.614C1110.6 174.614 1112.71 175.051 1114.52 175.926C1116.33 176.801 1117.73 177.983 1118.73 179.472C1119.74 180.949 1120.24 182.608 1120.23 184.449C1120.24 186.403 1119.63 188.034 1118.4 189.341C1117.19 190.648 1115.6 191.477 1113.65 191.83V192.102C1116.22 192.432 1118.17 193.324 1119.51 194.778C1120.87 196.222 1121.54 198.028 1121.52 200.199C1121.54 202.188 1120.96 203.955 1119.8 205.5C1118.65 207.045 1117.07 208.261 1115.05 209.148C1113.02 210.034 1110.71 210.477 1108.09 210.477Z" fill="black"/>
<path d="M1305.7 181.176V175.091H1334.38V181.176H1323.69V210H1316.39V181.176H1305.7ZM1338.96 210V183.818H1346.22V210H1338.96ZM1342.61 180.443C1341.53 180.443 1340.6 180.085 1339.83 179.369C1339.07 178.642 1338.69 177.773 1338.69 176.761C1338.69 175.761 1339.07 174.903 1339.83 174.188C1340.6 173.46 1341.53 173.097 1342.61 173.097C1343.69 173.097 1344.61 173.46 1345.37 174.188C1346.14 174.903 1346.53 175.761 1346.53 176.761C1346.53 177.773 1346.14 178.642 1345.37 179.369C1344.61 180.085 1343.69 180.443 1342.61 180.443ZM1363.87 210.511C1361.19 210.511 1358.88 209.943 1356.95 208.807C1355.03 207.659 1353.55 206.068 1352.52 204.034C1351.49 202 1350.98 199.659 1350.98 197.011C1350.98 194.33 1351.5 191.977 1352.53 189.955C1353.58 187.92 1355.06 186.335 1356.98 185.199C1358.9 184.051 1361.19 183.477 1363.83 183.477C1366.12 183.477 1368.12 183.892 1369.83 184.722C1371.55 185.551 1372.91 186.716 1373.91 188.216C1374.91 189.716 1375.46 191.477 1375.56 193.5H1368.71C1368.52 192.193 1368 191.142 1367.17 190.347C1366.36 189.54 1365.28 189.136 1363.95 189.136C1362.83 189.136 1361.85 189.443 1361 190.057C1360.17 190.659 1359.53 191.54 1359.06 192.699C1358.6 193.858 1358.36 195.261 1358.36 196.909C1358.36 198.58 1358.59 200 1359.04 201.17C1359.51 202.341 1360.16 203.233 1361 203.847C1361.85 204.46 1362.83 204.767 1363.95 204.767C1364.78 204.767 1365.53 204.597 1366.19 204.256C1366.86 203.915 1367.41 203.42 1367.84 202.773C1368.28 202.114 1368.57 201.324 1368.71 200.403H1375.56C1375.45 202.403 1374.9 204.165 1373.92 205.688C1372.96 207.199 1371.62 208.381 1369.92 209.233C1368.21 210.085 1366.2 210.511 1363.87 210.511ZM1386.79 202.466L1386.81 193.756H1387.86L1396.25 183.818H1404.59L1393.32 196.977H1391.6L1386.79 202.466ZM1380.21 210V175.091H1387.47V210H1380.21ZM1396.57 210L1388.87 198.597L1393.71 193.466L1405.08 210H1396.57ZM1418.66 203.864V198.051L1433.23 175.091H1438.25V183.136H1435.28L1426.09 197.676V197.949H1446.8V203.864H1418.66ZM1435.42 210V202.091L1435.55 199.517V175.091H1442.47V210H1435.42Z" fill="black"/>
<path d="M1634.7 181.176V175.091H1663.38V181.176H1652.69V210H1645.39V181.176H1634.7ZM1667.96 210V183.818H1675.22V210H1667.96ZM1671.61 180.443C1670.53 180.443 1669.6 180.085 1668.83 179.369C1668.07 178.642 1667.69 177.773 1667.69 176.761C1667.69 175.761 1668.07 174.903 1668.83 174.188C1669.6 173.46 1670.53 173.097 1671.61 173.097C1672.69 173.097 1673.61 173.46 1674.37 174.188C1675.14 174.903 1675.53 175.761 1675.53 176.761C1675.53 177.773 1675.14 178.642 1674.37 179.369C1673.61 180.085 1672.69 180.443 1671.61 180.443ZM1692.87 210.511C1690.19 210.511 1687.88 209.943 1685.95 208.807C1684.03 207.659 1682.55 206.068 1681.52 204.034C1680.49 202 1679.98 199.659 1679.98 197.011C1679.98 194.33 1680.5 191.977 1681.53 189.955C1682.58 187.92 1684.06 186.335 1685.98 185.199C1687.9 184.051 1690.19 183.477 1692.83 183.477C1695.12 183.477 1697.12 183.892 1698.83 184.722C1700.55 185.551 1701.91 186.716 1702.91 188.216C1703.91 189.716 1704.46 191.477 1704.56 193.5H1697.71C1697.52 192.193 1697 191.142 1696.17 190.347C1695.36 189.54 1694.28 189.136 1692.95 189.136C1691.83 189.136 1690.85 189.443 1690 190.057C1689.17 190.659 1688.53 191.54 1688.06 192.699C1687.6 193.858 1687.36 195.261 1687.36 196.909C1687.36 198.58 1687.59 200 1688.04 201.17C1688.51 202.341 1689.16 203.233 1690 203.847C1690.85 204.46 1691.83 204.767 1692.95 204.767C1693.78 204.767 1694.53 204.597 1695.19 204.256C1695.86 203.915 1696.41 203.42 1696.84 202.773C1697.28 202.114 1697.57 201.324 1697.71 200.403H1704.56C1704.45 202.403 1703.9 204.165 1702.92 205.688C1701.96 207.199 1700.62 208.381 1698.92 209.233C1697.21 210.085 1695.2 210.511 1692.87 210.511ZM1715.79 202.466L1715.81 193.756H1716.86L1725.25 183.818H1733.59L1722.32 196.977H1720.6L1715.79 202.466ZM1709.21 210V175.091H1716.47V210H1709.21ZM1725.57 210L1717.87 198.597L1722.71 193.466L1734.08 210H1725.57ZM1760.94 210.477C1758.53 210.477 1756.38 210.034 1754.5 209.148C1752.62 208.261 1751.13 207.04 1750.03 205.483C1748.93 203.926 1748.35 202.142 1748.31 200.131H1755.47C1755.55 201.483 1756.12 202.58 1757.17 203.42C1758.23 204.261 1759.48 204.682 1760.94 204.682C1762.1 204.682 1763.12 204.426 1764.01 203.915C1764.9 203.392 1765.6 202.67 1766.1 201.75C1766.62 200.818 1766.87 199.75 1766.87 198.545C1766.87 197.318 1766.61 196.239 1766.09 195.307C1765.58 194.375 1764.87 193.648 1763.96 193.125C1763.05 192.602 1762.01 192.335 1760.84 192.324C1759.81 192.324 1758.82 192.534 1757.85 192.955C1756.9 193.375 1756.15 193.949 1755.62 194.676L1749.06 193.5L1750.71 175.091H1772.05V181.125H1756.8L1755.89 189.869H1756.1C1756.71 189.006 1757.64 188.29 1758.88 187.722C1760.12 187.153 1761.5 186.869 1763.04 186.869C1765.14 186.869 1767.01 187.364 1768.66 188.352C1770.31 189.341 1771.61 190.699 1772.56 192.426C1773.52 194.142 1773.99 196.119 1773.98 198.358C1773.99 200.71 1773.44 202.801 1772.34 204.631C1771.25 206.449 1769.72 207.881 1767.76 208.926C1765.8 209.96 1763.53 210.477 1760.94 210.477Z" fill="black"/>
<path d="M1956.7 181.176V175.091H1985.38V181.176H1974.69V210H1967.39V181.176H1956.7ZM1989.96 210V183.818H1997.22V210H1989.96ZM1993.61 180.443C1992.53 180.443 1991.6 180.085 1990.83 179.369C1990.07 178.642 1989.69 177.773 1989.69 176.761C1989.69 175.761 1990.07 174.903 1990.83 174.188C1991.6 173.46 1992.53 173.097 1993.61 173.097C1994.69 173.097 1995.61 173.46 1996.37 174.188C1997.14 174.903 1997.53 175.761 1997.53 176.761C1997.53 177.773 1997.14 178.642 1996.37 179.369C1995.61 180.085 1994.69 180.443 1993.61 180.443ZM2014.87 210.511C2012.19 210.511 2009.88 209.943 2007.95 208.807C2006.03 207.659 2004.55 206.068 2003.52 204.034C2002.49 202 2001.98 199.659 2001.98 197.011C2001.98 194.33 2002.5 191.977 2003.53 189.955C2004.58 187.92 2006.06 186.335 2007.98 185.199C2009.9 184.051 2012.19 183.477 2014.83 183.477C2017.12 183.477 2019.12 183.892 2020.83 184.722C2022.55 185.551 2023.91 186.716 2024.91 188.216C2025.91 189.716 2026.46 191.477 2026.56 193.5H2019.71C2019.52 192.193 2019 191.142 2018.17 190.347C2017.36 189.54 2016.28 189.136 2014.95 189.136C2013.83 189.136 2012.85 189.443 2012 190.057C2011.17 190.659 2010.53 191.54 2010.06 192.699C2009.6 193.858 2009.36 195.261 2009.36 196.909C2009.36 198.58 2009.59 200 2010.04 201.17C2010.51 202.341 2011.16 203.233 2012 203.847C2012.85 204.46 2013.83 204.767 2014.95 204.767C2015.78 204.767 2016.53 204.597 2017.19 204.256C2017.86 203.915 2018.41 203.42 2018.84 202.773C2019.28 202.114 2019.57 201.324 2019.71 200.403H2026.56C2026.45 202.403 2025.9 204.165 2024.92 205.688C2023.96 207.199 2022.62 208.381 2020.92 209.233C2019.21 210.085 2017.2 210.511 2014.87 210.511ZM2037.79 202.466L2037.81 193.756H2038.86L2047.25 183.818H2055.59L2044.32 196.977H2042.6L2037.79 202.466ZM2031.21 210V175.091H2038.47V210H2031.21ZM2047.57 210L2039.87 198.597L2044.71 193.466L2056.08 210H2047.57ZM2083.59 210.477C2081.79 210.466 2080.06 210.165 2078.39 209.574C2076.73 208.983 2075.24 208.023 2073.92 206.693C2072.6 205.364 2071.56 203.602 2070.79 201.409C2070.02 199.216 2069.64 196.523 2069.64 193.33C2069.65 190.398 2069.99 187.778 2070.65 185.472C2071.32 183.153 2072.27 181.187 2073.51 179.574C2074.76 177.96 2076.26 176.733 2078 175.892C2079.73 175.04 2081.68 174.614 2083.84 174.614C2086.17 174.614 2088.23 175.068 2090.01 175.977C2091.8 176.875 2093.23 178.097 2094.31 179.642C2095.4 181.188 2096.06 182.92 2096.29 184.841H2089.01C2088.72 183.625 2088.13 182.67 2087.22 181.977C2086.31 181.284 2085.18 180.938 2083.84 180.938C2081.57 180.938 2079.84 181.926 2078.66 183.903C2077.49 185.881 2076.89 188.568 2076.87 191.966H2077.11C2077.63 190.932 2078.34 190.051 2079.22 189.324C2080.12 188.585 2081.14 188.023 2082.27 187.636C2083.42 187.239 2084.63 187.04 2085.9 187.04C2087.97 187.04 2089.81 187.528 2091.43 188.506C2093.04 189.472 2094.31 190.801 2095.25 192.494C2096.18 194.187 2096.64 196.125 2096.64 198.307C2096.64 200.67 2096.09 202.773 2094.99 204.614C2093.9 206.455 2092.37 207.898 2090.4 208.943C2088.45 209.977 2086.18 210.489 2083.59 210.477ZM2083.55 204.682C2084.69 204.682 2085.71 204.409 2086.6 203.864C2087.5 203.318 2088.21 202.58 2088.72 201.648C2089.23 200.716 2089.48 199.67 2089.48 198.511C2089.48 197.352 2089.23 196.312 2088.72 195.392C2088.22 194.472 2087.52 193.739 2086.64 193.193C2085.75 192.648 2084.74 192.375 2083.6 192.375C2082.75 192.375 2081.96 192.534 2081.23 192.852C2080.52 193.17 2079.89 193.614 2079.34 194.182C2078.81 194.75 2078.39 195.409 2078.08 196.159C2077.77 196.898 2077.62 197.687 2077.62 198.528C2077.62 199.653 2077.88 200.682 2078.39 201.614C2078.91 202.545 2079.62 203.29 2080.5 203.847C2081.4 204.403 2082.42 204.682 2083.55 204.682Z" fill="black"/>
<path d="M397.051 379H389.142L401.193 344.091H410.705L422.739 379H414.83L406.085 352.068H405.812L397.051 379ZM396.557 365.278H415.239V371.04H396.557V365.278Z" fill="white"/>
<path d="M393.034 534V499.091H407.011C409.58 499.091 411.722 499.472 413.438 500.233C415.153 500.994 416.443 502.051 417.307 503.403C418.17 504.744 418.602 506.29 418.602 508.04C418.602 509.403 418.33 510.602 417.784 511.636C417.239 512.659 416.489 513.5 415.534 514.159C414.591 514.807 413.511 515.267 412.295 515.54V515.881C413.625 515.937 414.869 516.312 416.028 517.006C417.199 517.699 418.148 518.67 418.875 519.92C419.602 521.159 419.966 522.636 419.966 524.352C419.966 526.205 419.506 527.858 418.585 529.312C417.676 530.756 416.33 531.898 414.545 532.739C412.761 533.58 410.563 534 407.949 534H393.034ZM400.415 527.966H406.432C408.489 527.966 409.989 527.574 410.932 526.79C411.875 525.994 412.347 524.937 412.347 523.619C412.347 522.653 412.114 521.801 411.648 521.062C411.182 520.324 410.517 519.744 409.653 519.324C408.801 518.903 407.784 518.693 406.602 518.693H400.415V527.966ZM400.415 513.699H405.886C406.898 513.699 407.795 513.523 408.58 513.17C409.375 512.807 410 512.295 410.455 511.636C410.92 510.977 411.153 510.188 411.153 509.267C411.153 508.006 410.705 506.989 409.807 506.216C408.92 505.443 407.659 505.057 406.023 505.057H400.415V513.699Z" fill="white"/>
<path d="M421.835 666.312H414.369C414.233 665.347 413.955 664.489 413.534 663.739C413.114 662.977 412.574 662.33 411.915 661.795C411.256 661.261 410.494 660.852 409.631 660.568C408.778 660.284 407.852 660.142 406.852 660.142C405.045 660.142 403.472 660.591 402.131 661.489C400.79 662.375 399.75 663.67 399.011 665.375C398.273 667.068 397.903 669.125 397.903 671.545C397.903 674.034 398.273 676.125 399.011 677.818C399.761 679.511 400.807 680.79 402.148 681.653C403.489 682.517 405.04 682.949 406.801 682.949C407.79 682.949 408.705 682.818 409.545 682.557C410.398 682.295 411.153 681.915 411.812 681.415C412.472 680.903 413.017 680.284 413.449 679.557C413.892 678.83 414.199 678 414.369 677.068L421.835 677.102C421.642 678.705 421.159 680.25 420.386 681.739C419.625 683.216 418.597 684.54 417.301 685.71C416.017 686.869 414.483 687.79 412.699 688.472C410.926 689.142 408.92 689.477 406.682 689.477C403.568 689.477 400.784 688.773 398.33 687.364C395.886 685.955 393.955 683.915 392.534 681.244C391.125 678.574 390.42 675.341 390.42 671.545C390.42 667.739 391.136 664.5 392.568 661.83C394 659.159 395.943 657.125 398.398 655.727C400.852 654.318 403.614 653.614 406.682 653.614C408.705 653.614 410.58 653.898 412.307 654.466C414.045 655.034 415.585 655.864 416.926 656.955C418.267 658.034 419.358 659.358 420.199 660.926C421.051 662.494 421.597 664.29 421.835 666.312Z" fill="white"/>
<path d="M720.051 379H712.142L724.193 344.091H733.705L745.739 379H737.83L729.085 352.068H728.812L720.051 379ZM719.557 365.278H738.239V371.04H719.557V365.278Z" fill="white"/>
<path d="M716.034 534V499.091H730.011C732.58 499.091 734.722 499.472 736.438 500.233C738.153 500.994 739.443 502.051 740.307 503.403C741.17 504.744 741.602 506.29 741.602 508.04C741.602 509.403 741.33 510.602 740.784 511.636C740.239 512.659 739.489 513.5 738.534 514.159C737.591 514.807 736.511 515.267 735.295 515.54V515.881C736.625 515.937 737.869 516.312 739.028 517.006C740.199 517.699 741.148 518.67 741.875 519.92C742.602 521.159 742.966 522.636 742.966 524.352C742.966 526.205 742.506 527.858 741.585 529.312C740.676 530.756 739.33 531.898 737.545 532.739C735.761 533.58 733.563 534 730.949 534H716.034ZM723.415 527.966H729.432C731.489 527.966 732.989 527.574 733.932 526.79C734.875 525.994 735.347 524.937 735.347 523.619C735.347 522.653 735.114 521.801 734.648 521.062C734.182 520.324 733.517 519.744 732.653 519.324C731.801 518.903 730.784 518.693 729.602 518.693H723.415V527.966ZM723.415 513.699H728.886C729.898 513.699 730.795 513.523 731.58 513.17C732.375 512.807 733 512.295 733.455 511.636C733.92 510.977 734.153 510.188 734.153 509.267C734.153 508.006 733.705 506.989 732.807 506.216C731.92 505.443 730.659 505.057 729.023 505.057H723.415V513.699Z" fill="white"/>
<path d="M744.835 666.312H737.369C737.233 665.347 736.955 664.489 736.534 663.739C736.114 662.977 735.574 662.33 734.915 661.795C734.256 661.261 733.494 660.852 732.631 660.568C731.778 660.284 730.852 660.142 729.852 660.142C728.045 660.142 726.472 660.591 725.131 661.489C723.79 662.375 722.75 663.67 722.011 665.375C721.273 667.068 720.903 669.125 720.903 671.545C720.903 674.034 721.273 676.125 722.011 677.818C722.761 679.511 723.807 680.79 725.148 681.653C726.489 682.517 728.04 682.949 729.801 682.949C730.79 682.949 731.705 682.818 732.545 682.557C733.398 682.295 734.153 681.915 734.812 681.415C735.472 680.903 736.017 680.284 736.449 679.557C736.892 678.83 737.199 678 737.369 677.068L744.835 677.102C744.642 678.705 744.159 680.25 743.386 681.739C742.625 683.216 741.597 684.54 740.301 685.71C739.017 686.869 737.483 687.79 735.699 688.472C733.926 689.142 731.92 689.477 729.682 689.477C726.568 689.477 723.784 688.773 721.33 687.364C718.886 685.955 716.955 683.915 715.534 681.244C714.125 678.574 713.42 675.341 713.42 671.545C713.42 667.739 714.136 664.5 715.568 661.83C717 659.159 718.943 657.125 721.398 655.727C723.852 654.318 726.614 653.614 729.682 653.614C731.705 653.614 733.58 653.898 735.307 654.466C737.045 655.034 738.585 655.864 739.926 656.955C741.267 658.034 742.358 659.358 743.199 660.926C744.051 662.494 744.597 664.29 744.835 666.312Z" fill="white"/>
<path d="M1044.05 379H1036.14L1048.19 344.091H1057.7L1069.74 379H1061.83L1053.09 352.068H1052.81L1044.05 379ZM1043.56 365.278H1062.24V371.04H1043.56V365.278Z" fill="white"/>
<path d="M1040.03 534V499.091H1054.01C1056.58 499.091 1058.72 499.472 1060.44 500.233C1062.15 500.994 1063.44 502.051 1064.31 503.403C1065.17 504.744 1065.6 506.29 1065.6 508.04C1065.6 509.403 1065.33 510.602 1064.78 511.636C1064.24 512.659 1063.49 513.5 1062.53 514.159C1061.59 514.807 1060.51 515.267 1059.3 515.54V515.881C1060.63 515.937 1061.87 516.312 1063.03 517.006C1064.2 517.699 1065.15 518.67 1065.88 519.92C1066.6 521.159 1066.97 522.636 1066.97 524.352C1066.97 526.205 1066.51 527.858 1065.59 529.312C1064.68 530.756 1063.33 531.898 1061.55 532.739C1059.76 533.58 1057.56 534 1054.95 534H1040.03ZM1047.41 527.966H1053.43C1055.49 527.966 1056.99 527.574 1057.93 526.79C1058.88 525.994 1059.35 524.937 1059.35 523.619C1059.35 522.653 1059.11 521.801 1058.65 521.062C1058.18 520.324 1057.52 519.744 1056.65 519.324C1055.8 518.903 1054.78 518.693 1053.6 518.693H1047.41V527.966ZM1047.41 513.699H1052.89C1053.9 513.699 1054.8 513.523 1055.58 513.17C1056.38 512.807 1057 512.295 1057.45 511.636C1057.92 510.977 1058.15 510.188 1058.15 509.267C1058.15 508.006 1057.7 506.989 1056.81 506.216C1055.92 505.443 1054.66 505.057 1053.02 505.057H1047.41V513.699Z" fill="white"/>
<path d="M1068.84 666.312H1061.37C1061.23 665.347 1060.95 664.489 1060.53 663.739C1060.11 662.977 1059.57 662.33 1058.91 661.795C1058.26 661.261 1057.49 660.852 1056.63 660.568C1055.78 660.284 1054.85 660.142 1053.85 660.142C1052.05 660.142 1050.47 660.591 1049.13 661.489C1047.79 662.375 1046.75 663.67 1046.01 665.375C1045.27 667.068 1044.9 669.125 1044.9 671.545C1044.9 674.034 1045.27 676.125 1046.01 677.818C1046.76 679.511 1047.81 680.79 1049.15 681.653C1050.49 682.517 1052.04 682.949 1053.8 682.949C1054.79 682.949 1055.7 682.818 1056.55 682.557C1057.4 682.295 1058.15 681.915 1058.81 681.415C1059.47 680.903 1060.02 680.284 1060.45 679.557C1060.89 678.83 1061.2 678 1061.37 677.068L1068.84 677.102C1068.64 678.705 1068.16 680.25 1067.39 681.739C1066.63 683.216 1065.6 684.54 1064.3 685.71C1063.02 686.869 1061.48 687.79 1059.7 688.472C1057.93 689.142 1055.92 689.477 1053.68 689.477C1050.57 689.477 1047.78 688.773 1045.33 687.364C1042.89 685.955 1040.95 683.915 1039.53 681.244C1038.12 678.574 1037.42 675.341 1037.42 671.545C1037.42 667.739 1038.14 664.5 1039.57 661.83C1041 659.159 1042.94 657.125 1045.4 655.727C1047.85 654.318 1050.61 653.614 1053.68 653.614C1055.7 653.614 1057.58 653.898 1059.31 654.466C1061.05 655.034 1062.59 655.864 1063.93 656.955C1065.27 658.034 1066.36 659.358 1067.2 660.926C1068.05 662.494 1068.6 664.29 1068.84 666.312Z" fill="white"/>
<path d="M1372.05 379H1364.14L1376.19 344.091H1385.7L1397.74 379H1389.83L1381.09 352.068H1380.81L1372.05 379ZM1371.56 365.278H1390.24V371.04H1371.56V365.278Z" fill="white"/>
<path d="M1368.03 534V499.091H1382.01C1384.58 499.091 1386.72 499.472 1388.44 500.233C1390.15 500.994 1391.44 502.051 1392.31 503.403C1393.17 504.744 1393.6 506.29 1393.6 508.04C1393.6 509.403 1393.33 510.602 1392.78 511.636C1392.24 512.659 1391.49 513.5 1390.53 514.159C1389.59 514.807 1388.51 515.267 1387.3 515.54V515.881C1388.63 515.937 1389.87 516.312 1391.03 517.006C1392.2 517.699 1393.15 518.67 1393.88 519.92C1394.6 521.159 1394.97 522.636 1394.97 524.352C1394.97 526.205 1394.51 527.858 1393.59 529.312C1392.68 530.756 1391.33 531.898 1389.55 532.739C1387.76 533.58 1385.56 534 1382.95 534H1368.03ZM1375.41 527.966H1381.43C1383.49 527.966 1384.99 527.574 1385.93 526.79C1386.88 525.994 1387.35 524.937 1387.35 523.619C1387.35 522.653 1387.11 521.801 1386.65 521.062C1386.18 520.324 1385.52 519.744 1384.65 519.324C1383.8 518.903 1382.78 518.693 1381.6 518.693H1375.41V527.966ZM1375.41 513.699H1380.89C1381.9 513.699 1382.8 513.523 1383.58 513.17C1384.38 512.807 1385 512.295 1385.45 511.636C1385.92 510.977 1386.15 510.188 1386.15 509.267C1386.15 508.006 1385.7 506.989 1384.81 506.216C1383.92 505.443 1382.66 505.057 1381.02 505.057H1375.41V513.699Z" fill="white"/>
<path d="M1396.84 666.312H1389.37C1389.23 665.347 1388.95 664.489 1388.53 663.739C1388.11 662.977 1387.57 662.33 1386.91 661.795C1386.26 661.261 1385.49 660.852 1384.63 660.568C1383.78 660.284 1382.85 660.142 1381.85 660.142C1380.05 660.142 1378.47 660.591 1377.13 661.489C1375.79 662.375 1374.75 663.67 1374.01 665.375C1373.27 667.068 1372.9 669.125 1372.9 671.545C1372.9 674.034 1373.27 676.125 1374.01 677.818C1374.76 679.511 1375.81 680.79 1377.15 681.653C1378.49 682.517 1380.04 682.949 1381.8 682.949C1382.79 682.949 1383.7 682.818 1384.55 682.557C1385.4 682.295 1386.15 681.915 1386.81 681.415C1387.47 680.903 1388.02 680.284 1388.45 679.557C1388.89 678.83 1389.2 678 1389.37 677.068L1396.84 677.102C1396.64 678.705 1396.16 680.25 1395.39 681.739C1394.63 683.216 1393.6 684.54 1392.3 685.71C1391.02 686.869 1389.48 687.79 1387.7 688.472C1385.93 689.142 1383.92 689.477 1381.68 689.477C1378.57 689.477 1375.78 688.773 1373.33 687.364C1370.89 685.955 1368.95 683.915 1367.53 681.244C1366.12 678.574 1365.42 675.341 1365.42 671.545C1365.42 667.739 1366.14 664.5 1367.57 661.83C1369 659.159 1370.94 657.125 1373.4 655.727C1375.85 654.318 1378.61 653.614 1381.68 653.614C1383.7 653.614 1385.58 653.898 1387.31 654.466C1389.05 655.034 1390.59 655.864 1391.93 656.955C1393.27 658.034 1394.36 659.358 1395.2 660.926C1396.05 662.494 1396.6 664.29 1396.84 666.312Z" fill="white"/>
<path d="M1694.05 379H1686.14L1698.19 344.091H1707.7L1719.74 379H1711.83L1703.09 352.068H1702.81L1694.05 379ZM1693.56 365.278H1712.24V371.04H1693.56V365.278Z" fill="white"/>
<path d="M1690.03 534V499.091H1704.01C1706.58 499.091 1708.72 499.472 1710.44 500.233C1712.15 500.994 1713.44 502.051 1714.31 503.403C1715.17 504.744 1715.6 506.29 1715.6 508.04C1715.6 509.403 1715.33 510.602 1714.78 511.636C1714.24 512.659 1713.49 513.5 1712.53 514.159C1711.59 514.807 1710.51 515.267 1709.3 515.54V515.881C1710.63 515.937 1711.87 516.312 1713.03 517.006C1714.2 517.699 1715.15 518.67 1715.88 519.92C1716.6 521.159 1716.97 522.636 1716.97 524.352C1716.97 526.205 1716.51 527.858 1715.59 529.312C1714.68 530.756 1713.33 531.898 1711.55 532.739C1709.76 533.58 1707.56 534 1704.95 534H1690.03ZM1697.41 527.966H1703.43C1705.49 527.966 1706.99 527.574 1707.93 526.79C1708.88 525.994 1709.35 524.937 1709.35 523.619C1709.35 522.653 1709.11 521.801 1708.65 521.062C1708.18 520.324 1707.52 519.744 1706.65 519.324C1705.8 518.903 1704.78 518.693 1703.6 518.693H1697.41V527.966ZM1697.41 513.699H1702.89C1703.9 513.699 1704.8 513.523 1705.58 513.17C1706.38 512.807 1707 512.295 1707.45 511.636C1707.92 510.977 1708.15 510.188 1708.15 509.267C1708.15 508.006 1707.7 506.989 1706.81 506.216C1705.92 505.443 1704.66 505.057 1703.02 505.057H1697.41V513.699Z" fill="white"/>
<path d="M1718.84 666.312H1711.37C1711.23 665.347 1710.95 664.489 1710.53 663.739C1710.11 662.977 1709.57 662.33 1708.91 661.795C1708.26 661.261 1707.49 660.852 1706.63 660.568C1705.78 660.284 1704.85 660.142 1703.85 660.142C1702.05 660.142 1700.47 660.591 1699.13 661.489C1697.79 662.375 1696.75 663.67 1696.01 665.375C1695.27 667.068 1694.9 669.125 1694.9 671.545C1694.9 674.034 1695.27 676.125 1696.01 677.818C1696.76 679.511 1697.81 680.79 1699.15 681.653C1700.49 682.517 1702.04 682.949 1703.8 682.949C1704.79 682.949 1705.7 682.818 1706.55 682.557C1707.4 682.295 1708.15 681.915 1708.81 681.415C1709.47 680.903 1710.02 680.284 1710.45 679.557C1710.89 678.83 1711.2 678 1711.37 677.068L1718.84 677.102C1718.64 678.705 1718.16 680.25 1717.39 681.739C1716.63 683.216 1715.6 684.54 1714.3 685.71C1713.02 686.869 1711.48 687.79 1709.7 688.472C1707.93 689.142 1705.92 689.477 1703.68 689.477C1700.57 689.477 1697.78 688.773 1695.33 687.364C1692.89 685.955 1690.95 683.915 1689.53 681.244C1688.12 678.574 1687.42 675.341 1687.42 671.545C1687.42 667.739 1688.14 664.5 1689.57 661.83C1691 659.159 1692.94 657.125 1695.4 655.727C1697.85 654.318 1700.61 653.614 1703.68 653.614C1705.7 653.614 1707.58 653.898 1709.31 654.466C1711.05 655.034 1712.59 655.864 1713.93 656.955C1715.27 658.034 1716.36 659.358 1717.2 660.926C1718.05 662.494 1718.6 664.29 1718.84 666.312Z" fill="white"/>
<path d="M2018.05 379H2010.14L2022.19 344.091H2031.7L2043.74 379H2035.83L2027.09 352.068H2026.81L2018.05 379ZM2017.56 365.278H2036.24V371.04H2017.56V365.278Z" fill="white"/>
<path d="M2014.03 534V499.091H2028.01C2030.58 499.091 2032.72 499.472 2034.44 500.233C2036.15 500.994 2037.44 502.051 2038.31 503.403C2039.17 504.744 2039.6 506.29 2039.6 508.04C2039.6 509.403 2039.33 510.602 2038.78 511.636C2038.24 512.659 2037.49 513.5 2036.53 514.159C2035.59 514.807 2034.51 515.267 2033.3 515.54V515.881C2034.63 515.937 2035.87 516.312 2037.03 517.006C2038.2 517.699 2039.15 518.67 2039.88 519.92C2040.6 521.159 2040.97 522.636 2040.97 524.352C2040.97 526.205 2040.51 527.858 2039.59 529.312C2038.68 530.756 2037.33 531.898 2035.55 532.739C2033.76 533.58 2031.56 534 2028.95 534H2014.03ZM2021.41 527.966H2027.43C2029.49 527.966 2030.99 527.574 2031.93 526.79C2032.88 525.994 2033.35 524.937 2033.35 523.619C2033.35 522.653 2033.11 521.801 2032.65 521.062C2032.18 520.324 2031.52 519.744 2030.65 519.324C2029.8 518.903 2028.78 518.693 2027.6 518.693H2021.41V527.966ZM2021.41 513.699H2026.89C2027.9 513.699 2028.8 513.523 2029.58 513.17C2030.38 512.807 2031 512.295 2031.45 511.636C2031.92 510.977 2032.15 510.188 2032.15 509.267C2032.15 508.006 2031.7 506.989 2030.81 506.216C2029.92 505.443 2028.66 505.057 2027.02 505.057H2021.41V513.699Z" fill="white"/>
<path d="M2042.84 666.312H2035.37C2035.23 665.347 2034.95 664.489 2034.53 663.739C2034.11 662.977 2033.57 662.33 2032.91 661.795C2032.26 661.261 2031.49 660.852 2030.63 660.568C2029.78 660.284 2028.85 660.142 2027.85 660.142C2026.05 660.142 2024.47 660.591 2023.13 661.489C2021.79 662.375 2020.75 663.67 2020.01 665.375C2019.27 667.068 2018.9 669.125 2018.9 671.545C2018.9 674.034 2019.27 676.125 2020.01 677.818C2020.76 679.511 2021.81 680.79 2023.15 681.653C2024.49 682.517 2026.04 682.949 2027.8 682.949C2028.79 682.949 2029.7 682.818 2030.55 682.557C2031.4 682.295 2032.15 681.915 2032.81 681.415C2033.47 680.903 2034.02 680.284 2034.45 679.557C2034.89 678.83 2035.2 678 2035.37 677.068L2042.84 677.102C2042.64 678.705 2042.16 680.25 2041.39 681.739C2040.63 683.216 2039.6 684.54 2038.3 685.71C2037.02 686.869 2035.48 687.79 2033.7 688.472C2031.93 689.142 2029.92 689.477 2027.68 689.477C2024.57 689.477 2021.78 688.773 2019.33 687.364C2016.89 685.955 2014.95 683.915 2013.53 681.244C2012.12 678.574 2011.42 675.341 2011.42 671.545C2011.42 667.739 2012.14 664.5 2013.57 661.83C2015 659.159 2016.94 657.125 2019.4 655.727C2021.85 654.318 2024.61 653.614 2027.68 653.614C2029.7 653.614 2031.58 653.898 2033.31 654.466C2035.05 655.034 2036.59 655.864 2037.93 656.955C2039.27 658.034 2040.36 659.358 2041.2 660.926C2042.05 662.494 2042.6 664.29 2042.84 666.312Z" fill="white"/>
</svg>
