<svg width="2311" height="1027" viewBox="0 0 2311 1027" fill="none" xmlns="http://www.w3.org/2000/svg">
<rect width="2311" height="1027" fill="white"/>
<rect x="333.5" y="289.5" width="145" height="145" fill="#F65E5E" stroke="black" stroke-width="15"/>
<rect x="341" y="452" width="130" height="130" fill="#72A0F9"/>
<rect x="341" y="607" width="130" height="130" fill="#5EC289"/>
<path d="M53.8352 356.312H46.3693C46.233 355.347 45.9545 354.489 45.5341 353.739C45.1136 352.977 44.5739 352.33 43.9148 351.795C43.2557 351.261 42.4943 350.852 41.6307 350.568C40.7784 350.284 39.8523 350.142 38.8523 350.142C37.0455 350.142 35.4716 350.591 34.1307 351.489C32.7898 352.375 31.75 353.67 31.0114 355.375C30.2727 357.068 29.9034 359.125 29.9034 361.545C29.9034 364.034 30.2727 366.125 31.0114 367.818C31.7614 369.511 32.8068 370.79 34.1477 371.653C35.4886 372.517 37.0398 372.949 38.8011 372.949C39.7898 372.949 40.7045 372.818 41.5455 372.557C42.3977 372.295 43.1534 371.915 43.8125 371.415C44.4716 370.903 45.017 370.284 45.4489 369.557C45.892 368.83 46.1989 368 46.3693 367.068L53.8352 367.102C53.642 368.705 53.1591 370.25 52.3864 371.739C51.625 373.216 50.5966 374.54 49.3011 375.71C48.017 376.869 46.483 377.79 44.6989 378.472C42.9261 379.142 40.9205 379.477 38.6818 379.477C35.5682 379.477 32.7841 378.773 30.3295 377.364C27.8864 375.955 25.9545 373.915 24.5341 371.244C23.125 368.574 22.4205 365.341 22.4205 361.545C22.4205 357.739 23.1364 354.5 24.5682 351.83C26 349.159 27.9432 347.125 30.3977 345.727C32.8523 344.318 35.6136 343.614 38.6818 343.614C40.7045 343.614 42.5795 343.898 44.3068 344.466C46.0455 345.034 47.5852 345.864 48.9261 346.955C50.267 348.034 51.358 349.358 52.1989 350.926C53.0511 352.494 53.5966 354.29 53.8352 356.312ZM75.7812 367.852V352.818H83.0426V379H76.071V374.244H75.7983C75.2074 375.778 74.2244 377.011 72.8494 377.943C71.4858 378.875 69.821 379.341 67.8551 379.341C66.1051 379.341 64.5653 378.943 63.2358 378.148C61.9063 377.352 60.8665 376.222 60.1165 374.756C59.3778 373.29 59.0028 371.534 58.9915 369.489V352.818H66.2528V368.193C66.2642 369.739 66.679 370.96 67.4972 371.858C68.3153 372.756 69.4119 373.205 70.7869 373.205C71.6619 373.205 72.4801 373.006 73.2415 372.608C74.0028 372.199 74.6165 371.597 75.0824 370.801C75.5597 370.006 75.7926 369.023 75.7812 367.852ZM88.8509 379V352.818H95.8906V357.386H96.1634C96.6406 355.761 97.4418 354.534 98.5668 353.705C99.6918 352.864 100.987 352.443 102.453 352.443C102.817 352.443 103.209 352.466 103.629 352.511C104.05 352.557 104.419 352.619 104.737 352.699V359.142C104.396 359.04 103.925 358.949 103.322 358.869C102.72 358.79 102.169 358.75 101.669 358.75C100.601 358.75 99.6463 358.983 98.8054 359.449C97.9759 359.903 97.3168 360.54 96.8281 361.358C96.3509 362.176 96.1122 363.119 96.1122 364.188V379H88.8509ZM130.276 360.284L123.628 360.693C123.514 360.125 123.27 359.614 122.895 359.159C122.52 358.693 122.026 358.324 121.412 358.051C120.81 357.767 120.088 357.625 119.247 357.625C118.122 357.625 117.173 357.864 116.401 358.341C115.628 358.807 115.241 359.432 115.241 360.216C115.241 360.841 115.491 361.369 115.991 361.801C116.491 362.233 117.349 362.58 118.565 362.841L123.304 363.795C125.849 364.318 127.747 365.159 128.997 366.318C130.247 367.477 130.872 369 130.872 370.886C130.872 372.602 130.366 374.108 129.355 375.403C128.355 376.699 126.98 377.71 125.23 378.438C123.491 379.153 121.486 379.511 119.213 379.511C115.747 379.511 112.986 378.79 110.929 377.347C108.884 375.892 107.685 373.915 107.332 371.415L114.474 371.04C114.69 372.097 115.213 372.903 116.043 373.46C116.872 374.006 117.935 374.278 119.23 374.278C120.503 374.278 121.526 374.034 122.298 373.545C123.082 373.045 123.48 372.403 123.491 371.619C123.48 370.96 123.202 370.42 122.656 370C122.111 369.568 121.27 369.239 120.134 369.011L115.599 368.108C113.043 367.597 111.139 366.71 109.889 365.449C108.651 364.187 108.031 362.58 108.031 360.625C108.031 358.943 108.486 357.494 109.395 356.278C110.315 355.062 111.605 354.125 113.264 353.466C114.935 352.807 116.889 352.477 119.128 352.477C122.435 352.477 125.037 353.176 126.935 354.574C128.844 355.972 129.957 357.875 130.276 360.284ZM147.274 379.511C144.626 379.511 142.337 378.949 140.405 377.824C138.484 376.687 137.001 375.108 135.956 373.085C134.911 371.051 134.388 368.693 134.388 366.011C134.388 363.307 134.911 360.943 135.956 358.92C137.001 356.886 138.484 355.307 140.405 354.182C142.337 353.045 144.626 352.477 147.274 352.477C149.922 352.477 152.206 353.045 154.126 354.182C156.058 355.307 157.547 356.886 158.592 358.92C159.638 360.943 160.161 363.307 160.161 366.011C160.161 368.693 159.638 371.051 158.592 373.085C157.547 375.108 156.058 376.687 154.126 377.824C152.206 378.949 149.922 379.511 147.274 379.511ZM147.308 373.886C148.513 373.886 149.518 373.545 150.325 372.864C151.132 372.17 151.74 371.227 152.149 370.034C152.57 368.841 152.78 367.483 152.78 365.96C152.78 364.438 152.57 363.08 152.149 361.886C151.74 360.693 151.132 359.75 150.325 359.057C149.518 358.364 148.513 358.017 147.308 358.017C146.092 358.017 145.07 358.364 144.24 359.057C143.422 359.75 142.803 360.693 142.382 361.886C141.973 363.08 141.768 364.438 141.768 365.96C141.768 367.483 141.973 368.841 142.382 370.034C142.803 371.227 143.422 372.17 144.24 372.864C145.07 373.545 146.092 373.886 147.308 373.886ZM164.882 379V352.818H171.922V357.386H172.195C172.672 355.761 173.473 354.534 174.598 353.705C175.723 352.864 177.018 352.443 178.484 352.443C178.848 352.443 179.24 352.466 179.661 352.511C180.081 352.557 180.45 352.619 180.768 352.699V359.142C180.428 359.04 179.956 358.949 179.354 358.869C178.751 358.79 178.2 358.75 177.7 358.75C176.632 358.75 175.678 358.983 174.837 359.449C174.007 359.903 173.348 360.54 172.859 361.358C172.382 362.176 172.143 363.119 172.143 364.188V379H164.882Z" fill="black"/>
<path d="M315.596 366.596C318.135 364.058 318.135 359.942 315.596 357.404L274.23 316.038C271.692 313.5 267.576 313.5 265.038 316.038C262.5 318.576 262.5 322.692 265.038 325.23L301.808 362L265.038 398.77C262.5 401.308 262.5 405.424 265.038 407.962C267.576 410.5 271.692 410.5 274.23 407.962L315.596 366.596ZM212 368.5H311V355.5H212V368.5Z" fill="black"/>
<rect x="665" y="297" width="130" height="130" fill="#F65E5E"/>
<rect x="657.5" y="444.5" width="145" height="145" fill="#72A0F9" stroke="black" stroke-width="15"/>
<rect x="665" y="607" width="130" height="130" fill="#5EC289"/>
<path d="M639.596 521.596C642.135 519.058 642.135 514.942 639.596 512.404L598.23 471.038C595.692 468.5 591.576 468.5 589.038 471.038C586.5 473.576 586.5 477.692 589.038 480.23L625.808 517L589.038 553.77C586.5 556.308 586.5 560.424 589.038 562.962C591.576 565.5 595.692 565.5 598.23 562.962L639.596 521.596ZM536 523.5H635V510.5H536V523.5Z" fill="black"/>
<rect x="989" y="297" width="130" height="130" fill="#F65E5E"/>
<rect x="989" y="452" width="130" height="130" fill="#72A0F9"/>
<rect x="981.5" y="599.5" width="145" height="145" fill="#5EC289" stroke="black" stroke-width="15"/>
<path d="M963.596 676.596C966.135 674.058 966.135 669.942 963.596 667.404L922.23 626.038C919.692 623.5 915.576 623.5 913.038 626.038C910.5 628.576 910.5 632.692 913.038 635.23L949.808 672L913.038 708.77C910.5 711.308 910.5 715.424 913.038 717.962C915.576 720.5 919.692 720.5 922.23 717.962L963.596 676.596ZM860 678.5H959V665.5H860V678.5Z" fill="black"/>
<path d="M331.705 181.176V175.091H360.375V181.176H349.688V210H342.392V181.176H331.705ZM364.96 210V183.818H372.222V210H364.96ZM368.608 180.443C367.528 180.443 366.602 180.085 365.83 179.369C365.068 178.642 364.688 177.773 364.688 176.761C364.688 175.761 365.068 174.903 365.83 174.188C366.602 173.46 367.528 173.097 368.608 173.097C369.688 173.097 370.608 173.46 371.369 174.188C372.142 174.903 372.528 175.761 372.528 176.761C372.528 177.773 372.142 178.642 371.369 179.369C370.608 180.085 369.688 180.443 368.608 180.443ZM389.868 210.511C387.186 210.511 384.879 209.943 382.947 208.807C381.027 207.659 379.55 206.068 378.516 204.034C377.493 202 376.982 199.659 376.982 197.011C376.982 194.33 377.499 191.977 378.533 189.955C379.578 187.92 381.061 186.335 382.982 185.199C384.902 184.051 387.186 183.477 389.834 183.477C392.118 183.477 394.118 183.892 395.834 184.722C397.55 185.551 398.908 186.716 399.908 188.216C400.908 189.716 401.459 191.477 401.561 193.5H394.709C394.516 192.193 394.004 191.142 393.175 190.347C392.357 189.54 391.283 189.136 389.953 189.136C388.828 189.136 387.845 189.443 387.004 190.057C386.175 190.659 385.527 191.54 385.061 192.699C384.595 193.858 384.362 195.261 384.362 196.909C384.362 198.58 384.589 200 385.044 201.17C385.51 202.341 386.163 203.233 387.004 203.847C387.845 204.46 388.828 204.767 389.953 204.767C390.783 204.767 391.527 204.597 392.186 204.256C392.857 203.915 393.408 203.42 393.839 202.773C394.283 202.114 394.572 201.324 394.709 200.403H401.561C401.447 202.403 400.902 204.165 399.925 205.688C398.959 207.199 397.624 208.381 395.919 209.233C394.214 210.085 392.197 210.511 389.868 210.511ZM412.79 202.466L412.807 193.756H413.864L422.25 183.818H430.585L419.318 196.977H417.597L412.79 202.466ZM406.21 210V175.091H413.472V210H406.21ZM422.574 210L414.869 198.597L419.71 193.466L431.08 210H422.574ZM460.376 175.091V210H452.996V182.097H452.791L444.797 187.108V180.562L453.439 175.091H460.376Z" fill="black"/>
<path d="M660.705 181.176V175.091H689.375V181.176H678.688V210H671.392V181.176H660.705ZM693.96 210V183.818H701.222V210H693.96ZM697.608 180.443C696.528 180.443 695.602 180.085 694.83 179.369C694.068 178.642 693.688 177.773 693.688 176.761C693.688 175.761 694.068 174.903 694.83 174.188C695.602 173.46 696.528 173.097 697.608 173.097C698.688 173.097 699.608 173.46 700.369 174.188C701.142 174.903 701.528 175.761 701.528 176.761C701.528 177.773 701.142 178.642 700.369 179.369C699.608 180.085 698.688 180.443 697.608 180.443ZM718.868 210.511C716.186 210.511 713.879 209.943 711.947 208.807C710.027 207.659 708.55 206.068 707.516 204.034C706.493 202 705.982 199.659 705.982 197.011C705.982 194.33 706.499 191.977 707.533 189.955C708.578 187.92 710.061 186.335 711.982 185.199C713.902 184.051 716.186 183.477 718.834 183.477C721.118 183.477 723.118 183.892 724.834 184.722C726.55 185.551 727.908 186.716 728.908 188.216C729.908 189.716 730.459 191.477 730.561 193.5H723.709C723.516 192.193 723.004 191.142 722.175 190.347C721.357 189.54 720.283 189.136 718.953 189.136C717.828 189.136 716.845 189.443 716.004 190.057C715.175 190.659 714.527 191.54 714.061 192.699C713.595 193.858 713.362 195.261 713.362 196.909C713.362 198.58 713.589 200 714.044 201.17C714.51 202.341 715.163 203.233 716.004 203.847C716.845 204.46 717.828 204.767 718.953 204.767C719.783 204.767 720.527 204.597 721.186 204.256C721.857 203.915 722.408 203.42 722.839 202.773C723.283 202.114 723.572 201.324 723.709 200.403H730.561C730.447 202.403 729.902 204.165 728.925 205.688C727.959 207.199 726.624 208.381 724.919 209.233C723.214 210.085 721.197 210.511 718.868 210.511ZM741.79 202.466L741.807 193.756H742.864L751.25 183.818H759.585L748.318 196.977H746.597L741.79 202.466ZM735.21 210V175.091H742.472V210H735.21ZM751.574 210L743.869 198.597L748.71 193.466L760.08 210H751.574ZM774.189 210V204.682L786.615 193.176C787.672 192.153 788.558 191.233 789.274 190.415C790.001 189.597 790.553 188.795 790.928 188.011C791.303 187.216 791.49 186.358 791.49 185.438C791.49 184.415 791.257 183.534 790.791 182.795C790.325 182.045 789.689 181.472 788.882 181.074C788.075 180.665 787.161 180.46 786.138 180.46C785.07 180.46 784.138 180.676 783.342 181.108C782.547 181.54 781.933 182.159 781.501 182.966C781.07 183.773 780.854 184.733 780.854 185.847H773.848C773.848 183.562 774.365 181.58 775.399 179.898C776.433 178.216 777.882 176.915 779.746 175.994C781.609 175.074 783.757 174.614 786.189 174.614C788.689 174.614 790.865 175.057 792.717 175.943C794.581 176.818 796.03 178.034 797.064 179.591C798.098 181.148 798.615 182.932 798.615 184.943C798.615 186.261 798.354 187.562 797.831 188.847C797.32 190.131 796.405 191.557 795.087 193.125C793.768 194.682 791.911 196.551 789.513 198.733L784.416 203.727V203.966H799.075V210H774.189Z" fill="black"/>
<rect x="1307.5" y="289.5" width="145" height="145" fill="#F65E5E" stroke="black" stroke-width="15"/>
<rect x="1315" y="452" width="130" height="130" fill="#72A0F9"/>
<rect x="1315" y="607" width="130" height="130" fill="#5EC289"/>
<path d="M1289.6 366.596C1292.13 364.058 1292.13 359.942 1289.6 357.404L1248.23 316.038C1245.69 313.5 1241.58 313.5 1239.04 316.038C1236.5 318.576 1236.5 322.692 1239.04 325.23L1275.81 362L1239.04 398.77C1236.5 401.308 1236.5 405.424 1239.04 407.962C1241.58 410.5 1245.69 410.5 1248.23 407.962L1289.6 366.596ZM1186 368.5H1285V355.5H1186V368.5Z" fill="black"/>
<rect x="1639" y="297" width="130" height="130" fill="#F65E5E"/>
<rect x="1631.5" y="444.5" width="145" height="145" fill="#72A0F9" stroke="black" stroke-width="15"/>
<rect x="1639" y="607" width="130" height="130" fill="#5EC289"/>
<path d="M1613.6 521.596C1616.13 519.058 1616.13 514.942 1613.6 512.404L1572.23 471.038C1569.69 468.5 1565.58 468.5 1563.04 471.038C1560.5 473.576 1560.5 477.692 1563.04 480.23L1599.81 517L1563.04 553.77C1560.5 556.308 1560.5 560.424 1563.04 562.962C1565.58 565.5 1569.69 565.5 1572.23 562.962L1613.6 521.596ZM1510 523.5H1609V510.5H1510V523.5Z" fill="black"/>
<rect x="1963" y="297" width="130" height="130" fill="#F65E5E"/>
<rect x="1963" y="452" width="130" height="130" fill="#72A0F9"/>
<rect x="1955.5" y="599.5" width="145" height="145" fill="#5EC289" stroke="black" stroke-width="15"/>
<path d="M1937.6 676.596C1940.13 674.058 1940.13 669.942 1937.6 667.404L1896.23 626.038C1893.69 623.5 1889.58 623.5 1887.04 626.038C1884.5 628.576 1884.5 632.692 1887.04 635.23L1923.81 672L1887.04 708.77C1884.5 711.308 1884.5 715.424 1887.04 717.962C1889.58 720.5 1893.69 720.5 1896.23 717.962L1937.6 676.596ZM1834 678.5H1933V665.5H1834V678.5Z" fill="black"/>
<path d="M981.705 181.176V175.091H1010.38V181.176H999.688V210H992.392V181.176H981.705ZM1014.96 210V183.818H1022.22V210H1014.96ZM1018.61 180.443C1017.53 180.443 1016.6 180.085 1015.83 179.369C1015.07 178.642 1014.69 177.773 1014.69 176.761C1014.69 175.761 1015.07 174.903 1015.83 174.188C1016.6 173.46 1017.53 173.097 1018.61 173.097C1019.69 173.097 1020.61 173.46 1021.37 174.188C1022.14 174.903 1022.53 175.761 1022.53 176.761C1022.53 177.773 1022.14 178.642 1021.37 179.369C1020.61 180.085 1019.69 180.443 1018.61 180.443ZM1039.87 210.511C1037.19 210.511 1034.88 209.943 1032.95 208.807C1031.03 207.659 1029.55 206.068 1028.52 204.034C1027.49 202 1026.98 199.659 1026.98 197.011C1026.98 194.33 1027.5 191.977 1028.53 189.955C1029.58 187.92 1031.06 186.335 1032.98 185.199C1034.9 184.051 1037.19 183.477 1039.83 183.477C1042.12 183.477 1044.12 183.892 1045.83 184.722C1047.55 185.551 1048.91 186.716 1049.91 188.216C1050.91 189.716 1051.46 191.477 1051.56 193.5H1044.71C1044.52 192.193 1044 191.142 1043.17 190.347C1042.36 189.54 1041.28 189.136 1039.95 189.136C1038.83 189.136 1037.85 189.443 1037 190.057C1036.17 190.659 1035.53 191.54 1035.06 192.699C1034.6 193.858 1034.36 195.261 1034.36 196.909C1034.36 198.58 1034.59 200 1035.04 201.17C1035.51 202.341 1036.16 203.233 1037 203.847C1037.85 204.46 1038.83 204.767 1039.95 204.767C1040.78 204.767 1041.53 204.597 1042.19 204.256C1042.86 203.915 1043.41 203.42 1043.84 202.773C1044.28 202.114 1044.57 201.324 1044.71 200.403H1051.56C1051.45 202.403 1050.9 204.165 1049.92 205.688C1048.96 207.199 1047.62 208.381 1045.92 209.233C1044.21 210.085 1042.2 210.511 1039.87 210.511ZM1062.79 202.466L1062.81 193.756H1063.86L1072.25 183.818H1080.59L1069.32 196.977H1067.6L1062.79 202.466ZM1056.21 210V175.091H1063.47V210H1056.21ZM1072.57 210L1064.87 198.597L1069.71 193.466L1081.08 210H1072.57ZM1108.09 210.477C1105.55 210.477 1103.28 210.04 1101.29 209.165C1099.31 208.278 1097.75 207.062 1096.6 205.517C1095.47 203.96 1094.88 202.165 1094.85 200.131H1102.28C1102.33 200.983 1102.6 201.733 1103.12 202.381C1103.64 203.017 1104.33 203.511 1105.19 203.864C1106.06 204.216 1107.03 204.392 1108.11 204.392C1109.23 204.392 1110.23 204.193 1111.09 203.795C1111.96 203.398 1112.63 202.847 1113.12 202.142C1113.61 201.437 1113.85 200.625 1113.85 199.705C1113.85 198.773 1113.59 197.949 1113.07 197.233C1112.56 196.506 1111.82 195.937 1110.85 195.528C1109.9 195.119 1108.76 194.915 1107.44 194.915H1104.19V189.494H1107.44C1108.56 189.494 1109.54 189.301 1110.39 188.915C1111.26 188.528 1111.93 187.994 1112.4 187.312C1112.88 186.619 1113.12 185.812 1113.12 184.892C1113.12 184.017 1112.91 183.25 1112.49 182.591C1112.08 181.92 1111.5 181.398 1110.75 181.023C1110.01 180.648 1109.15 180.46 1108.16 180.46C1107.16 180.46 1106.25 180.642 1105.42 181.006C1104.59 181.358 1103.92 181.864 1103.42 182.523C1102.92 183.182 1102.65 183.955 1102.62 184.841H1095.55C1095.58 182.83 1096.15 181.057 1097.27 179.523C1098.38 177.989 1099.88 176.79 1101.77 175.926C1103.67 175.051 1105.81 174.614 1108.19 174.614C1110.6 174.614 1112.71 175.051 1114.52 175.926C1116.33 176.801 1117.73 177.983 1118.73 179.472C1119.74 180.949 1120.24 182.608 1120.23 184.449C1120.24 186.403 1119.63 188.034 1118.4 189.341C1117.19 190.648 1115.6 191.477 1113.65 191.83V192.102C1116.22 192.432 1118.17 193.324 1119.51 194.778C1120.87 196.222 1121.54 198.028 1121.52 200.199C1121.54 202.188 1120.96 203.955 1119.8 205.5C1118.65 207.045 1117.07 208.261 1115.05 209.148C1113.02 210.034 1110.71 210.477 1108.09 210.477Z" fill="black"/>
<path d="M1305.7 181.176V175.091H1334.38V181.176H1323.69V210H1316.39V181.176H1305.7ZM1338.96 210V183.818H1346.22V210H1338.96ZM1342.61 180.443C1341.53 180.443 1340.6 180.085 1339.83 179.369C1339.07 178.642 1338.69 177.773 1338.69 176.761C1338.69 175.761 1339.07 174.903 1339.83 174.188C1340.6 173.46 1341.53 173.097 1342.61 173.097C1343.69 173.097 1344.61 173.46 1345.37 174.188C1346.14 174.903 1346.53 175.761 1346.53 176.761C1346.53 177.773 1346.14 178.642 1345.37 179.369C1344.61 180.085 1343.69 180.443 1342.61 180.443ZM1363.87 210.511C1361.19 210.511 1358.88 209.943 1356.95 208.807C1355.03 207.659 1353.55 206.068 1352.52 204.034C1351.49 202 1350.98 199.659 1350.98 197.011C1350.98 194.33 1351.5 191.977 1352.53 189.955C1353.58 187.92 1355.06 186.335 1356.98 185.199C1358.9 184.051 1361.19 183.477 1363.83 183.477C1366.12 183.477 1368.12 183.892 1369.83 184.722C1371.55 185.551 1372.91 186.716 1373.91 188.216C1374.91 189.716 1375.46 191.477 1375.56 193.5H1368.71C1368.52 192.193 1368 191.142 1367.17 190.347C1366.36 189.54 1365.28 189.136 1363.95 189.136C1362.83 189.136 1361.85 189.443 1361 190.057C1360.17 190.659 1359.53 191.54 1359.06 192.699C1358.6 193.858 1358.36 195.261 1358.36 196.909C1358.36 198.58 1358.59 200 1359.04 201.17C1359.51 202.341 1360.16 203.233 1361 203.847C1361.85 204.46 1362.83 204.767 1363.95 204.767C1364.78 204.767 1365.53 204.597 1366.19 204.256C1366.86 203.915 1367.41 203.42 1367.84 202.773C1368.28 202.114 1368.57 201.324 1368.71 200.403H1375.56C1375.45 202.403 1374.9 204.165 1373.92 205.688C1372.96 207.199 1371.62 208.381 1369.92 209.233C1368.21 210.085 1366.2 210.511 1363.87 210.511ZM1386.79 202.466L1386.81 193.756H1387.86L1396.25 183.818H1404.59L1393.32 196.977H1391.6L1386.79 202.466ZM1380.21 210V175.091H1387.47V210H1380.21ZM1396.57 210L1388.87 198.597L1393.71 193.466L1405.08 210H1396.57ZM1418.66 203.864V198.051L1433.23 175.091H1438.25V183.136H1435.28L1426.09 197.676V197.949H1446.8V203.864H1418.66ZM1435.42 210V202.091L1435.55 199.517V175.091H1442.47V210H1435.42Z" fill="black"/>
<path d="M1634.7 181.176V175.091H1663.38V181.176H1652.69V210H1645.39V181.176H1634.7ZM1667.96 210V183.818H1675.22V210H1667.96ZM1671.61 180.443C1670.53 180.443 1669.6 180.085 1668.83 179.369C1668.07 178.642 1667.69 177.773 1667.69 176.761C1667.69 175.761 1668.07 174.903 1668.83 174.188C1669.6 173.46 1670.53 173.097 1671.61 173.097C1672.69 173.097 1673.61 173.46 1674.37 174.188C1675.14 174.903 1675.53 175.761 1675.53 176.761C1675.53 177.773 1675.14 178.642 1674.37 179.369C1673.61 180.085 1672.69 180.443 1671.61 180.443ZM1692.87 210.511C1690.19 210.511 1687.88 209.943 1685.95 208.807C1684.03 207.659 1682.55 206.068 1681.52 204.034C1680.49 202 1679.98 199.659 1679.98 197.011C1679.98 194.33 1680.5 191.977 1681.53 189.955C1682.58 187.92 1684.06 186.335 1685.98 185.199C1687.9 184.051 1690.19 183.477 1692.83 183.477C1695.12 183.477 1697.12 183.892 1698.83 184.722C1700.55 185.551 1701.91 186.716 1702.91 188.216C1703.91 189.716 1704.46 191.477 1704.56 193.5H1697.71C1697.52 192.193 1697 191.142 1696.17 190.347C1695.36 189.54 1694.28 189.136 1692.95 189.136C1691.83 189.136 1690.85 189.443 1690 190.057C1689.17 190.659 1688.53 191.54 1688.06 192.699C1687.6 193.858 1687.36 195.261 1687.36 196.909C1687.36 198.58 1687.59 200 1688.04 201.17C1688.51 202.341 1689.16 203.233 1690 203.847C1690.85 204.46 1691.83 204.767 1692.95 204.767C1693.78 204.767 1694.53 204.597 1695.19 204.256C1695.86 203.915 1696.41 203.42 1696.84 202.773C1697.28 202.114 1697.57 201.324 1697.71 200.403H1704.56C1704.45 202.403 1703.9 204.165 1702.92 205.688C1701.96 207.199 1700.62 208.381 1698.92 209.233C1697.21 210.085 1695.2 210.511 1692.87 210.511ZM1715.79 202.466L1715.81 193.756H1716.86L1725.25 183.818H1733.59L1722.32 196.977H1720.6L1715.79 202.466ZM1709.21 210V175.091H1716.47V210H1709.21ZM1725.57 210L1717.87 198.597L1722.71 193.466L1734.08 210H1725.57ZM1760.94 210.477C1758.53 210.477 1756.38 210.034 1754.5 209.148C1752.62 208.261 1751.13 207.04 1750.03 205.483C1748.93 203.926 1748.35 202.142 1748.31 200.131H1755.47C1755.55 201.483 1756.12 202.58 1757.17 203.42C1758.23 204.261 1759.48 204.682 1760.94 204.682C1762.1 204.682 1763.12 204.426 1764.01 203.915C1764.9 203.392 1765.6 202.67 1766.1 201.75C1766.62 200.818 1766.87 199.75 1766.87 198.545C1766.87 197.318 1766.61 196.239 1766.09 195.307C1765.58 194.375 1764.87 193.648 1763.96 193.125C1763.05 192.602 1762.01 192.335 1760.84 192.324C1759.81 192.324 1758.82 192.534 1757.85 192.955C1756.9 193.375 1756.15 193.949 1755.62 194.676L1749.06 193.5L1750.71 175.091H1772.05V181.125H1756.8L1755.89 189.869H1756.1C1756.71 189.006 1757.64 188.29 1758.88 187.722C1760.12 187.153 1761.5 186.869 1763.04 186.869C1765.14 186.869 1767.01 187.364 1768.66 188.352C1770.31 189.341 1771.61 190.699 1772.56 192.426C1773.52 194.142 1773.99 196.119 1773.98 198.358C1773.99 200.71 1773.44 202.801 1772.34 204.631C1771.25 206.449 1769.72 207.881 1767.76 208.926C1765.8 209.96 1763.53 210.477 1760.94 210.477Z" fill="black"/>
<path d="M1956.7 181.176V175.091H1985.38V181.176H1974.69V210H1967.39V181.176H1956.7ZM1989.96 210V183.818H1997.22V210H1989.96ZM1993.61 180.443C1992.53 180.443 1991.6 180.085 1990.83 179.369C1990.07 178.642 1989.69 177.773 1989.69 176.761C1989.69 175.761 1990.07 174.903 1990.83 174.188C1991.6 173.46 1992.53 173.097 1993.61 173.097C1994.69 173.097 1995.61 173.46 1996.37 174.188C1997.14 174.903 1997.53 175.761 1997.53 176.761C1997.53 177.773 1997.14 178.642 1996.37 179.369C1995.61 180.085 1994.69 180.443 1993.61 180.443ZM2014.87 210.511C2012.19 210.511 2009.88 209.943 2007.95 208.807C2006.03 207.659 2004.55 206.068 2003.52 204.034C2002.49 202 2001.98 199.659 2001.98 197.011C2001.98 194.33 2002.5 191.977 2003.53 189.955C2004.58 187.92 2006.06 186.335 2007.98 185.199C2009.9 184.051 2012.19 183.477 2014.83 183.477C2017.12 183.477 2019.12 183.892 2020.83 184.722C2022.55 185.551 2023.91 186.716 2024.91 188.216C2025.91 189.716 2026.46 191.477 2026.56 193.5H2019.71C2019.52 192.193 2019 191.142 2018.17 190.347C2017.36 189.54 2016.28 189.136 2014.95 189.136C2013.83 189.136 2012.85 189.443 2012 190.057C2011.17 190.659 2010.53 191.54 2010.06 192.699C2009.6 193.858 2009.36 195.261 2009.36 196.909C2009.36 198.58 2009.59 200 2010.04 201.17C2010.51 202.341 2011.16 203.233 2012 203.847C2012.85 204.46 2013.83 204.767 2014.95 204.767C2015.78 204.767 2016.53 204.597 2017.19 204.256C2017.86 203.915 2018.41 203.42 2018.84 202.773C2019.28 202.114 2019.57 201.324 2019.71 200.403H2026.56C2026.45 202.403 2025.9 204.165 2024.92 205.688C2023.96 207.199 2022.62 208.381 2020.92 209.233C2019.21 210.085 2017.2 210.511 2014.87 210.511ZM2037.79 202.466L2037.81 193.756H2038.86L2047.25 183.818H2055.59L2044.32 196.977H2042.6L2037.79 202.466ZM2031.21 210V175.091H2038.47V210H2031.21ZM2047.57 210L2039.87 198.597L2044.71 193.466L2056.08 210H2047.57ZM2083.59 210.477C2081.79 210.466 2080.06 210.165 2078.39 209.574C2076.73 208.983 2075.24 208.023 2073.92 206.693C2072.6 205.364 2071.56 203.602 2070.79 201.409C2070.02 199.216 2069.64 196.523 2069.64 193.33C2069.65 190.398 2069.99 187.778 2070.65 185.472C2071.32 183.153 2072.27 181.187 2073.51 179.574C2074.76 177.96 2076.26 176.733 2078 175.892C2079.73 175.04 2081.68 174.614 2083.84 174.614C2086.17 174.614 2088.23 175.068 2090.01 175.977C2091.8 176.875 2093.23 178.097 2094.31 179.642C2095.4 181.188 2096.06 182.92 2096.29 184.841H2089.01C2088.72 183.625 2088.13 182.67 2087.22 181.977C2086.31 181.284 2085.18 180.938 2083.84 180.938C2081.57 180.938 2079.84 181.926 2078.66 183.903C2077.49 185.881 2076.89 188.568 2076.87 191.966H2077.11C2077.63 190.932 2078.34 190.051 2079.22 189.324C2080.12 188.585 2081.14 188.023 2082.27 187.636C2083.42 187.239 2084.63 187.04 2085.9 187.04C2087.97 187.04 2089.81 187.528 2091.43 188.506C2093.04 189.472 2094.31 190.801 2095.25 192.494C2096.18 194.187 2096.64 196.125 2096.64 198.307C2096.64 200.67 2096.09 202.773 2094.99 204.614C2093.9 206.455 2092.37 207.898 2090.4 208.943C2088.45 209.977 2086.18 210.489 2083.59 210.477ZM2083.55 204.682C2084.69 204.682 2085.71 204.409 2086.6 203.864C2087.5 203.318 2088.21 202.58 2088.72 201.648C2089.23 200.716 2089.48 199.67 2089.48 198.511C2089.48 197.352 2089.23 196.312 2088.72 195.392C2088.22 194.472 2087.52 193.739 2086.64 193.193C2085.75 192.648 2084.74 192.375 2083.6 192.375C2082.75 192.375 2081.96 192.534 2081.23 192.852C2080.52 193.17 2079.89 193.614 2079.34 194.182C2078.81 194.75 2078.39 195.409 2078.08 196.159C2077.77 196.898 2077.62 197.687 2077.62 198.528C2077.62 199.653 2077.88 200.682 2078.39 201.614C2078.91 202.545 2079.62 203.29 2080.5 203.847C2081.4 204.403 2082.42 204.682 2083.55 204.682Z" fill="black"/>
<path d="M628.062 851L620.938 824.818H628.284L632.341 842.409H632.58L636.807 824.818H644.017L648.312 842.307H648.534L652.523 824.818H659.852L652.744 851H645.057L640.557 834.534H640.233L635.733 851H628.062ZM670.987 835.864V851H663.726V816.091H670.783V829.438H671.089C671.68 827.892 672.635 826.682 673.953 825.807C675.271 824.92 676.925 824.477 678.913 824.477C680.732 824.477 682.317 824.875 683.669 825.67C685.033 826.455 686.089 827.585 686.839 829.062C687.601 830.528 687.976 832.284 687.964 834.33V851H680.703V835.625C680.714 834.011 680.305 832.756 679.476 831.858C678.658 830.96 677.51 830.511 676.033 830.511C675.044 830.511 674.169 830.722 673.408 831.142C672.658 831.562 672.067 832.176 671.635 832.983C671.214 833.778 670.999 834.739 670.987 835.864ZM705.611 851.511C702.918 851.511 700.599 850.966 698.656 849.875C696.724 848.773 695.236 847.216 694.19 845.205C693.145 843.182 692.622 840.79 692.622 838.028C692.622 835.335 693.145 832.972 694.19 830.938C695.236 828.903 696.707 827.318 698.605 826.182C700.514 825.045 702.753 824.477 705.321 824.477C707.048 824.477 708.656 824.756 710.145 825.312C711.645 825.858 712.952 826.682 714.065 827.784C715.19 828.886 716.065 830.273 716.69 831.943C717.315 833.602 717.628 835.545 717.628 837.773V839.767H695.52V835.267H710.793C710.793 834.222 710.565 833.295 710.111 832.489C709.656 831.682 709.026 831.051 708.219 830.597C707.423 830.131 706.497 829.898 705.44 829.898C704.338 829.898 703.361 830.153 702.509 830.665C701.668 831.165 701.009 831.841 700.531 832.693C700.054 833.534 699.81 834.472 699.798 835.506V839.784C699.798 841.08 700.037 842.199 700.514 843.142C701.003 844.085 701.69 844.812 702.577 845.324C703.463 845.835 704.514 846.091 705.73 846.091C706.537 846.091 707.276 845.977 707.946 845.75C708.616 845.523 709.19 845.182 709.668 844.727C710.145 844.273 710.509 843.716 710.759 843.057L717.474 843.5C717.134 845.114 716.435 846.523 715.378 847.727C714.332 848.92 712.98 849.852 711.321 850.523C709.673 851.182 707.77 851.511 705.611 851.511ZM729.628 835.864V851H722.366V824.818H729.287V829.438H729.594C730.173 827.915 731.145 826.71 732.509 825.824C733.872 824.926 735.526 824.477 737.469 824.477C739.287 824.477 740.872 824.875 742.224 825.67C743.577 826.466 744.628 827.602 745.378 829.08C746.128 830.545 746.503 832.295 746.503 834.33V851H739.241V835.625C739.253 834.023 738.844 832.773 738.014 831.875C737.185 830.966 736.043 830.511 734.588 830.511C733.611 830.511 732.747 830.722 731.997 831.142C731.259 831.562 730.679 832.176 730.259 832.983C729.849 833.778 729.639 834.739 729.628 835.864ZM770.801 851.494C769.131 851.494 767.642 851.205 766.335 850.625C765.028 850.034 763.994 849.165 763.233 848.017C762.483 846.858 762.108 845.415 762.108 843.688C762.108 842.233 762.375 841.011 762.909 840.023C763.443 839.034 764.17 838.239 765.091 837.636C766.011 837.034 767.057 836.58 768.227 836.273C769.409 835.966 770.648 835.75 771.943 835.625C773.466 835.466 774.693 835.318 775.625 835.182C776.557 835.034 777.233 834.818 777.653 834.534C778.074 834.25 778.284 833.83 778.284 833.273V833.17C778.284 832.091 777.943 831.256 777.261 830.665C776.591 830.074 775.636 829.778 774.398 829.778C773.091 829.778 772.051 830.068 771.278 830.648C770.506 831.216 769.994 831.932 769.744 832.795L763.028 832.25C763.369 830.659 764.04 829.284 765.04 828.125C766.04 826.955 767.33 826.057 768.909 825.432C770.5 824.795 772.341 824.477 774.432 824.477C775.886 824.477 777.278 824.648 778.608 824.989C779.949 825.33 781.136 825.858 782.17 826.574C783.216 827.29 784.04 828.21 784.642 829.335C785.244 830.449 785.545 831.784 785.545 833.341V851H778.659V847.369H778.455C778.034 848.188 777.472 848.909 776.767 849.534C776.062 850.148 775.216 850.631 774.227 850.983C773.239 851.324 772.097 851.494 770.801 851.494ZM772.881 846.483C773.949 846.483 774.892 846.273 775.71 845.852C776.528 845.42 777.17 844.841 777.636 844.114C778.102 843.386 778.335 842.562 778.335 841.642V838.864C778.108 839.011 777.795 839.148 777.398 839.273C777.011 839.386 776.574 839.494 776.085 839.597C775.597 839.687 775.108 839.773 774.619 839.852C774.131 839.92 773.688 839.983 773.29 840.04C772.438 840.165 771.693 840.364 771.057 840.636C770.42 840.909 769.926 841.278 769.574 841.744C769.222 842.199 769.045 842.767 769.045 843.449C769.045 844.438 769.403 845.193 770.119 845.716C770.847 846.227 771.767 846.483 772.881 846.483ZM805.105 824.818V830.273H789.338V824.818H805.105ZM792.918 818.545H800.179V842.955C800.179 843.625 800.281 844.148 800.486 844.523C800.69 844.886 800.974 845.142 801.338 845.29C801.713 845.437 802.145 845.511 802.634 845.511C802.974 845.511 803.315 845.483 803.656 845.426C803.997 845.358 804.259 845.307 804.44 845.273L805.582 850.676C805.219 850.79 804.707 850.92 804.048 851.068C803.389 851.227 802.588 851.324 801.645 851.358C799.895 851.426 798.361 851.193 797.043 850.659C795.736 850.125 794.719 849.295 793.991 848.17C793.264 847.045 792.906 845.625 792.918 843.909V818.545ZM834.871 824.818V830.273H819.104V824.818H834.871ZM822.683 818.545H829.945V842.955C829.945 843.625 830.047 844.148 830.251 844.523C830.456 844.886 830.74 845.142 831.104 845.29C831.479 845.437 831.911 845.511 832.399 845.511C832.74 845.511 833.081 845.483 833.422 845.426C833.763 845.358 834.024 845.307 834.206 845.273L835.348 850.676C834.984 850.79 834.473 850.92 833.814 851.068C833.155 851.227 832.354 851.324 831.411 851.358C829.661 851.426 828.126 851.193 826.808 850.659C825.501 850.125 824.484 849.295 823.757 848.17C823.03 847.045 822.672 845.625 822.683 843.909V818.545ZM847.425 835.864V851H840.163V816.091H847.22V829.438H847.527C848.118 827.892 849.072 826.682 850.391 825.807C851.709 824.92 853.362 824.477 855.351 824.477C857.169 824.477 858.754 824.875 860.107 825.67C861.47 826.455 862.527 827.585 863.277 829.062C864.038 830.528 864.413 832.284 864.402 834.33V851H857.141V835.625C857.152 834.011 856.743 832.756 855.913 831.858C855.095 830.96 853.947 830.511 852.47 830.511C851.482 830.511 850.607 830.722 849.845 831.142C849.095 831.562 848.504 832.176 848.072 832.983C847.652 833.778 847.436 834.739 847.425 835.864ZM882.048 851.511C879.355 851.511 877.037 850.966 875.094 849.875C873.162 848.773 871.673 847.216 870.628 845.205C869.582 843.182 869.06 840.79 869.06 838.028C869.06 835.335 869.582 832.972 870.628 830.938C871.673 828.903 873.145 827.318 875.043 826.182C876.952 825.045 879.19 824.477 881.759 824.477C883.486 824.477 885.094 824.756 886.582 825.312C888.082 825.858 889.389 826.682 890.503 827.784C891.628 828.886 892.503 830.273 893.128 831.943C893.753 833.602 894.065 835.545 894.065 837.773V839.767H871.957V835.267H887.23C887.23 834.222 887.003 833.295 886.548 832.489C886.094 831.682 885.463 831.051 884.656 830.597C883.861 830.131 882.935 829.898 881.878 829.898C880.776 829.898 879.798 830.153 878.946 830.665C878.105 831.165 877.446 831.841 876.969 832.693C876.491 833.534 876.247 834.472 876.236 835.506V839.784C876.236 841.08 876.474 842.199 876.952 843.142C877.44 844.085 878.128 844.812 879.014 845.324C879.901 845.835 880.952 846.091 882.168 846.091C882.974 846.091 883.713 845.977 884.384 845.75C885.054 845.523 885.628 845.182 886.105 844.727C886.582 844.273 886.946 843.716 887.196 843.057L893.912 843.5C893.571 845.114 892.872 846.523 891.815 847.727C890.77 848.92 889.418 849.852 887.759 850.523C886.111 851.182 884.207 851.511 882.048 851.511ZM921.845 851.511C919.152 851.511 916.834 850.966 914.891 849.875C912.959 848.773 911.47 847.216 910.425 845.205C909.379 843.182 908.857 840.79 908.857 838.028C908.857 835.335 909.379 832.972 910.425 830.938C911.47 828.903 912.942 827.318 914.839 826.182C916.749 825.045 918.987 824.477 921.555 824.477C923.283 824.477 924.891 824.756 926.379 825.312C927.879 825.858 929.186 826.682 930.3 827.784C931.425 828.886 932.3 830.273 932.925 831.943C933.55 833.602 933.862 835.545 933.862 837.773V839.767H911.754V835.267H927.027C927.027 834.222 926.8 833.295 926.345 832.489C925.891 831.682 925.26 831.051 924.453 830.597C923.658 830.131 922.732 829.898 921.675 829.898C920.572 829.898 919.595 830.153 918.743 830.665C917.902 831.165 917.243 831.841 916.766 832.693C916.288 833.534 916.044 834.472 916.033 835.506V839.784C916.033 841.08 916.271 842.199 916.749 843.142C917.237 844.085 917.925 844.812 918.811 845.324C919.697 845.835 920.749 846.091 921.964 846.091C922.771 846.091 923.51 845.977 924.18 845.75C924.851 845.523 925.425 845.182 925.902 844.727C926.379 844.273 926.743 843.716 926.993 843.057L933.709 843.5C933.368 845.114 932.669 846.523 931.612 847.727C930.567 848.92 929.214 849.852 927.555 850.523C925.908 851.182 924.004 851.511 921.845 851.511ZM945.862 835.864V851H938.601V824.818H945.521V829.438H945.828C946.408 827.915 947.379 826.71 948.743 825.824C950.107 824.926 951.76 824.477 953.703 824.477C955.521 824.477 957.107 824.875 958.459 825.67C959.811 826.466 960.862 827.602 961.612 829.08C962.362 830.545 962.737 832.295 962.737 834.33V851H955.476V835.625C955.487 834.023 955.078 832.773 954.249 831.875C953.419 830.966 952.277 830.511 950.822 830.511C949.845 830.511 948.982 830.722 948.232 831.142C947.493 831.562 946.913 832.176 946.493 832.983C946.084 833.778 945.874 834.739 945.862 835.864ZM978.108 851.426C976.119 851.426 974.318 850.915 972.705 849.892C971.102 848.858 969.83 847.341 968.886 845.341C967.955 843.33 967.489 840.864 967.489 837.943C967.489 834.943 967.972 832.449 968.938 830.46C969.903 828.46 971.188 826.966 972.79 825.977C974.403 824.977 976.17 824.477 978.091 824.477C979.557 824.477 980.778 824.727 981.756 825.227C982.744 825.716 983.54 826.33 984.142 827.068C984.756 827.795 985.222 828.511 985.54 829.216H985.761V816.091H993.006V851H985.847V846.807H985.54C985.199 847.534 984.716 848.256 984.091 848.972C983.477 849.676 982.676 850.261 981.688 850.727C980.71 851.193 979.517 851.426 978.108 851.426ZM980.409 845.648C981.58 845.648 982.568 845.33 983.375 844.693C984.193 844.045 984.818 843.142 985.25 841.983C985.693 840.824 985.915 839.466 985.915 837.909C985.915 836.352 985.699 835 985.267 833.852C984.835 832.705 984.21 831.818 983.392 831.193C982.574 830.568 981.58 830.256 980.409 830.256C979.216 830.256 978.21 830.58 977.392 831.227C976.574 831.875 975.955 832.773 975.534 833.92C975.114 835.068 974.903 836.398 974.903 837.909C974.903 839.432 975.114 840.778 975.534 841.949C975.966 843.108 976.585 844.017 977.392 844.676C978.21 845.324 979.216 845.648 980.409 845.648ZM1006.87 846.227L1006.68 848.102C1006.53 849.602 1006.25 851.097 1005.83 852.585C1005.42 854.085 1004.99 855.443 1004.53 856.659C1004.09 857.875 1003.73 858.83 1003.46 859.523H998.754C998.925 858.852 999.158 857.915 999.453 856.71C999.749 855.517 1000.03 854.176 1000.29 852.688C1000.55 851.199 1000.71 849.682 1000.78 848.136L1000.87 846.227H1006.87ZM1028.14 851L1021.02 824.818H1028.36L1032.42 842.409H1032.66L1036.88 824.818H1044.1L1048.39 842.307H1048.61L1052.6 824.818H1059.93L1052.82 851H1045.13L1040.63 834.534H1040.31L1035.81 851H1028.14ZM1075.08 851.511C1072.39 851.511 1070.07 850.966 1068.12 849.875C1066.19 848.773 1064.7 847.216 1063.66 845.205C1062.61 843.182 1062.09 840.79 1062.09 838.028C1062.09 835.335 1062.61 832.972 1063.66 830.938C1064.7 828.903 1066.18 827.318 1068.07 826.182C1069.98 825.045 1072.22 824.477 1074.79 824.477C1076.52 824.477 1078.13 824.756 1079.61 825.312C1081.11 825.858 1082.42 826.682 1083.53 827.784C1084.66 828.886 1085.53 830.273 1086.16 831.943C1086.78 833.602 1087.1 835.545 1087.1 837.773V839.767H1064.99V835.267H1080.26C1080.26 834.222 1080.03 833.295 1079.58 832.489C1079.13 831.682 1078.49 831.051 1077.69 830.597C1076.89 830.131 1075.97 829.898 1074.91 829.898C1073.81 829.898 1072.83 830.153 1071.98 830.665C1071.14 831.165 1070.48 831.841 1070 832.693C1069.52 833.534 1069.28 834.472 1069.27 835.506V839.784C1069.27 841.08 1069.51 842.199 1069.98 843.142C1070.47 844.085 1071.16 844.812 1072.05 845.324C1072.93 845.835 1073.98 846.091 1075.2 846.091C1076.01 846.091 1076.74 845.977 1077.41 845.75C1078.09 845.523 1078.66 845.182 1079.14 844.727C1079.61 844.273 1079.98 843.716 1080.23 843.057L1086.94 843.5C1086.6 845.114 1085.9 846.523 1084.85 847.727C1083.8 848.92 1082.45 849.852 1080.79 850.523C1079.14 851.182 1077.24 851.511 1075.08 851.511ZM1124.73 832.284L1118.08 832.693C1117.97 832.125 1117.72 831.614 1117.35 831.159C1116.97 830.693 1116.48 830.324 1115.87 830.051C1115.26 829.767 1114.54 829.625 1113.7 829.625C1112.58 829.625 1111.63 829.864 1110.85 830.341C1110.08 830.807 1109.69 831.432 1109.69 832.216C1109.69 832.841 1109.94 833.369 1110.44 833.801C1110.94 834.233 1111.8 834.58 1113.02 834.841L1117.76 835.795C1120.3 836.318 1122.2 837.159 1123.45 838.318C1124.7 839.477 1125.33 841 1125.33 842.886C1125.33 844.602 1124.82 846.108 1123.81 847.403C1122.81 848.699 1121.43 849.71 1119.68 850.438C1117.94 851.153 1115.94 851.511 1113.67 851.511C1110.2 851.511 1107.44 850.79 1105.38 849.347C1103.34 847.892 1102.14 845.915 1101.79 843.415L1108.93 843.04C1109.14 844.097 1109.67 844.903 1110.5 845.46C1111.33 846.006 1112.39 846.278 1113.68 846.278C1114.96 846.278 1115.98 846.034 1116.75 845.545C1117.54 845.045 1117.93 844.403 1117.94 843.619C1117.93 842.96 1117.65 842.42 1117.11 842C1116.56 841.568 1115.72 841.239 1114.59 841.011L1110.05 840.108C1107.5 839.597 1105.59 838.71 1104.34 837.449C1103.1 836.187 1102.48 834.58 1102.48 832.625C1102.48 830.943 1102.94 829.494 1103.85 828.278C1104.77 827.062 1106.06 826.125 1107.72 825.466C1109.39 824.807 1111.34 824.477 1113.58 824.477C1116.89 824.477 1119.49 825.176 1121.39 826.574C1123.3 827.972 1124.41 829.875 1124.73 832.284ZM1135.06 851L1127.94 824.818H1135.28L1139.34 842.409H1139.58L1143.81 824.818H1151.02L1155.31 842.307H1155.53L1159.52 824.818H1166.85L1159.74 851H1152.06L1147.56 834.534H1147.23L1142.73 851H1135.06ZM1170.73 851V824.818H1177.99V851H1170.73ZM1174.37 821.443C1173.29 821.443 1172.37 821.085 1171.6 820.369C1170.83 819.642 1170.45 818.773 1170.45 817.761C1170.45 816.761 1170.83 815.903 1171.6 815.188C1172.37 814.46 1173.29 814.097 1174.37 814.097C1175.45 814.097 1176.37 814.46 1177.13 815.188C1177.91 815.903 1178.29 816.761 1178.29 817.761C1178.29 818.773 1177.91 819.642 1177.13 820.369C1176.37 821.085 1175.45 821.443 1174.37 821.443ZM1197.73 824.818V830.273H1181.96V824.818H1197.73ZM1185.54 818.545H1192.8V842.955C1192.8 843.625 1192.91 844.148 1193.11 844.523C1193.32 844.886 1193.6 845.142 1193.96 845.29C1194.34 845.437 1194.77 845.511 1195.26 845.511C1195.6 845.511 1195.94 845.483 1196.28 845.426C1196.62 845.358 1196.88 845.307 1197.07 845.273L1198.21 850.676C1197.84 850.79 1197.33 850.92 1196.67 851.068C1196.01 851.227 1195.21 851.324 1194.27 851.358C1192.52 851.426 1190.99 851.193 1189.67 850.659C1188.36 850.125 1187.34 849.295 1186.62 848.17C1185.89 847.045 1185.53 845.625 1185.54 843.909V818.545ZM1214.01 851.511C1211.33 851.511 1209.02 850.943 1207.09 849.807C1205.17 848.659 1203.69 847.068 1202.66 845.034C1201.63 843 1201.12 840.659 1201.12 838.011C1201.12 835.33 1201.64 832.977 1202.67 830.955C1203.72 828.92 1205.2 827.335 1207.12 826.199C1209.04 825.051 1211.33 824.477 1213.97 824.477C1216.26 824.477 1218.26 824.892 1219.97 825.722C1221.69 826.551 1223.05 827.716 1224.05 829.216C1225.05 830.716 1225.6 832.477 1225.7 834.5H1218.85C1218.66 833.193 1218.14 832.142 1217.32 831.347C1216.5 830.54 1215.42 830.136 1214.09 830.136C1212.97 830.136 1211.99 830.443 1211.14 831.057C1210.32 831.659 1209.67 832.54 1209.2 833.699C1208.74 834.858 1208.5 836.261 1208.5 837.909C1208.5 839.58 1208.73 841 1209.18 842.17C1209.65 843.341 1210.3 844.233 1211.14 844.847C1211.99 845.46 1212.97 845.767 1214.09 845.767C1214.92 845.767 1215.67 845.597 1216.33 845.256C1217 844.915 1217.55 844.42 1217.98 843.773C1218.42 843.114 1218.71 842.324 1218.85 841.403H1225.7C1225.59 843.403 1225.04 845.165 1224.07 846.688C1223.1 848.199 1221.76 849.381 1220.06 850.233C1218.36 851.085 1216.34 851.511 1214.01 851.511ZM1237.61 835.864V851H1230.35V816.091H1237.41V829.438H1237.71C1238.31 827.892 1239.26 826.682 1240.58 825.807C1241.9 824.92 1243.55 824.477 1245.54 824.477C1247.36 824.477 1248.94 824.875 1250.29 825.67C1251.66 826.455 1252.71 827.585 1253.46 829.062C1254.23 830.528 1254.6 832.284 1254.59 834.33V851H1247.33V835.625C1247.34 834.011 1246.93 832.756 1246.1 831.858C1245.28 830.96 1244.13 830.511 1242.66 830.511C1241.67 830.511 1240.79 830.722 1240.03 831.142C1239.28 831.562 1238.69 832.176 1238.26 832.983C1237.84 833.778 1237.62 834.739 1237.61 835.864ZM1271.55 851V816.091H1278.81V829.216H1279.03C1279.35 828.511 1279.81 827.795 1280.41 827.068C1281.03 826.33 1281.82 825.716 1282.8 825.227C1283.79 824.727 1285.02 824.477 1286.48 824.477C1288.39 824.477 1290.15 824.977 1291.77 825.977C1293.38 826.966 1294.67 828.46 1295.63 830.46C1296.6 832.449 1297.08 834.943 1297.08 837.943C1297.08 840.864 1296.61 843.33 1295.67 845.341C1294.74 847.341 1293.46 848.858 1291.85 849.892C1290.25 850.915 1288.45 851.426 1286.46 851.426C1285.06 851.426 1283.86 851.193 1282.87 850.727C1281.89 850.261 1281.09 849.676 1280.46 848.972C1279.84 848.256 1279.36 847.534 1279.03 846.807H1278.71V851H1271.55ZM1278.66 837.909C1278.66 839.466 1278.87 840.824 1279.31 841.983C1279.74 843.142 1280.36 844.045 1281.18 844.693C1282 845.33 1282.99 845.648 1284.16 845.648C1285.35 845.648 1286.35 845.324 1287.16 844.676C1287.98 844.017 1288.6 843.108 1289.02 841.949C1289.45 840.778 1289.67 839.432 1289.67 837.909C1289.67 836.398 1289.46 835.068 1289.04 833.92C1288.62 832.773 1288 831.875 1287.18 831.227C1286.36 830.58 1285.36 830.256 1284.16 830.256C1282.98 830.256 1281.98 830.568 1281.16 831.193C1280.36 831.818 1279.74 832.705 1279.31 833.852C1278.87 835 1278.66 836.352 1278.66 837.909ZM1309.39 851.494C1307.72 851.494 1306.24 851.205 1304.93 850.625C1303.62 850.034 1302.59 849.165 1301.83 848.017C1301.08 846.858 1300.7 845.415 1300.7 843.688C1300.7 842.233 1300.97 841.011 1301.5 840.023C1302.04 839.034 1302.76 838.239 1303.68 837.636C1304.61 837.034 1305.65 836.58 1306.82 836.273C1308 835.966 1309.24 835.75 1310.54 835.625C1312.06 835.466 1313.29 835.318 1314.22 835.182C1315.15 835.034 1315.83 834.818 1316.25 834.534C1316.67 834.25 1316.88 833.83 1316.88 833.273V833.17C1316.88 832.091 1316.54 831.256 1315.86 830.665C1315.18 830.074 1314.23 829.778 1312.99 829.778C1311.68 829.778 1310.64 830.068 1309.87 830.648C1309.1 831.216 1308.59 831.932 1308.34 832.795L1301.62 832.25C1301.96 830.659 1302.63 829.284 1303.63 828.125C1304.63 826.955 1305.92 826.057 1307.5 825.432C1309.09 824.795 1310.93 824.477 1313.03 824.477C1314.48 824.477 1315.87 824.648 1317.2 824.989C1318.54 825.33 1319.73 825.858 1320.76 826.574C1321.81 827.29 1322.63 828.21 1323.24 829.335C1323.84 830.449 1324.14 831.784 1324.14 833.341V851H1317.25V847.369H1317.05C1316.63 848.188 1316.07 848.909 1315.36 849.534C1314.66 850.148 1313.81 850.631 1312.82 850.983C1311.83 851.324 1310.69 851.494 1309.39 851.494ZM1311.47 846.483C1312.54 846.483 1313.49 846.273 1314.3 845.852C1315.12 845.42 1315.76 844.841 1316.23 844.114C1316.7 843.386 1316.93 842.562 1316.93 841.642V838.864C1316.7 839.011 1316.39 839.148 1315.99 839.273C1315.61 839.386 1315.17 839.494 1314.68 839.597C1314.19 839.687 1313.7 839.773 1313.21 839.852C1312.72 839.92 1312.28 839.983 1311.88 840.04C1311.03 840.165 1310.29 840.364 1309.65 840.636C1309.01 840.909 1308.52 841.278 1308.17 841.744C1307.82 842.199 1307.64 842.767 1307.64 843.449C1307.64 844.438 1308 845.193 1308.71 845.716C1309.44 846.227 1310.36 846.483 1311.47 846.483ZM1341.6 851.511C1338.92 851.511 1336.61 850.943 1334.68 849.807C1332.76 848.659 1331.28 847.068 1330.25 845.034C1329.23 843 1328.72 840.659 1328.72 838.011C1328.72 835.33 1329.23 832.977 1330.27 830.955C1331.31 828.92 1332.8 827.335 1334.72 826.199C1336.64 825.051 1338.92 824.477 1341.57 824.477C1343.85 824.477 1345.85 824.892 1347.57 825.722C1349.28 826.551 1350.64 827.716 1351.64 829.216C1352.64 830.716 1353.19 832.477 1353.3 834.5H1346.44C1346.25 833.193 1345.74 832.142 1344.91 831.347C1344.09 830.54 1343.02 830.136 1341.69 830.136C1340.56 830.136 1339.58 830.443 1338.74 831.057C1337.91 831.659 1337.26 832.54 1336.8 833.699C1336.33 834.858 1336.1 836.261 1336.1 837.909C1336.1 839.58 1336.32 841 1336.78 842.17C1337.24 843.341 1337.9 844.233 1338.74 844.847C1339.58 845.46 1340.56 845.767 1341.69 845.767C1342.52 845.767 1343.26 845.597 1343.92 845.256C1344.59 844.915 1345.14 844.42 1345.57 843.773C1346.02 843.114 1346.31 842.324 1346.44 841.403H1353.3C1353.18 843.403 1352.64 845.165 1351.66 846.688C1350.69 848.199 1349.36 849.381 1347.65 850.233C1345.95 851.085 1343.93 851.511 1341.6 851.511ZM1364.52 843.466L1364.54 834.756H1365.6L1373.98 824.818H1382.32L1371.05 837.977H1369.33L1364.52 843.466ZM1357.94 851V816.091H1365.21V851H1357.94ZM1374.31 851L1366.6 839.597L1371.44 834.466L1382.81 851H1374.31ZM1404.46 851.494C1402.79 851.494 1401.3 851.205 1399.99 850.625C1398.68 850.034 1397.65 849.165 1396.89 848.017C1396.14 846.858 1395.76 845.415 1395.76 843.688C1395.76 842.233 1396.03 841.011 1396.57 840.023C1397.1 839.034 1397.83 838.239 1398.75 837.636C1399.67 837.034 1400.71 836.58 1401.88 836.273C1403.07 835.966 1404.3 835.75 1405.6 835.625C1407.12 835.466 1408.35 835.318 1409.28 835.182C1410.21 835.034 1410.89 834.818 1411.31 834.534C1411.73 834.25 1411.94 833.83 1411.94 833.273V833.17C1411.94 832.091 1411.6 831.256 1410.92 830.665C1410.25 830.074 1409.29 829.778 1408.05 829.778C1406.75 829.778 1405.71 830.068 1404.93 830.648C1404.16 831.216 1403.65 831.932 1403.4 832.795L1396.68 832.25C1397.03 830.659 1397.7 829.284 1398.7 828.125C1399.7 826.955 1400.99 826.057 1402.57 825.432C1404.16 824.795 1406 824.477 1408.09 824.477C1409.54 824.477 1410.93 824.648 1412.26 824.989C1413.61 825.33 1414.79 825.858 1415.83 826.574C1416.87 827.29 1417.7 828.21 1418.3 829.335C1418.9 830.449 1419.2 831.784 1419.2 833.341V851H1412.32V847.369H1412.11C1411.69 848.188 1411.13 848.909 1410.42 849.534C1409.72 850.148 1408.87 850.631 1407.88 850.983C1406.89 851.324 1405.75 851.494 1404.46 851.494ZM1406.54 846.483C1407.61 846.483 1408.55 846.273 1409.37 845.852C1410.18 845.42 1410.83 844.841 1411.29 844.114C1411.76 843.386 1411.99 842.562 1411.99 841.642V838.864C1411.76 839.011 1411.45 839.148 1411.05 839.273C1410.67 839.386 1410.23 839.494 1409.74 839.597C1409.25 839.687 1408.76 839.773 1408.28 839.852C1407.79 839.92 1407.34 839.983 1406.95 840.04C1406.09 840.165 1405.35 840.364 1404.71 840.636C1404.08 840.909 1403.58 841.278 1403.23 841.744C1402.88 842.199 1402.7 842.767 1402.7 843.449C1402.7 844.438 1403.06 845.193 1403.78 845.716C1404.5 846.227 1405.42 846.483 1406.54 846.483ZM1438.76 824.818V830.273H1422.99V824.818H1438.76ZM1426.57 818.545H1433.84V842.955C1433.84 843.625 1433.94 844.148 1434.14 844.523C1434.35 844.886 1434.63 845.142 1434.99 845.29C1435.37 845.437 1435.8 845.511 1436.29 845.511C1436.63 845.511 1436.97 845.483 1437.31 845.426C1437.65 845.358 1437.91 845.307 1438.1 845.273L1439.24 850.676C1438.88 850.79 1438.36 850.92 1437.7 851.068C1437.05 851.227 1436.24 851.324 1435.3 851.358C1433.55 851.426 1432.02 851.193 1430.7 850.659C1429.39 850.125 1428.38 849.295 1427.65 848.17C1426.92 847.045 1426.56 845.625 1426.57 843.909V818.545ZM1468.53 824.818V830.273H1452.76V824.818H1468.53ZM1456.34 818.545H1463.6V842.955C1463.6 843.625 1463.7 844.148 1463.91 844.523C1464.11 844.886 1464.4 845.142 1464.76 845.29C1465.13 845.437 1465.57 845.511 1466.06 845.511C1466.4 845.511 1466.74 845.483 1467.08 845.426C1467.42 845.358 1467.68 845.307 1467.86 845.273L1469 850.676C1468.64 850.79 1468.13 850.92 1467.47 851.068C1466.81 851.227 1466.01 851.324 1465.07 851.358C1463.32 851.426 1461.78 851.193 1460.46 850.659C1459.16 850.125 1458.14 849.295 1457.41 848.17C1456.69 847.045 1456.33 845.625 1456.34 843.909V818.545ZM1481.08 835.864V851H1473.82V816.091H1480.88V829.438H1481.18C1481.77 827.892 1482.73 826.682 1484.05 825.807C1485.37 824.92 1487.02 824.477 1489.01 824.477C1490.83 824.477 1492.41 824.875 1493.76 825.67C1495.13 826.455 1496.18 827.585 1496.93 829.062C1497.69 830.528 1498.07 832.284 1498.06 834.33V851H1490.8V835.625C1490.81 834.011 1490.4 832.756 1489.57 831.858C1488.75 830.96 1487.6 830.511 1486.13 830.511C1485.14 830.511 1484.26 830.722 1483.5 831.142C1482.75 831.562 1482.16 832.176 1481.73 832.983C1481.31 833.778 1481.09 834.739 1481.08 835.864ZM1515.7 851.511C1513.01 851.511 1510.69 850.966 1508.75 849.875C1506.82 848.773 1505.33 847.216 1504.28 845.205C1503.24 843.182 1502.72 840.79 1502.72 838.028C1502.72 835.335 1503.24 832.972 1504.28 830.938C1505.33 828.903 1506.8 827.318 1508.7 826.182C1510.61 825.045 1512.85 824.477 1515.41 824.477C1517.14 824.477 1518.75 824.756 1520.24 825.312C1521.74 825.858 1523.05 826.682 1524.16 827.784C1525.28 828.886 1526.16 830.273 1526.78 831.943C1527.41 833.602 1527.72 835.545 1527.72 837.773V839.767H1505.61V835.267H1520.89C1520.89 834.222 1520.66 833.295 1520.2 832.489C1519.75 831.682 1519.12 831.051 1518.31 830.597C1517.52 830.131 1516.59 829.898 1515.53 829.898C1514.43 829.898 1513.45 830.153 1512.6 830.665C1511.76 831.165 1511.1 831.841 1510.62 832.693C1510.15 833.534 1509.9 834.472 1509.89 835.506V839.784C1509.89 841.08 1510.13 842.199 1510.61 843.142C1511.1 844.085 1511.78 844.812 1512.67 845.324C1513.56 845.835 1514.61 846.091 1515.82 846.091C1516.63 846.091 1517.37 845.977 1518.04 845.75C1518.71 845.523 1519.28 845.182 1519.76 844.727C1520.24 844.273 1520.6 843.716 1520.85 843.057L1527.57 843.5C1527.23 845.114 1526.53 846.523 1525.47 847.727C1524.43 848.92 1523.07 849.852 1521.41 850.523C1519.77 851.182 1517.86 851.511 1515.7 851.511ZM1543.71 851V816.091H1550.97V829.216H1551.19C1551.51 828.511 1551.97 827.795 1552.57 827.068C1553.18 826.33 1553.98 825.716 1554.96 825.227C1555.94 824.727 1557.17 824.477 1558.64 824.477C1560.55 824.477 1562.31 824.977 1563.92 825.977C1565.54 826.966 1566.83 828.46 1567.79 830.46C1568.76 832.449 1569.24 834.943 1569.24 837.943C1569.24 840.864 1568.77 843.33 1567.83 845.341C1566.89 847.341 1565.62 848.858 1564.01 849.892C1562.4 850.915 1560.61 851.426 1558.62 851.426C1557.21 851.426 1556.01 851.193 1555.02 850.727C1554.05 850.261 1553.25 849.676 1552.62 848.972C1552 848.256 1551.52 847.534 1551.19 846.807H1550.87V851H1543.71ZM1550.81 837.909C1550.81 839.466 1551.03 840.824 1551.46 841.983C1551.89 843.142 1552.52 844.045 1553.34 844.693C1554.15 845.33 1555.15 845.648 1556.32 845.648C1557.5 845.648 1558.5 845.324 1559.32 844.676C1560.14 844.017 1560.76 843.108 1561.18 841.949C1561.61 840.778 1561.83 839.432 1561.83 837.909C1561.83 836.398 1561.62 835.068 1561.19 833.92C1560.77 832.773 1560.15 831.875 1559.34 831.227C1558.52 830.58 1557.51 830.256 1556.32 830.256C1555.14 830.256 1554.14 830.568 1553.32 831.193C1552.51 831.818 1551.89 832.705 1551.46 833.852C1551.03 835 1550.81 836.352 1550.81 837.909ZM1586.02 851.511C1583.32 851.511 1581.01 850.966 1579.06 849.875C1577.13 848.773 1575.64 847.216 1574.6 845.205C1573.55 843.182 1573.03 840.79 1573.03 838.028C1573.03 835.335 1573.55 832.972 1574.6 830.938C1575.64 828.903 1577.11 827.318 1579.01 826.182C1580.92 825.045 1583.16 824.477 1585.73 824.477C1587.45 824.477 1589.06 824.756 1590.55 825.312C1592.05 825.858 1593.36 826.682 1594.47 827.784C1595.6 828.886 1596.47 830.273 1597.1 831.943C1597.72 833.602 1598.03 835.545 1598.03 837.773V839.767H1575.93V835.267H1591.2C1591.2 834.222 1590.97 833.295 1590.52 832.489C1590.06 831.682 1589.43 831.051 1588.62 830.597C1587.83 830.131 1586.9 829.898 1585.85 829.898C1584.74 829.898 1583.77 830.153 1582.91 830.665C1582.07 831.165 1581.41 831.841 1580.94 832.693C1580.46 833.534 1580.22 834.472 1580.2 835.506V839.784C1580.2 841.08 1580.44 842.199 1580.92 843.142C1581.41 844.085 1582.1 844.812 1582.98 845.324C1583.87 845.835 1584.92 846.091 1586.14 846.091C1586.94 846.091 1587.68 845.977 1588.35 845.75C1589.02 845.523 1589.6 845.182 1590.07 844.727C1590.55 844.273 1590.91 843.716 1591.16 843.057L1597.88 843.5C1597.54 845.114 1596.84 846.523 1595.78 847.727C1594.74 848.92 1593.39 849.852 1591.73 850.523C1590.08 851.182 1588.18 851.511 1586.02 851.511ZM1614.57 861.364C1612.22 861.364 1610.2 861.04 1608.52 860.392C1606.85 859.756 1605.52 858.886 1604.53 857.784C1603.54 856.682 1602.9 855.443 1602.6 854.068L1609.32 853.165C1609.52 853.688 1609.85 854.176 1610.29 854.631C1610.73 855.085 1611.32 855.449 1612.05 855.722C1612.78 856.006 1613.68 856.148 1614.74 856.148C1616.32 856.148 1617.62 855.761 1618.64 854.989C1619.68 854.227 1620.19 852.949 1620.19 851.153V846.364H1619.89C1619.57 847.091 1619.09 847.778 1618.45 848.426C1617.82 849.074 1617 849.602 1616 850.011C1615 850.42 1613.81 850.625 1612.42 850.625C1610.45 850.625 1608.66 850.17 1607.05 849.261C1605.45 848.341 1604.17 846.937 1603.22 845.051C1602.27 843.153 1601.8 840.756 1601.8 837.858C1601.8 834.892 1602.28 832.415 1603.25 830.426C1604.22 828.437 1605.5 826.949 1607.1 825.96C1608.72 824.972 1610.48 824.477 1612.4 824.477C1613.87 824.477 1615.1 824.727 1616.09 825.227C1617.07 825.716 1617.87 826.33 1618.47 827.068C1619.09 827.795 1619.56 828.511 1619.89 829.216H1620.16V824.818H1627.37V851.256C1627.37 853.483 1626.82 855.347 1625.73 856.847C1624.64 858.347 1623.13 859.472 1621.2 860.222C1619.28 860.983 1617.07 861.364 1614.57 861.364ZM1614.72 845.17C1615.89 845.17 1616.88 844.881 1617.69 844.301C1618.51 843.71 1619.13 842.869 1619.56 841.778C1620.01 840.676 1620.23 839.358 1620.23 837.824C1620.23 836.29 1620.01 834.96 1619.58 833.835C1619.15 832.699 1618.52 831.818 1617.7 831.193C1616.89 830.568 1615.89 830.256 1614.72 830.256C1613.53 830.256 1612.52 830.58 1611.7 831.227C1610.89 831.864 1610.27 832.75 1609.85 833.886C1609.43 835.023 1609.22 836.335 1609.22 837.824C1609.22 839.335 1609.43 840.642 1609.85 841.744C1610.28 842.835 1610.9 843.682 1611.7 844.284C1612.52 844.875 1613.53 845.17 1614.72 845.17ZM1633.15 851V824.818H1640.41V851H1633.15ZM1636.8 821.443C1635.72 821.443 1634.79 821.085 1634.02 820.369C1633.26 819.642 1632.88 818.773 1632.88 817.761C1632.88 816.761 1633.26 815.903 1634.02 815.188C1634.79 814.46 1635.72 814.097 1636.8 814.097C1637.88 814.097 1638.8 814.46 1639.56 815.188C1640.33 815.903 1640.72 816.761 1640.72 817.761C1640.72 818.773 1640.33 819.642 1639.56 820.369C1638.8 821.085 1637.88 821.443 1636.8 821.443ZM1653.49 835.864V851H1646.23V824.818H1653.15V829.438H1653.45C1654.03 827.915 1655 826.71 1656.37 825.824C1657.73 824.926 1659.38 824.477 1661.33 824.477C1663.15 824.477 1664.73 824.875 1666.08 825.67C1667.44 826.466 1668.49 827.602 1669.24 829.08C1669.99 830.545 1670.36 832.295 1670.36 834.33V851H1663.1V835.625C1663.11 834.023 1662.7 832.773 1661.87 831.875C1661.04 830.966 1659.9 830.511 1658.45 830.511C1657.47 830.511 1656.61 830.722 1655.86 831.142C1655.12 831.562 1654.54 832.176 1654.12 832.983C1653.71 833.778 1653.5 834.739 1653.49 835.864ZM1683.35 835.864V851H1676.09V824.818H1683.01V829.438H1683.31C1683.89 827.915 1684.86 826.71 1686.23 825.824C1687.59 824.926 1689.24 824.477 1691.19 824.477C1693.01 824.477 1694.59 824.875 1695.94 825.67C1697.3 826.466 1698.35 827.602 1699.1 829.08C1699.85 830.545 1700.22 832.295 1700.22 834.33V851H1692.96V835.625C1692.97 834.023 1692.56 832.773 1691.73 831.875C1690.9 830.966 1689.76 830.511 1688.31 830.511C1687.33 830.511 1686.47 830.722 1685.72 831.142C1684.98 831.562 1684.4 832.176 1683.98 832.983C1683.57 833.778 1683.36 834.739 1683.35 835.864ZM1705.94 851V824.818H1713.21V851H1705.94ZM1709.59 821.443C1708.51 821.443 1707.59 821.085 1706.81 820.369C1706.05 819.642 1705.67 818.773 1705.67 817.761C1705.67 816.761 1706.05 815.903 1706.81 815.188C1707.59 814.46 1708.51 814.097 1709.59 814.097C1710.67 814.097 1711.59 814.46 1712.35 815.188C1713.13 815.903 1713.51 816.761 1713.51 817.761C1713.51 818.773 1713.13 819.642 1712.35 820.369C1711.59 821.085 1710.67 821.443 1709.59 821.443ZM1726.28 835.864V851H1719.02V824.818H1725.94V829.438H1726.25C1726.83 827.915 1727.8 826.71 1729.16 825.824C1730.53 824.926 1732.18 824.477 1734.12 824.477C1735.94 824.477 1737.53 824.875 1738.88 825.67C1740.23 826.466 1741.28 827.602 1742.03 829.08C1742.78 830.545 1743.16 832.295 1743.16 834.33V851H1735.9V835.625C1735.91 834.023 1735.5 832.773 1734.67 831.875C1733.84 830.966 1732.7 830.511 1731.24 830.511C1730.27 830.511 1729.4 830.722 1728.65 831.142C1727.91 831.562 1727.34 832.176 1726.91 832.983C1726.51 833.778 1726.3 834.739 1726.28 835.864ZM1760.68 861.364C1758.33 861.364 1756.31 861.04 1754.63 860.392C1752.96 859.756 1751.63 858.886 1750.64 857.784C1749.65 856.682 1749.01 855.443 1748.71 854.068L1755.43 853.165C1755.63 853.688 1755.96 854.176 1756.4 854.631C1756.84 855.085 1757.43 855.449 1758.15 855.722C1758.89 856.006 1759.79 856.148 1760.85 856.148C1762.43 856.148 1763.73 855.761 1764.75 854.989C1765.79 854.227 1766.3 852.949 1766.3 851.153V846.364H1766C1765.68 847.091 1765.2 847.778 1764.56 848.426C1763.93 849.074 1763.11 849.602 1762.11 850.011C1761.11 850.42 1759.92 850.625 1758.53 850.625C1756.56 850.625 1754.77 850.17 1753.16 849.261C1751.56 848.341 1750.28 846.937 1749.33 845.051C1748.38 843.153 1747.91 840.756 1747.91 837.858C1747.91 834.892 1748.39 832.415 1749.36 830.426C1750.33 828.437 1751.61 826.949 1753.21 825.96C1754.83 824.972 1756.59 824.477 1758.51 824.477C1759.98 824.477 1761.21 824.727 1762.19 825.227C1763.18 825.716 1763.98 826.33 1764.58 827.068C1765.19 827.795 1765.67 828.511 1766 829.216H1766.27V824.818H1773.48V851.256C1773.48 853.483 1772.93 855.347 1771.84 856.847C1770.75 858.347 1769.24 859.472 1767.31 860.222C1765.39 860.983 1763.18 861.364 1760.68 861.364ZM1760.83 845.17C1762 845.17 1762.99 844.881 1763.8 844.301C1764.62 843.71 1765.24 842.869 1765.67 841.778C1766.12 840.676 1766.34 839.358 1766.34 837.824C1766.34 836.29 1766.12 834.96 1765.69 833.835C1765.26 832.699 1764.63 831.818 1763.81 831.193C1763 830.568 1762 830.256 1760.83 830.256C1759.64 830.256 1758.63 830.58 1757.81 831.227C1757 831.864 1756.38 832.75 1755.96 833.886C1755.54 835.023 1755.33 836.335 1755.33 837.824C1755.33 839.335 1755.54 840.642 1755.96 841.744C1756.39 842.835 1757.01 843.682 1757.81 844.284C1758.63 844.875 1759.64 845.17 1760.83 845.17Z" fill="black"/>
<path d="M397.051 379H389.142L401.193 344.091H410.705L422.739 379H414.83L406.085 352.068H405.812L397.051 379ZM396.557 365.278H415.239V371.04H396.557V365.278Z" fill="white"/>
<path d="M393.034 534V499.091H407.011C409.58 499.091 411.722 499.472 413.438 500.233C415.153 500.994 416.443 502.051 417.307 503.403C418.17 504.744 418.602 506.29 418.602 508.04C418.602 509.403 418.33 510.602 417.784 511.636C417.239 512.659 416.489 513.5 415.534 514.159C414.591 514.807 413.511 515.267 412.295 515.54V515.881C413.625 515.937 414.869 516.312 416.028 517.006C417.199 517.699 418.148 518.67 418.875 519.92C419.602 521.159 419.966 522.636 419.966 524.352C419.966 526.205 419.506 527.858 418.585 529.312C417.676 530.756 416.33 531.898 414.545 532.739C412.761 533.58 410.563 534 407.949 534H393.034ZM400.415 527.966H406.432C408.489 527.966 409.989 527.574 410.932 526.79C411.875 525.994 412.347 524.937 412.347 523.619C412.347 522.653 412.114 521.801 411.648 521.062C411.182 520.324 410.517 519.744 409.653 519.324C408.801 518.903 407.784 518.693 406.602 518.693H400.415V527.966ZM400.415 513.699H405.886C406.898 513.699 407.795 513.523 408.58 513.17C409.375 512.807 410 512.295 410.455 511.636C410.92 510.977 411.153 510.188 411.153 509.267C411.153 508.006 410.705 506.989 409.807 506.216C408.92 505.443 407.659 505.057 406.023 505.057H400.415V513.699Z" fill="white"/>
<path d="M421.835 666.312H414.369C414.233 665.347 413.955 664.489 413.534 663.739C413.114 662.977 412.574 662.33 411.915 661.795C411.256 661.261 410.494 660.852 409.631 660.568C408.778 660.284 407.852 660.142 406.852 660.142C405.045 660.142 403.472 660.591 402.131 661.489C400.79 662.375 399.75 663.67 399.011 665.375C398.273 667.068 397.903 669.125 397.903 671.545C397.903 674.034 398.273 676.125 399.011 677.818C399.761 679.511 400.807 680.79 402.148 681.653C403.489 682.517 405.04 682.949 406.801 682.949C407.79 682.949 408.705 682.818 409.545 682.557C410.398 682.295 411.153 681.915 411.812 681.415C412.472 680.903 413.017 680.284 413.449 679.557C413.892 678.83 414.199 678 414.369 677.068L421.835 677.102C421.642 678.705 421.159 680.25 420.386 681.739C419.625 683.216 418.597 684.54 417.301 685.71C416.017 686.869 414.483 687.79 412.699 688.472C410.926 689.142 408.92 689.477 406.682 689.477C403.568 689.477 400.784 688.773 398.33 687.364C395.886 685.955 393.955 683.915 392.534 681.244C391.125 678.574 390.42 675.341 390.42 671.545C390.42 667.739 391.136 664.5 392.568 661.83C394 659.159 395.943 657.125 398.398 655.727C400.852 654.318 403.614 653.614 406.682 653.614C408.705 653.614 410.58 653.898 412.307 654.466C414.045 655.034 415.585 655.864 416.926 656.955C418.267 658.034 419.358 659.358 420.199 660.926C421.051 662.494 421.597 664.29 421.835 666.312Z" fill="white"/>
<path d="M720.051 379H712.142L724.193 344.091H733.705L745.739 379H737.83L729.085 352.068H728.812L720.051 379ZM719.557 365.278H738.239V371.04H719.557V365.278Z" fill="white"/>
<path d="M716.034 534V499.091H730.011C732.58 499.091 734.722 499.472 736.438 500.233C738.153 500.994 739.443 502.051 740.307 503.403C741.17 504.744 741.602 506.29 741.602 508.04C741.602 509.403 741.33 510.602 740.784 511.636C740.239 512.659 739.489 513.5 738.534 514.159C737.591 514.807 736.511 515.267 735.295 515.54V515.881C736.625 515.937 737.869 516.312 739.028 517.006C740.199 517.699 741.148 518.67 741.875 519.92C742.602 521.159 742.966 522.636 742.966 524.352C742.966 526.205 742.506 527.858 741.585 529.312C740.676 530.756 739.33 531.898 737.545 532.739C735.761 533.58 733.563 534 730.949 534H716.034ZM723.415 527.966H729.432C731.489 527.966 732.989 527.574 733.932 526.79C734.875 525.994 735.347 524.937 735.347 523.619C735.347 522.653 735.114 521.801 734.648 521.062C734.182 520.324 733.517 519.744 732.653 519.324C731.801 518.903 730.784 518.693 729.602 518.693H723.415V527.966ZM723.415 513.699H728.886C729.898 513.699 730.795 513.523 731.58 513.17C732.375 512.807 733 512.295 733.455 511.636C733.92 510.977 734.153 510.188 734.153 509.267C734.153 508.006 733.705 506.989 732.807 506.216C731.92 505.443 730.659 505.057 729.023 505.057H723.415V513.699Z" fill="white"/>
<path d="M744.835 666.312H737.369C737.233 665.347 736.955 664.489 736.534 663.739C736.114 662.977 735.574 662.33 734.915 661.795C734.256 661.261 733.494 660.852 732.631 660.568C731.778 660.284 730.852 660.142 729.852 660.142C728.045 660.142 726.472 660.591 725.131 661.489C723.79 662.375 722.75 663.67 722.011 665.375C721.273 667.068 720.903 669.125 720.903 671.545C720.903 674.034 721.273 676.125 722.011 677.818C722.761 679.511 723.807 680.79 725.148 681.653C726.489 682.517 728.04 682.949 729.801 682.949C730.79 682.949 731.705 682.818 732.545 682.557C733.398 682.295 734.153 681.915 734.812 681.415C735.472 680.903 736.017 680.284 736.449 679.557C736.892 678.83 737.199 678 737.369 677.068L744.835 677.102C744.642 678.705 744.159 680.25 743.386 681.739C742.625 683.216 741.597 684.54 740.301 685.71C739.017 686.869 737.483 687.79 735.699 688.472C733.926 689.142 731.92 689.477 729.682 689.477C726.568 689.477 723.784 688.773 721.33 687.364C718.886 685.955 716.955 683.915 715.534 681.244C714.125 678.574 713.42 675.341 713.42 671.545C713.42 667.739 714.136 664.5 715.568 661.83C717 659.159 718.943 657.125 721.398 655.727C723.852 654.318 726.614 653.614 729.682 653.614C731.705 653.614 733.58 653.898 735.307 654.466C737.045 655.034 738.585 655.864 739.926 656.955C741.267 658.034 742.358 659.358 743.199 660.926C744.051 662.494 744.597 664.29 744.835 666.312Z" fill="white"/>
<path d="M1044.05 379H1036.14L1048.19 344.091H1057.7L1069.74 379H1061.83L1053.09 352.068H1052.81L1044.05 379ZM1043.56 365.278H1062.24V371.04H1043.56V365.278Z" fill="white"/>
<path d="M1040.03 534V499.091H1054.01C1056.58 499.091 1058.72 499.472 1060.44 500.233C1062.15 500.994 1063.44 502.051 1064.31 503.403C1065.17 504.744 1065.6 506.29 1065.6 508.04C1065.6 509.403 1065.33 510.602 1064.78 511.636C1064.24 512.659 1063.49 513.5 1062.53 514.159C1061.59 514.807 1060.51 515.267 1059.3 515.54V515.881C1060.63 515.937 1061.87 516.312 1063.03 517.006C1064.2 517.699 1065.15 518.67 1065.88 519.92C1066.6 521.159 1066.97 522.636 1066.97 524.352C1066.97 526.205 1066.51 527.858 1065.59 529.312C1064.68 530.756 1063.33 531.898 1061.55 532.739C1059.76 533.58 1057.56 534 1054.95 534H1040.03ZM1047.41 527.966H1053.43C1055.49 527.966 1056.99 527.574 1057.93 526.79C1058.88 525.994 1059.35 524.937 1059.35 523.619C1059.35 522.653 1059.11 521.801 1058.65 521.062C1058.18 520.324 1057.52 519.744 1056.65 519.324C1055.8 518.903 1054.78 518.693 1053.6 518.693H1047.41V527.966ZM1047.41 513.699H1052.89C1053.9 513.699 1054.8 513.523 1055.58 513.17C1056.38 512.807 1057 512.295 1057.45 511.636C1057.92 510.977 1058.15 510.188 1058.15 509.267C1058.15 508.006 1057.7 506.989 1056.81 506.216C1055.92 505.443 1054.66 505.057 1053.02 505.057H1047.41V513.699Z" fill="white"/>
<path d="M1068.84 666.312H1061.37C1061.23 665.347 1060.95 664.489 1060.53 663.739C1060.11 662.977 1059.57 662.33 1058.91 661.795C1058.26 661.261 1057.49 660.852 1056.63 660.568C1055.78 660.284 1054.85 660.142 1053.85 660.142C1052.05 660.142 1050.47 660.591 1049.13 661.489C1047.79 662.375 1046.75 663.67 1046.01 665.375C1045.27 667.068 1044.9 669.125 1044.9 671.545C1044.9 674.034 1045.27 676.125 1046.01 677.818C1046.76 679.511 1047.81 680.79 1049.15 681.653C1050.49 682.517 1052.04 682.949 1053.8 682.949C1054.79 682.949 1055.7 682.818 1056.55 682.557C1057.4 682.295 1058.15 681.915 1058.81 681.415C1059.47 680.903 1060.02 680.284 1060.45 679.557C1060.89 678.83 1061.2 678 1061.37 677.068L1068.84 677.102C1068.64 678.705 1068.16 680.25 1067.39 681.739C1066.63 683.216 1065.6 684.54 1064.3 685.71C1063.02 686.869 1061.48 687.79 1059.7 688.472C1057.93 689.142 1055.92 689.477 1053.68 689.477C1050.57 689.477 1047.78 688.773 1045.33 687.364C1042.89 685.955 1040.95 683.915 1039.53 681.244C1038.12 678.574 1037.42 675.341 1037.42 671.545C1037.42 667.739 1038.14 664.5 1039.57 661.83C1041 659.159 1042.94 657.125 1045.4 655.727C1047.85 654.318 1050.61 653.614 1053.68 653.614C1055.7 653.614 1057.58 653.898 1059.31 654.466C1061.05 655.034 1062.59 655.864 1063.93 656.955C1065.27 658.034 1066.36 659.358 1067.2 660.926C1068.05 662.494 1068.6 664.29 1068.84 666.312Z" fill="white"/>
<path d="M1372.05 379H1364.14L1376.19 344.091H1385.7L1397.74 379H1389.83L1381.09 352.068H1380.81L1372.05 379ZM1371.56 365.278H1390.24V371.04H1371.56V365.278Z" fill="white"/>
<path d="M1368.03 534V499.091H1382.01C1384.58 499.091 1386.72 499.472 1388.44 500.233C1390.15 500.994 1391.44 502.051 1392.31 503.403C1393.17 504.744 1393.6 506.29 1393.6 508.04C1393.6 509.403 1393.33 510.602 1392.78 511.636C1392.24 512.659 1391.49 513.5 1390.53 514.159C1389.59 514.807 1388.51 515.267 1387.3 515.54V515.881C1388.63 515.937 1389.87 516.312 1391.03 517.006C1392.2 517.699 1393.15 518.67 1393.88 519.92C1394.6 521.159 1394.97 522.636 1394.97 524.352C1394.97 526.205 1394.51 527.858 1393.59 529.312C1392.68 530.756 1391.33 531.898 1389.55 532.739C1387.76 533.58 1385.56 534 1382.95 534H1368.03ZM1375.41 527.966H1381.43C1383.49 527.966 1384.99 527.574 1385.93 526.79C1386.88 525.994 1387.35 524.937 1387.35 523.619C1387.35 522.653 1387.11 521.801 1386.65 521.062C1386.18 520.324 1385.52 519.744 1384.65 519.324C1383.8 518.903 1382.78 518.693 1381.6 518.693H1375.41V527.966ZM1375.41 513.699H1380.89C1381.9 513.699 1382.8 513.523 1383.58 513.17C1384.38 512.807 1385 512.295 1385.45 511.636C1385.92 510.977 1386.15 510.188 1386.15 509.267C1386.15 508.006 1385.7 506.989 1384.81 506.216C1383.92 505.443 1382.66 505.057 1381.02 505.057H1375.41V513.699Z" fill="white"/>
<path d="M1396.84 666.312H1389.37C1389.23 665.347 1388.95 664.489 1388.53 663.739C1388.11 662.977 1387.57 662.33 1386.91 661.795C1386.26 661.261 1385.49 660.852 1384.63 660.568C1383.78 660.284 1382.85 660.142 1381.85 660.142C1380.05 660.142 1378.47 660.591 1377.13 661.489C1375.79 662.375 1374.75 663.67 1374.01 665.375C1373.27 667.068 1372.9 669.125 1372.9 671.545C1372.9 674.034 1373.27 676.125 1374.01 677.818C1374.76 679.511 1375.81 680.79 1377.15 681.653C1378.49 682.517 1380.04 682.949 1381.8 682.949C1382.79 682.949 1383.7 682.818 1384.55 682.557C1385.4 682.295 1386.15 681.915 1386.81 681.415C1387.47 680.903 1388.02 680.284 1388.45 679.557C1388.89 678.83 1389.2 678 1389.37 677.068L1396.84 677.102C1396.64 678.705 1396.16 680.25 1395.39 681.739C1394.63 683.216 1393.6 684.54 1392.3 685.71C1391.02 686.869 1389.48 687.79 1387.7 688.472C1385.93 689.142 1383.92 689.477 1381.68 689.477C1378.57 689.477 1375.78 688.773 1373.33 687.364C1370.89 685.955 1368.95 683.915 1367.53 681.244C1366.12 678.574 1365.42 675.341 1365.42 671.545C1365.42 667.739 1366.14 664.5 1367.57 661.83C1369 659.159 1370.94 657.125 1373.4 655.727C1375.85 654.318 1378.61 653.614 1381.68 653.614C1383.7 653.614 1385.58 653.898 1387.31 654.466C1389.05 655.034 1390.59 655.864 1391.93 656.955C1393.27 658.034 1394.36 659.358 1395.2 660.926C1396.05 662.494 1396.6 664.29 1396.84 666.312Z" fill="white"/>
<path d="M1694.05 379H1686.14L1698.19 344.091H1707.7L1719.74 379H1711.83L1703.09 352.068H1702.81L1694.05 379ZM1693.56 365.278H1712.24V371.04H1693.56V365.278Z" fill="white"/>
<path d="M1690.03 534V499.091H1704.01C1706.58 499.091 1708.72 499.472 1710.44 500.233C1712.15 500.994 1713.44 502.051 1714.31 503.403C1715.17 504.744 1715.6 506.29 1715.6 508.04C1715.6 509.403 1715.33 510.602 1714.78 511.636C1714.24 512.659 1713.49 513.5 1712.53 514.159C1711.59 514.807 1710.51 515.267 1709.3 515.54V515.881C1710.63 515.937 1711.87 516.312 1713.03 517.006C1714.2 517.699 1715.15 518.67 1715.88 519.92C1716.6 521.159 1716.97 522.636 1716.97 524.352C1716.97 526.205 1716.51 527.858 1715.59 529.312C1714.68 530.756 1713.33 531.898 1711.55 532.739C1709.76 533.58 1707.56 534 1704.95 534H1690.03ZM1697.41 527.966H1703.43C1705.49 527.966 1706.99 527.574 1707.93 526.79C1708.88 525.994 1709.35 524.937 1709.35 523.619C1709.35 522.653 1709.11 521.801 1708.65 521.062C1708.18 520.324 1707.52 519.744 1706.65 519.324C1705.8 518.903 1704.78 518.693 1703.6 518.693H1697.41V527.966ZM1697.41 513.699H1702.89C1703.9 513.699 1704.8 513.523 1705.58 513.17C1706.38 512.807 1707 512.295 1707.45 511.636C1707.92 510.977 1708.15 510.188 1708.15 509.267C1708.15 508.006 1707.7 506.989 1706.81 506.216C1705.92 505.443 1704.66 505.057 1703.02 505.057H1697.41V513.699Z" fill="white"/>
<path d="M1718.84 666.312H1711.37C1711.23 665.347 1710.95 664.489 1710.53 663.739C1710.11 662.977 1709.57 662.33 1708.91 661.795C1708.26 661.261 1707.49 660.852 1706.63 660.568C1705.78 660.284 1704.85 660.142 1703.85 660.142C1702.05 660.142 1700.47 660.591 1699.13 661.489C1697.79 662.375 1696.75 663.67 1696.01 665.375C1695.27 667.068 1694.9 669.125 1694.9 671.545C1694.9 674.034 1695.27 676.125 1696.01 677.818C1696.76 679.511 1697.81 680.79 1699.15 681.653C1700.49 682.517 1702.04 682.949 1703.8 682.949C1704.79 682.949 1705.7 682.818 1706.55 682.557C1707.4 682.295 1708.15 681.915 1708.81 681.415C1709.47 680.903 1710.02 680.284 1710.45 679.557C1710.89 678.83 1711.2 678 1711.37 677.068L1718.84 677.102C1718.64 678.705 1718.16 680.25 1717.39 681.739C1716.63 683.216 1715.6 684.54 1714.3 685.71C1713.02 686.869 1711.48 687.79 1709.7 688.472C1707.93 689.142 1705.92 689.477 1703.68 689.477C1700.57 689.477 1697.78 688.773 1695.33 687.364C1692.89 685.955 1690.95 683.915 1689.53 681.244C1688.12 678.574 1687.42 675.341 1687.42 671.545C1687.42 667.739 1688.14 664.5 1689.57 661.83C1691 659.159 1692.94 657.125 1695.4 655.727C1697.85 654.318 1700.61 653.614 1703.68 653.614C1705.7 653.614 1707.58 653.898 1709.31 654.466C1711.05 655.034 1712.59 655.864 1713.93 656.955C1715.27 658.034 1716.36 659.358 1717.2 660.926C1718.05 662.494 1718.6 664.29 1718.84 666.312Z" fill="white"/>
<path d="M2018.05 379H2010.14L2022.19 344.091H2031.7L2043.74 379H2035.83L2027.09 352.068H2026.81L2018.05 379ZM2017.56 365.278H2036.24V371.04H2017.56V365.278Z" fill="white"/>
<path d="M2014.03 534V499.091H2028.01C2030.58 499.091 2032.72 499.472 2034.44 500.233C2036.15 500.994 2037.44 502.051 2038.31 503.403C2039.17 504.744 2039.6 506.29 2039.6 508.04C2039.6 509.403 2039.33 510.602 2038.78 511.636C2038.24 512.659 2037.49 513.5 2036.53 514.159C2035.59 514.807 2034.51 515.267 2033.3 515.54V515.881C2034.63 515.937 2035.87 516.312 2037.03 517.006C2038.2 517.699 2039.15 518.67 2039.88 519.92C2040.6 521.159 2040.97 522.636 2040.97 524.352C2040.97 526.205 2040.51 527.858 2039.59 529.312C2038.68 530.756 2037.33 531.898 2035.55 532.739C2033.76 533.58 2031.56 534 2028.95 534H2014.03ZM2021.41 527.966H2027.43C2029.49 527.966 2030.99 527.574 2031.93 526.79C2032.88 525.994 2033.35 524.937 2033.35 523.619C2033.35 522.653 2033.11 521.801 2032.65 521.062C2032.18 520.324 2031.52 519.744 2030.65 519.324C2029.8 518.903 2028.78 518.693 2027.6 518.693H2021.41V527.966ZM2021.41 513.699H2026.89C2027.9 513.699 2028.8 513.523 2029.58 513.17C2030.38 512.807 2031 512.295 2031.45 511.636C2031.92 510.977 2032.15 510.188 2032.15 509.267C2032.15 508.006 2031.7 506.989 2030.81 506.216C2029.92 505.443 2028.66 505.057 2027.02 505.057H2021.41V513.699Z" fill="white"/>
<path d="M2042.84 666.312H2035.37C2035.23 665.347 2034.95 664.489 2034.53 663.739C2034.11 662.977 2033.57 662.33 2032.91 661.795C2032.26 661.261 2031.49 660.852 2030.63 660.568C2029.78 660.284 2028.85 660.142 2027.85 660.142C2026.05 660.142 2024.47 660.591 2023.13 661.489C2021.79 662.375 2020.75 663.67 2020.01 665.375C2019.27 667.068 2018.9 669.125 2018.9 671.545C2018.9 674.034 2019.27 676.125 2020.01 677.818C2020.76 679.511 2021.81 680.79 2023.15 681.653C2024.49 682.517 2026.04 682.949 2027.8 682.949C2028.79 682.949 2029.7 682.818 2030.55 682.557C2031.4 682.295 2032.15 681.915 2032.81 681.415C2033.47 680.903 2034.02 680.284 2034.45 679.557C2034.89 678.83 2035.2 678 2035.37 677.068L2042.84 677.102C2042.64 678.705 2042.16 680.25 2041.39 681.739C2040.63 683.216 2039.6 684.54 2038.3 685.71C2037.02 686.869 2035.48 687.79 2033.7 688.472C2031.93 689.142 2029.92 689.477 2027.68 689.477C2024.57 689.477 2021.78 688.773 2019.33 687.364C2016.89 685.955 2014.95 683.915 2013.53 681.244C2012.12 678.574 2011.42 675.341 2011.42 671.545C2011.42 667.739 2012.14 664.5 2013.57 661.83C2015 659.159 2016.94 657.125 2019.4 655.727C2021.85 654.318 2024.61 653.614 2027.68 653.614C2029.7 653.614 2031.58 653.898 2033.31 654.466C2035.05 655.034 2036.59 655.864 2037.93 656.955C2039.27 658.034 2040.36 659.358 2041.2 660.926C2042.05 662.494 2042.6 664.29 2042.84 666.312Z" fill="white"/>
</svg>
