<svg width="2311" height="1027" viewBox="0 0 2311 1027" fill="none" xmlns="http://www.w3.org/2000/svg">
<rect width="2311" height="1027" fill="white"/>
<rect x="663" y="282" width="130" height="130" fill="#72A0F9"/>
<rect x="663" y="437" width="130" height="130" fill="#B0B0B0"/>
<rect x="663" y="592" width="130" height="130" fill="#F65E5E"/>
<path d="M359.835 341.312H352.369C352.233 340.347 351.955 339.489 351.534 338.739C351.114 337.977 350.574 337.33 349.915 336.795C349.256 336.261 348.494 335.852 347.631 335.568C346.778 335.284 345.852 335.142 344.852 335.142C343.045 335.142 341.472 335.591 340.131 336.489C338.79 337.375 337.75 338.67 337.011 340.375C336.273 342.068 335.903 344.125 335.903 346.545C335.903 349.034 336.273 351.125 337.011 352.818C337.761 354.511 338.807 355.79 340.148 356.653C341.489 357.517 343.04 357.949 344.801 357.949C345.79 357.949 346.705 357.818 347.545 357.557C348.398 357.295 349.153 356.915 349.812 356.415C350.472 355.903 351.017 355.284 351.449 354.557C351.892 353.83 352.199 353 352.369 352.068L359.835 352.102C359.642 353.705 359.159 355.25 358.386 356.739C357.625 358.216 356.597 359.54 355.301 360.71C354.017 361.869 352.483 362.79 350.699 363.472C348.926 364.142 346.92 364.477 344.682 364.477C341.568 364.477 338.784 363.773 336.33 362.364C333.886 360.955 331.955 358.915 330.534 356.244C329.125 353.574 328.42 350.341 328.42 346.545C328.42 342.739 329.136 339.5 330.568 336.83C332 334.159 333.943 332.125 336.398 330.727C338.852 329.318 341.614 328.614 344.682 328.614C346.705 328.614 348.58 328.898 350.307 329.466C352.045 330.034 353.585 330.864 354.926 331.955C356.267 333.034 357.358 334.358 358.199 335.926C359.051 337.494 359.597 339.29 359.835 341.312ZM364.991 373.818V337.818H372.151V342.216H372.474C372.793 341.511 373.253 340.795 373.855 340.068C374.469 339.33 375.264 338.716 376.241 338.227C377.23 337.727 378.457 337.477 379.923 337.477C381.832 337.477 383.594 337.977 385.207 338.977C386.821 339.966 388.111 341.46 389.077 343.46C390.043 345.449 390.526 347.943 390.526 350.943C390.526 353.864 390.054 356.33 389.111 358.341C388.179 360.341 386.906 361.858 385.293 362.892C383.69 363.915 381.895 364.426 379.906 364.426C378.497 364.426 377.298 364.193 376.31 363.727C375.332 363.261 374.531 362.676 373.906 361.972C373.281 361.256 372.804 360.534 372.474 359.807H372.253V373.818H364.991ZM372.099 350.909C372.099 352.466 372.315 353.824 372.747 354.983C373.179 356.142 373.804 357.045 374.622 357.693C375.44 358.33 376.435 358.648 377.605 358.648C378.787 358.648 379.787 358.324 380.605 357.676C381.423 357.017 382.043 356.108 382.463 354.949C382.895 353.778 383.111 352.432 383.111 350.909C383.111 349.398 382.901 348.068 382.48 346.92C382.06 345.773 381.44 344.875 380.622 344.227C379.804 343.58 378.798 343.256 377.605 343.256C376.423 343.256 375.423 343.568 374.605 344.193C373.798 344.818 373.179 345.705 372.747 346.852C372.315 348 372.099 349.352 372.099 350.909ZM412.156 352.852V337.818H419.418V364H412.446V359.244H412.173C411.582 360.778 410.599 362.011 409.224 362.943C407.861 363.875 406.196 364.341 404.23 364.341C402.48 364.341 400.94 363.943 399.611 363.148C398.281 362.352 397.241 361.222 396.491 359.756C395.753 358.29 395.378 356.534 395.366 354.489V337.818H402.628V353.193C402.639 354.739 403.054 355.96 403.872 356.858C404.69 357.756 405.787 358.205 407.162 358.205C408.037 358.205 408.855 358.006 409.616 357.608C410.378 357.199 410.991 356.597 411.457 355.801C411.935 355.006 412.168 354.023 412.156 352.852ZM451.455 329.091V364H444.074V336.097H443.869L435.875 341.108V334.562L444.517 329.091H451.455Z" fill="#72A0F9"/>
<path d="M355.835 651.312H348.369C348.233 650.347 347.955 649.489 347.534 648.739C347.114 647.977 346.574 647.33 345.915 646.795C345.256 646.261 344.494 645.852 343.631 645.568C342.778 645.284 341.852 645.142 340.852 645.142C339.045 645.142 337.472 645.591 336.131 646.489C334.79 647.375 333.75 648.67 333.011 650.375C332.273 652.068 331.903 654.125 331.903 656.545C331.903 659.034 332.273 661.125 333.011 662.818C333.761 664.511 334.807 665.79 336.148 666.653C337.489 667.517 339.04 667.949 340.801 667.949C341.79 667.949 342.705 667.818 343.545 667.557C344.398 667.295 345.153 666.915 345.812 666.415C346.472 665.903 347.017 665.284 347.449 664.557C347.892 663.83 348.199 663 348.369 662.068L355.835 662.102C355.642 663.705 355.159 665.25 354.386 666.739C353.625 668.216 352.597 669.54 351.301 670.71C350.017 671.869 348.483 672.79 346.699 673.472C344.926 674.142 342.92 674.477 340.682 674.477C337.568 674.477 334.784 673.773 332.33 672.364C329.886 670.955 327.955 668.915 326.534 666.244C325.125 663.574 324.42 660.341 324.42 656.545C324.42 652.739 325.136 649.5 326.568 646.83C328 644.159 329.943 642.125 332.398 640.727C334.852 639.318 337.614 638.614 340.682 638.614C342.705 638.614 344.58 638.898 346.307 639.466C348.045 640.034 349.585 640.864 350.926 641.955C352.267 643.034 353.358 644.358 354.199 645.926C355.051 647.494 355.597 649.29 355.835 651.312ZM360.991 683.818V647.818H368.151V652.216H368.474C368.793 651.511 369.253 650.795 369.855 650.068C370.469 649.33 371.264 648.716 372.241 648.227C373.23 647.727 374.457 647.477 375.923 647.477C377.832 647.477 379.594 647.977 381.207 648.977C382.821 649.966 384.111 651.46 385.077 653.46C386.043 655.449 386.526 657.943 386.526 660.943C386.526 663.864 386.054 666.33 385.111 668.341C384.179 670.341 382.906 671.858 381.293 672.892C379.69 673.915 377.895 674.426 375.906 674.426C374.497 674.426 373.298 674.193 372.31 673.727C371.332 673.261 370.531 672.676 369.906 671.972C369.281 671.256 368.804 670.534 368.474 669.807H368.253V683.818H360.991ZM368.099 660.909C368.099 662.466 368.315 663.824 368.747 664.983C369.179 666.142 369.804 667.045 370.622 667.693C371.44 668.33 372.435 668.648 373.605 668.648C374.787 668.648 375.787 668.324 376.605 667.676C377.423 667.017 378.043 666.108 378.463 664.949C378.895 663.778 379.111 662.432 379.111 660.909C379.111 659.398 378.901 658.068 378.48 656.92C378.06 655.773 377.44 654.875 376.622 654.227C375.804 653.58 374.798 653.256 373.605 653.256C372.423 653.256 371.423 653.568 370.605 654.193C369.798 654.818 369.179 655.705 368.747 656.852C368.315 658 368.099 659.352 368.099 660.909ZM408.156 662.852V647.818H415.418V674H408.446V669.244H408.173C407.582 670.778 406.599 672.011 405.224 672.943C403.861 673.875 402.196 674.341 400.23 674.341C398.48 674.341 396.94 673.943 395.611 673.148C394.281 672.352 393.241 671.222 392.491 669.756C391.753 668.29 391.378 666.534 391.366 664.489V647.818H398.628V663.193C398.639 664.739 399.054 665.96 399.872 666.858C400.69 667.756 401.787 668.205 403.162 668.205C404.037 668.205 404.855 668.006 405.616 667.608C406.378 667.199 406.991 666.597 407.457 665.801C407.935 665.006 408.168 664.023 408.156 662.852ZM432.267 674V668.682L444.693 657.176C445.75 656.153 446.636 655.233 447.352 654.415C448.08 653.597 448.631 652.795 449.006 652.011C449.381 651.216 449.568 650.358 449.568 649.438C449.568 648.415 449.335 647.534 448.869 646.795C448.403 646.045 447.767 645.472 446.96 645.074C446.153 644.665 445.239 644.46 444.216 644.46C443.148 644.46 442.216 644.676 441.42 645.108C440.625 645.54 440.011 646.159 439.58 646.966C439.148 647.773 438.932 648.733 438.932 649.847H431.926C431.926 647.562 432.443 645.58 433.477 643.898C434.511 642.216 435.96 640.915 437.824 639.994C439.688 639.074 441.835 638.614 444.267 638.614C446.767 638.614 448.943 639.057 450.795 639.943C452.659 640.818 454.108 642.034 455.142 643.591C456.176 645.148 456.693 646.932 456.693 648.943C456.693 650.261 456.432 651.562 455.909 652.847C455.398 654.131 454.483 655.557 453.165 657.125C451.847 658.682 449.989 660.551 447.591 662.733L442.494 667.727V667.966H457.153V674H432.267Z" fill="#F65E5E"/>
<path d="M637.596 351.596C640.135 349.058 640.135 344.942 637.596 342.404L596.23 301.038C593.692 298.5 589.576 298.5 587.038 301.038C584.5 303.576 584.5 307.692 587.038 310.23L623.808 347L587.038 383.77C584.5 386.308 584.5 390.424 587.038 392.962C589.576 395.5 593.692 395.5 596.23 392.962L637.596 351.596ZM534 353.5H633V340.5H534V353.5Z" fill="#72A0F9"/>
<path d="M637.596 661.596C640.135 659.058 640.135 654.942 637.596 652.404L596.23 611.038C593.692 608.5 589.576 608.5 587.038 611.038C584.5 613.576 584.5 617.692 587.038 620.23L623.808 657L587.038 693.77C584.5 696.308 584.5 700.424 587.038 702.962C589.576 705.5 593.692 705.5 596.23 702.962L637.596 661.596ZM534 663.5H633V650.5H534V663.5Z" fill="#F65E5E"/>
<path d="M915.596 816.596C918.135 814.058 918.135 809.942 915.596 807.404L874.23 766.038C871.692 763.5 867.576 763.5 865.038 766.038C862.5 768.576 862.5 772.692 865.038 775.23L901.808 812L865.038 848.77C862.5 851.308 862.5 855.424 865.038 857.962C867.576 860.5 871.692 860.5 874.23 857.962L915.596 816.596ZM812 818.5H911V805.5H812V818.5Z" fill="#F65E5E"/>
<path d="M1203.6 351.596C1206.13 349.058 1206.13 344.942 1203.6 342.404L1162.23 301.038C1159.69 298.5 1155.58 298.5 1153.04 301.038C1150.5 303.576 1150.5 307.692 1153.04 310.23L1189.81 347L1153.04 383.77C1150.5 386.308 1150.5 390.424 1153.04 392.962C1155.58 395.5 1159.69 395.5 1162.23 392.962L1203.6 351.596ZM1100 353.5H1199V340.5H1100V353.5Z" fill="#F65E5E"/>
<path d="M1470.6 506.596C1473.13 504.058 1473.13 499.942 1470.6 497.404L1429.23 456.038C1426.69 453.5 1422.58 453.5 1420.04 456.038C1417.5 458.576 1417.5 462.692 1420.04 465.23L1456.81 502L1420.04 538.77C1417.5 541.308 1417.5 545.424 1420.04 547.962C1422.58 550.5 1426.69 550.5 1429.23 547.962L1470.6 506.596ZM1367 508.5H1466V495.5H1367V508.5Z" fill="#F65E5E"/>
<rect x="941" y="282" width="130" height="130" fill="#B0B0B0"/>
<rect x="941" y="437" width="130" height="130" fill="#72A0F9"/>
<rect x="941" y="592" width="130" height="130" fill="#B0B0B0"/>
<path d="M915.596 506.596C918.135 504.058 918.135 499.942 915.596 497.404L874.23 456.038C871.692 453.5 867.576 453.5 865.038 456.038C862.5 458.576 862.5 462.692 865.038 465.23L901.808 502L865.038 538.77C862.5 541.308 862.5 545.424 865.038 547.962C867.576 550.5 871.692 550.5 874.23 547.962L915.596 506.596ZM812 508.5H911V495.5H812V508.5Z" fill="#72A0F9"/>
<rect x="1222" y="282" width="130" height="130" fill="#F65E5E"/>
<rect x="1222" y="437" width="130" height="130" fill="#B0B0B0"/>
<rect x="1222" y="592" width="130" height="130" fill="#72A0F9"/>
<path d="M1196.6 661.596C1199.13 659.058 1199.13 654.942 1196.6 652.404L1155.23 611.038C1152.69 608.5 1148.58 608.5 1146.04 611.038C1143.5 613.576 1143.5 617.692 1146.04 620.23L1182.81 657L1146.04 693.77C1143.5 696.308 1143.5 700.424 1146.04 702.962C1148.58 705.5 1152.69 705.5 1155.23 702.962L1196.6 661.596ZM1093 663.5H1192V650.5H1093V663.5Z" fill="#72A0F9"/>
<path d="M653.705 166.176V160.091H682.375V166.176H671.688V195H664.392V166.176H653.705ZM686.96 195V168.818H694.222V195H686.96ZM690.608 165.443C689.528 165.443 688.602 165.085 687.83 164.369C687.068 163.642 686.688 162.773 686.688 161.761C686.688 160.761 687.068 159.903 687.83 159.188C688.602 158.46 689.528 158.097 690.608 158.097C691.688 158.097 692.608 158.46 693.369 159.188C694.142 159.903 694.528 160.761 694.528 161.761C694.528 162.773 694.142 163.642 693.369 164.369C692.608 165.085 691.688 165.443 690.608 165.443ZM711.868 195.511C709.186 195.511 706.879 194.943 704.947 193.807C703.027 192.659 701.55 191.068 700.516 189.034C699.493 187 698.982 184.659 698.982 182.011C698.982 179.33 699.499 176.977 700.533 174.955C701.578 172.92 703.061 171.335 704.982 170.199C706.902 169.051 709.186 168.477 711.834 168.477C714.118 168.477 716.118 168.892 717.834 169.722C719.55 170.551 720.908 171.716 721.908 173.216C722.908 174.716 723.459 176.477 723.561 178.5H716.709C716.516 177.193 716.004 176.142 715.175 175.347C714.357 174.54 713.283 174.136 711.953 174.136C710.828 174.136 709.845 174.443 709.004 175.057C708.175 175.659 707.527 176.54 707.061 177.699C706.595 178.858 706.362 180.261 706.362 181.909C706.362 183.58 706.589 185 707.044 186.17C707.51 187.341 708.163 188.233 709.004 188.847C709.845 189.46 710.828 189.767 711.953 189.767C712.783 189.767 713.527 189.597 714.186 189.256C714.857 188.915 715.408 188.42 715.839 187.773C716.283 187.114 716.572 186.324 716.709 185.403H723.561C723.447 187.403 722.902 189.165 721.925 190.688C720.959 192.199 719.624 193.381 717.919 194.233C716.214 195.085 714.197 195.511 711.868 195.511ZM734.79 187.466L734.807 178.756H735.864L744.25 168.818H752.585L741.318 181.977H739.597L734.79 187.466ZM728.21 195V160.091H735.472V195H728.21ZM744.574 195L736.869 183.597L741.71 178.466L753.08 195H744.574ZM782.376 160.091V195H774.996V167.097H774.791L766.797 172.108V165.562L775.439 160.091H782.376Z" fill="black"/>
<path d="M936.705 166.176V160.091H965.375V166.176H954.688V195H947.392V166.176H936.705ZM969.96 195V168.818H977.222V195H969.96ZM973.608 165.443C972.528 165.443 971.602 165.085 970.83 164.369C970.068 163.642 969.688 162.773 969.688 161.761C969.688 160.761 970.068 159.903 970.83 159.188C971.602 158.46 972.528 158.097 973.608 158.097C974.688 158.097 975.608 158.46 976.369 159.188C977.142 159.903 977.528 160.761 977.528 161.761C977.528 162.773 977.142 163.642 976.369 164.369C975.608 165.085 974.688 165.443 973.608 165.443ZM994.868 195.511C992.186 195.511 989.879 194.943 987.947 193.807C986.027 192.659 984.55 191.068 983.516 189.034C982.493 187 981.982 184.659 981.982 182.011C981.982 179.33 982.499 176.977 983.533 174.955C984.578 172.92 986.061 171.335 987.982 170.199C989.902 169.051 992.186 168.477 994.834 168.477C997.118 168.477 999.118 168.892 1000.83 169.722C1002.55 170.551 1003.91 171.716 1004.91 173.216C1005.91 174.716 1006.46 176.477 1006.56 178.5H999.709C999.516 177.193 999.004 176.142 998.175 175.347C997.357 174.54 996.283 174.136 994.953 174.136C993.828 174.136 992.845 174.443 992.004 175.057C991.175 175.659 990.527 176.54 990.061 177.699C989.595 178.858 989.362 180.261 989.362 181.909C989.362 183.58 989.589 185 990.044 186.17C990.51 187.341 991.163 188.233 992.004 188.847C992.845 189.46 993.828 189.767 994.953 189.767C995.783 189.767 996.527 189.597 997.186 189.256C997.857 188.915 998.408 188.42 998.839 187.773C999.283 187.114 999.572 186.324 999.709 185.403H1006.56C1006.45 187.403 1005.9 189.165 1004.92 190.688C1003.96 192.199 1002.62 193.381 1000.92 194.233C999.214 195.085 997.197 195.511 994.868 195.511ZM1017.79 187.466L1017.81 178.756H1018.86L1027.25 168.818H1035.59L1024.32 181.977H1022.6L1017.79 187.466ZM1011.21 195V160.091H1018.47V195H1011.21ZM1027.57 195L1019.87 183.597L1024.71 178.466L1036.08 195H1027.57ZM1050.19 195V189.682L1062.62 178.176C1063.67 177.153 1064.56 176.233 1065.27 175.415C1066 174.597 1066.55 173.795 1066.93 173.011C1067.3 172.216 1067.49 171.358 1067.49 170.438C1067.49 169.415 1067.26 168.534 1066.79 167.795C1066.33 167.045 1065.69 166.472 1064.88 166.074C1064.08 165.665 1063.16 165.46 1062.14 165.46C1061.07 165.46 1060.14 165.676 1059.34 166.108C1058.55 166.54 1057.93 167.159 1057.5 167.966C1057.07 168.773 1056.85 169.733 1056.85 170.847H1049.85C1049.85 168.562 1050.37 166.58 1051.4 164.898C1052.43 163.216 1053.88 161.915 1055.75 160.994C1057.61 160.074 1059.76 159.614 1062.19 159.614C1064.69 159.614 1066.87 160.057 1068.72 160.943C1070.58 161.818 1072.03 163.034 1073.06 164.591C1074.1 166.148 1074.62 167.932 1074.62 169.943C1074.62 171.261 1074.35 172.562 1073.83 173.847C1073.32 175.131 1072.4 176.557 1071.09 178.125C1069.77 179.682 1067.91 181.551 1065.51 183.733L1060.42 188.727V188.966H1075.08V195H1050.19Z" fill="black"/>
<rect x="1496" y="282" width="130" height="130" fill="#B0B0B0"/>
<rect x="1496" y="437" width="130" height="130" fill="#F65E5E"/>
<rect x="1496" y="592" width="130" height="130" fill="#B0B0B0"/>
<path d="M1470.6 816.596C1473.13 814.058 1473.13 809.942 1470.6 807.404L1429.23 766.038C1426.69 763.5 1422.58 763.5 1420.04 766.038C1417.5 768.576 1417.5 772.692 1420.04 775.23L1456.81 812L1420.04 848.77C1417.5 851.308 1417.5 855.424 1420.04 857.962C1422.58 860.5 1426.69 860.5 1429.23 857.962L1470.6 816.596ZM1367 818.5H1466V805.5H1367V818.5Z" fill="#72A0F9"/>
<path d="M1214.7 166.176V160.091H1243.38V166.176H1232.69V195H1225.39V166.176H1214.7ZM1247.96 195V168.818H1255.22V195H1247.96ZM1251.61 165.443C1250.53 165.443 1249.6 165.085 1248.83 164.369C1248.07 163.642 1247.69 162.773 1247.69 161.761C1247.69 160.761 1248.07 159.903 1248.83 159.188C1249.6 158.46 1250.53 158.097 1251.61 158.097C1252.69 158.097 1253.61 158.46 1254.37 159.188C1255.14 159.903 1255.53 160.761 1255.53 161.761C1255.53 162.773 1255.14 163.642 1254.37 164.369C1253.61 165.085 1252.69 165.443 1251.61 165.443ZM1272.87 195.511C1270.19 195.511 1267.88 194.943 1265.95 193.807C1264.03 192.659 1262.55 191.068 1261.52 189.034C1260.49 187 1259.98 184.659 1259.98 182.011C1259.98 179.33 1260.5 176.977 1261.53 174.955C1262.58 172.92 1264.06 171.335 1265.98 170.199C1267.9 169.051 1270.19 168.477 1272.83 168.477C1275.12 168.477 1277.12 168.892 1278.83 169.722C1280.55 170.551 1281.91 171.716 1282.91 173.216C1283.91 174.716 1284.46 176.477 1284.56 178.5H1277.71C1277.52 177.193 1277 176.142 1276.17 175.347C1275.36 174.54 1274.28 174.136 1272.95 174.136C1271.83 174.136 1270.85 174.443 1270 175.057C1269.17 175.659 1268.53 176.54 1268.06 177.699C1267.6 178.858 1267.36 180.261 1267.36 181.909C1267.36 183.58 1267.59 185 1268.04 186.17C1268.51 187.341 1269.16 188.233 1270 188.847C1270.85 189.46 1271.83 189.767 1272.95 189.767C1273.78 189.767 1274.53 189.597 1275.19 189.256C1275.86 188.915 1276.41 188.42 1276.84 187.773C1277.28 187.114 1277.57 186.324 1277.71 185.403H1284.56C1284.45 187.403 1283.9 189.165 1282.92 190.688C1281.96 192.199 1280.62 193.381 1278.92 194.233C1277.21 195.085 1275.2 195.511 1272.87 195.511ZM1295.79 187.466L1295.81 178.756H1296.86L1305.25 168.818H1313.59L1302.32 181.977H1300.6L1295.79 187.466ZM1289.21 195V160.091H1296.47V195H1289.21ZM1305.57 195L1297.87 183.597L1302.71 178.466L1314.08 195H1305.57ZM1341.09 195.477C1338.55 195.477 1336.28 195.04 1334.29 194.165C1332.31 193.278 1330.75 192.062 1329.6 190.517C1328.47 188.96 1327.88 187.165 1327.85 185.131H1335.28C1335.33 185.983 1335.6 186.733 1336.12 187.381C1336.64 188.017 1337.33 188.511 1338.19 188.864C1339.06 189.216 1340.03 189.392 1341.11 189.392C1342.23 189.392 1343.23 189.193 1344.09 188.795C1344.96 188.398 1345.63 187.847 1346.12 187.142C1346.61 186.437 1346.85 185.625 1346.85 184.705C1346.85 183.773 1346.59 182.949 1346.07 182.233C1345.56 181.506 1344.82 180.937 1343.85 180.528C1342.9 180.119 1341.76 179.915 1340.44 179.915H1337.19V174.494H1340.44C1341.56 174.494 1342.54 174.301 1343.39 173.915C1344.26 173.528 1344.93 172.994 1345.4 172.312C1345.88 171.619 1346.12 170.812 1346.12 169.892C1346.12 169.017 1345.91 168.25 1345.49 167.591C1345.08 166.92 1344.5 166.398 1343.75 166.023C1343.01 165.648 1342.15 165.46 1341.16 165.46C1340.16 165.46 1339.25 165.642 1338.42 166.006C1337.59 166.358 1336.92 166.864 1336.42 167.523C1335.92 168.182 1335.65 168.955 1335.62 169.841H1328.55C1328.58 167.83 1329.15 166.057 1330.27 164.523C1331.38 162.989 1332.88 161.79 1334.77 160.926C1336.67 160.051 1338.81 159.614 1341.19 159.614C1343.6 159.614 1345.71 160.051 1347.52 160.926C1349.33 161.801 1350.73 162.983 1351.73 164.472C1352.74 165.949 1353.24 167.608 1353.23 169.449C1353.24 171.403 1352.63 173.034 1351.4 174.341C1350.19 175.648 1348.6 176.477 1346.65 176.83V177.102C1349.22 177.432 1351.17 178.324 1352.51 179.778C1353.87 181.222 1354.54 183.028 1354.52 185.199C1354.54 187.188 1353.96 188.955 1352.8 190.5C1351.65 192.045 1350.07 193.261 1348.05 194.148C1346.02 195.034 1343.71 195.477 1341.09 195.477Z" fill="black"/>
<path d="M1486.7 166.176V160.091H1515.38V166.176H1504.69V195H1497.39V166.176H1486.7ZM1519.96 195V168.818H1527.22V195H1519.96ZM1523.61 165.443C1522.53 165.443 1521.6 165.085 1520.83 164.369C1520.07 163.642 1519.69 162.773 1519.69 161.761C1519.69 160.761 1520.07 159.903 1520.83 159.188C1521.6 158.46 1522.53 158.097 1523.61 158.097C1524.69 158.097 1525.61 158.46 1526.37 159.188C1527.14 159.903 1527.53 160.761 1527.53 161.761C1527.53 162.773 1527.14 163.642 1526.37 164.369C1525.61 165.085 1524.69 165.443 1523.61 165.443ZM1544.87 195.511C1542.19 195.511 1539.88 194.943 1537.95 193.807C1536.03 192.659 1534.55 191.068 1533.52 189.034C1532.49 187 1531.98 184.659 1531.98 182.011C1531.98 179.33 1532.5 176.977 1533.53 174.955C1534.58 172.92 1536.06 171.335 1537.98 170.199C1539.9 169.051 1542.19 168.477 1544.83 168.477C1547.12 168.477 1549.12 168.892 1550.83 169.722C1552.55 170.551 1553.91 171.716 1554.91 173.216C1555.91 174.716 1556.46 176.477 1556.56 178.5H1549.71C1549.52 177.193 1549 176.142 1548.17 175.347C1547.36 174.54 1546.28 174.136 1544.95 174.136C1543.83 174.136 1542.85 174.443 1542 175.057C1541.17 175.659 1540.53 176.54 1540.06 177.699C1539.6 178.858 1539.36 180.261 1539.36 181.909C1539.36 183.58 1539.59 185 1540.04 186.17C1540.51 187.341 1541.16 188.233 1542 188.847C1542.85 189.46 1543.83 189.767 1544.95 189.767C1545.78 189.767 1546.53 189.597 1547.19 189.256C1547.86 188.915 1548.41 188.42 1548.84 187.773C1549.28 187.114 1549.57 186.324 1549.71 185.403H1556.56C1556.45 187.403 1555.9 189.165 1554.92 190.688C1553.96 192.199 1552.62 193.381 1550.92 194.233C1549.21 195.085 1547.2 195.511 1544.87 195.511ZM1567.79 187.466L1567.81 178.756H1568.86L1577.25 168.818H1585.59L1574.32 181.977H1572.6L1567.79 187.466ZM1561.21 195V160.091H1568.47V195H1561.21ZM1577.57 195L1569.87 183.597L1574.71 178.466L1586.08 195H1577.57ZM1599.66 188.864V183.051L1614.23 160.091H1619.25V168.136H1616.28L1607.09 182.676V182.949H1627.8V188.864H1599.66ZM1616.42 195V187.091L1616.55 184.517V160.091H1623.47V195H1616.42Z" fill="black"/>
<path d="M719.051 364H711.142L723.193 329.091H732.705L744.739 364H736.83L728.085 337.068H727.812L719.051 364ZM718.557 350.278H737.239V356.04H718.557V350.278Z" fill="black"/>
<path d="M715.034 519V484.091H729.011C731.58 484.091 733.722 484.472 735.438 485.233C737.153 485.994 738.443 487.051 739.307 488.403C740.17 489.744 740.602 491.29 740.602 493.04C740.602 494.403 740.33 495.602 739.784 496.636C739.239 497.659 738.489 498.5 737.534 499.159C736.591 499.807 735.511 500.267 734.295 500.54V500.881C735.625 500.937 736.869 501.312 738.028 502.006C739.199 502.699 740.148 503.67 740.875 504.92C741.602 506.159 741.966 507.636 741.966 509.352C741.966 511.205 741.506 512.858 740.585 514.312C739.676 515.756 738.33 516.898 736.545 517.739C734.761 518.58 732.563 519 729.949 519H715.034ZM722.415 512.966H728.432C730.489 512.966 731.989 512.574 732.932 511.79C733.875 510.994 734.347 509.937 734.347 508.619C734.347 507.653 734.114 506.801 733.648 506.062C733.182 505.324 732.517 504.744 731.653 504.324C730.801 503.903 729.784 503.693 728.602 503.693H722.415V512.966ZM722.415 498.699H727.886C728.898 498.699 729.795 498.523 730.58 498.17C731.375 497.807 732 497.295 732.455 496.636C732.92 495.977 733.153 495.188 733.153 494.267C733.153 493.006 732.705 491.989 731.807 491.216C730.92 490.443 729.659 490.057 728.023 490.057H722.415V498.699Z" fill="white"/>
<path d="M743.835 651.312H736.369C736.233 650.347 735.955 649.489 735.534 648.739C735.114 647.977 734.574 647.33 733.915 646.795C733.256 646.261 732.494 645.852 731.631 645.568C730.778 645.284 729.852 645.142 728.852 645.142C727.045 645.142 725.472 645.591 724.131 646.489C722.79 647.375 721.75 648.67 721.011 650.375C720.273 652.068 719.903 654.125 719.903 656.545C719.903 659.034 720.273 661.125 721.011 662.818C721.761 664.511 722.807 665.79 724.148 666.653C725.489 667.517 727.04 667.949 728.801 667.949C729.79 667.949 730.705 667.818 731.545 667.557C732.398 667.295 733.153 666.915 733.812 666.415C734.472 665.903 735.017 665.284 735.449 664.557C735.892 663.83 736.199 663 736.369 662.068L743.835 662.102C743.642 663.705 743.159 665.25 742.386 666.739C741.625 668.216 740.597 669.54 739.301 670.71C738.017 671.869 736.483 672.79 734.699 673.472C732.926 674.142 730.92 674.477 728.682 674.477C725.568 674.477 722.784 673.773 720.33 672.364C717.886 670.955 715.955 668.915 714.534 666.244C713.125 663.574 712.42 660.341 712.42 656.545C712.42 652.739 713.136 649.5 714.568 646.83C716 644.159 717.943 642.125 720.398 640.727C722.852 639.318 725.614 638.614 728.682 638.614C730.705 638.614 732.58 638.898 734.307 639.466C736.045 640.034 737.585 640.864 738.926 641.955C740.267 643.034 741.358 644.358 742.199 645.926C743.051 647.494 743.597 649.29 743.835 651.312Z" fill="white"/>
<rect x="663" y="747" width="130" height="130" fill="#B0B0B0"/>
<path d="M725.409 829H713.034V794.091H725.511C729.023 794.091 732.045 794.79 734.58 796.188C737.114 797.574 739.063 799.568 740.426 802.17C741.801 804.773 742.489 807.886 742.489 811.511C742.489 815.148 741.801 818.273 740.426 820.886C739.063 823.5 737.102 825.506 734.545 826.903C732 828.301 728.955 829 725.409 829ZM720.415 822.676H725.102C727.284 822.676 729.119 822.29 730.608 821.517C732.108 820.733 733.233 819.523 733.983 817.886C734.744 816.239 735.125 814.114 735.125 811.511C735.125 808.932 734.744 806.824 733.983 805.188C733.233 803.551 732.114 802.347 730.625 801.574C729.136 800.801 727.301 800.415 725.119 800.415H720.415V822.676Z" fill="white"/>
<path d="M996.051 364H988.142L1000.19 329.091H1009.7L1021.74 364H1013.83L1005.09 337.068H1004.81L996.051 364ZM995.557 350.278H1014.24V356.04H995.557V350.278Z" fill="white"/>
<path d="M992.034 519V484.091H1006.01C1008.58 484.091 1010.72 484.472 1012.44 485.233C1014.15 485.994 1015.44 487.051 1016.31 488.403C1017.17 489.744 1017.6 491.29 1017.6 493.04C1017.6 494.403 1017.33 495.602 1016.78 496.636C1016.24 497.659 1015.49 498.5 1014.53 499.159C1013.59 499.807 1012.51 500.267 1011.3 500.54V500.881C1012.63 500.937 1013.87 501.312 1015.03 502.006C1016.2 502.699 1017.15 503.67 1017.88 504.92C1018.6 506.159 1018.97 507.636 1018.97 509.352C1018.97 511.205 1018.51 512.858 1017.59 514.312C1016.68 515.756 1015.33 516.898 1013.55 517.739C1011.76 518.58 1009.56 519 1006.95 519H992.034ZM999.415 512.966H1005.43C1007.49 512.966 1008.99 512.574 1009.93 511.79C1010.88 510.994 1011.35 509.937 1011.35 508.619C1011.35 507.653 1011.11 506.801 1010.65 506.062C1010.18 505.324 1009.52 504.744 1008.65 504.324C1007.8 503.903 1006.78 503.693 1005.6 503.693H999.415V512.966ZM999.415 498.699H1004.89C1005.9 498.699 1006.8 498.523 1007.58 498.17C1008.38 497.807 1009 497.295 1009.45 496.636C1009.92 495.977 1010.15 495.188 1010.15 494.267C1010.15 493.006 1009.7 491.989 1008.81 491.216C1007.92 490.443 1006.66 490.057 1005.02 490.057H999.415V498.699Z" fill="black"/>
<path d="M1020.84 651.312H1013.37C1013.23 650.347 1012.95 649.489 1012.53 648.739C1012.11 647.977 1011.57 647.33 1010.91 646.795C1010.26 646.261 1009.49 645.852 1008.63 645.568C1007.78 645.284 1006.85 645.142 1005.85 645.142C1004.05 645.142 1002.47 645.591 1001.13 646.489C999.79 647.375 998.75 648.67 998.011 650.375C997.273 652.068 996.903 654.125 996.903 656.545C996.903 659.034 997.273 661.125 998.011 662.818C998.761 664.511 999.807 665.79 1001.15 666.653C1002.49 667.517 1004.04 667.949 1005.8 667.949C1006.79 667.949 1007.7 667.818 1008.55 667.557C1009.4 667.295 1010.15 666.915 1010.81 666.415C1011.47 665.903 1012.02 665.284 1012.45 664.557C1012.89 663.83 1013.2 663 1013.37 662.068L1020.84 662.102C1020.64 663.705 1020.16 665.25 1019.39 666.739C1018.63 668.216 1017.6 669.54 1016.3 670.71C1015.02 671.869 1013.48 672.79 1011.7 673.472C1009.93 674.142 1007.92 674.477 1005.68 674.477C1002.57 674.477 999.784 673.773 997.33 672.364C994.886 670.955 992.955 668.915 991.534 666.244C990.125 663.574 989.42 660.341 989.42 656.545C989.42 652.739 990.136 649.5 991.568 646.83C993 644.159 994.943 642.125 997.398 640.727C999.852 639.318 1002.61 638.614 1005.68 638.614C1007.7 638.614 1009.58 638.898 1011.31 639.466C1013.05 640.034 1014.59 640.864 1015.93 641.955C1017.27 643.034 1018.36 644.358 1019.2 645.926C1020.05 647.494 1020.6 649.29 1020.84 651.312Z" fill="white"/>
<rect x="941" y="747" width="130" height="130" fill="#F65E5E"/>
<path d="M1002.41 829H990.034V794.091H1002.51C1006.02 794.091 1009.05 794.79 1011.58 796.188C1014.11 797.574 1016.06 799.568 1017.43 802.17C1018.8 804.773 1019.49 807.886 1019.49 811.511C1019.49 815.148 1018.8 818.273 1017.43 820.886C1016.06 823.5 1014.1 825.506 1011.55 826.903C1009 828.301 1005.95 829 1002.41 829ZM997.415 822.676H1002.1C1004.28 822.676 1006.12 822.29 1007.61 821.517C1009.11 820.733 1010.23 819.523 1010.98 817.886C1011.74 816.239 1012.12 814.114 1012.12 811.511C1012.12 808.932 1011.74 806.824 1010.98 805.188C1010.23 803.551 1009.11 802.347 1007.62 801.574C1006.14 800.801 1004.3 800.415 1002.12 800.415H997.415V822.676Z" fill="white"/>
<path d="M1277.05 364H1269.14L1281.19 329.091H1290.7L1302.74 364H1294.83L1286.09 337.068H1285.81L1277.05 364ZM1276.56 350.278H1295.24V356.04H1276.56V350.278Z" fill="white"/>
<path d="M1273.03 519V484.091H1287.01C1289.58 484.091 1291.72 484.472 1293.44 485.233C1295.15 485.994 1296.44 487.051 1297.31 488.403C1298.17 489.744 1298.6 491.29 1298.6 493.04C1298.6 494.403 1298.33 495.602 1297.78 496.636C1297.24 497.659 1296.49 498.5 1295.53 499.159C1294.59 499.807 1293.51 500.267 1292.3 500.54V500.881C1293.63 500.937 1294.87 501.312 1296.03 502.006C1297.2 502.699 1298.15 503.67 1298.88 504.92C1299.6 506.159 1299.97 507.636 1299.97 509.352C1299.97 511.205 1299.51 512.858 1298.59 514.312C1297.68 515.756 1296.33 516.898 1294.55 517.739C1292.76 518.58 1290.56 519 1287.95 519H1273.03ZM1280.41 512.966H1286.43C1288.49 512.966 1289.99 512.574 1290.93 511.79C1291.88 510.994 1292.35 509.937 1292.35 508.619C1292.35 507.653 1292.11 506.801 1291.65 506.062C1291.18 505.324 1290.52 504.744 1289.65 504.324C1288.8 503.903 1287.78 503.693 1286.6 503.693H1280.41V512.966ZM1280.41 498.699H1285.89C1286.9 498.699 1287.8 498.523 1288.58 498.17C1289.38 497.807 1290 497.295 1290.45 496.636C1290.92 495.977 1291.15 495.188 1291.15 494.267C1291.15 493.006 1290.7 491.989 1289.81 491.216C1288.92 490.443 1287.66 490.057 1286.02 490.057H1280.41V498.699Z" fill="white"/>
<path d="M1301.84 651.312H1294.37C1294.23 650.347 1293.95 649.489 1293.53 648.739C1293.11 647.977 1292.57 647.33 1291.91 646.795C1291.26 646.261 1290.49 645.852 1289.63 645.568C1288.78 645.284 1287.85 645.142 1286.85 645.142C1285.05 645.142 1283.47 645.591 1282.13 646.489C1280.79 647.375 1279.75 648.67 1279.01 650.375C1278.27 652.068 1277.9 654.125 1277.9 656.545C1277.9 659.034 1278.27 661.125 1279.01 662.818C1279.76 664.511 1280.81 665.79 1282.15 666.653C1283.49 667.517 1285.04 667.949 1286.8 667.949C1287.79 667.949 1288.7 667.818 1289.55 667.557C1290.4 667.295 1291.15 666.915 1291.81 666.415C1292.47 665.903 1293.02 665.284 1293.45 664.557C1293.89 663.83 1294.2 663 1294.37 662.068L1301.84 662.102C1301.64 663.705 1301.16 665.25 1300.39 666.739C1299.63 668.216 1298.6 669.54 1297.3 670.71C1296.02 671.869 1294.48 672.79 1292.7 673.472C1290.93 674.142 1288.92 674.477 1286.68 674.477C1283.57 674.477 1280.78 673.773 1278.33 672.364C1275.89 670.955 1273.95 668.915 1272.53 666.244C1271.12 663.574 1270.42 660.341 1270.42 656.545C1270.42 652.739 1271.14 649.5 1272.57 646.83C1274 644.159 1275.94 642.125 1278.4 640.727C1280.85 639.318 1283.61 638.614 1286.68 638.614C1288.7 638.614 1290.58 638.898 1292.31 639.466C1294.05 640.034 1295.59 640.864 1296.93 641.955C1298.27 643.034 1299.36 644.358 1300.2 645.926C1301.05 647.494 1301.6 649.29 1301.84 651.312Z" fill="black"/>
<rect x="1222" y="747" width="130" height="130" fill="#B0B0B0"/>
<path d="M1283.41 829H1271.03V794.091H1283.51C1287.02 794.091 1290.05 794.79 1292.58 796.188C1295.11 797.574 1297.06 799.568 1298.43 802.17C1299.8 804.773 1300.49 807.886 1300.49 811.511C1300.49 815.148 1299.8 818.273 1298.43 820.886C1297.06 823.5 1295.1 825.506 1292.55 826.903C1290 828.301 1286.95 829 1283.41 829ZM1278.41 822.676H1283.1C1285.28 822.676 1287.12 822.29 1288.61 821.517C1290.11 820.733 1291.23 819.523 1291.98 817.886C1292.74 816.239 1293.12 814.114 1293.12 811.511C1293.12 808.932 1292.74 806.824 1291.98 805.188C1291.23 803.551 1290.11 802.347 1288.62 801.574C1287.14 800.801 1285.3 800.415 1283.12 800.415H1278.41V822.676Z" fill="white"/>
<path d="M1553.05 364H1545.14L1557.19 329.091H1566.7L1578.74 364H1570.83L1562.09 337.068H1561.81L1553.05 364ZM1552.56 350.278H1571.24V356.04H1552.56V350.278Z" fill="white"/>
<path d="M1549.03 519V484.091H1563.01C1565.58 484.091 1567.72 484.472 1569.44 485.233C1571.15 485.994 1572.44 487.051 1573.31 488.403C1574.17 489.744 1574.6 491.29 1574.6 493.04C1574.6 494.403 1574.33 495.602 1573.78 496.636C1573.24 497.659 1572.49 498.5 1571.53 499.159C1570.59 499.807 1569.51 500.267 1568.3 500.54V500.881C1569.63 500.937 1570.87 501.312 1572.03 502.006C1573.2 502.699 1574.15 503.67 1574.88 504.92C1575.6 506.159 1575.97 507.636 1575.97 509.352C1575.97 511.205 1575.51 512.858 1574.59 514.312C1573.68 515.756 1572.33 516.898 1570.55 517.739C1568.76 518.58 1566.56 519 1563.95 519H1549.03ZM1556.41 512.966H1562.43C1564.49 512.966 1565.99 512.574 1566.93 511.79C1567.88 510.994 1568.35 509.937 1568.35 508.619C1568.35 507.653 1568.11 506.801 1567.65 506.062C1567.18 505.324 1566.52 504.744 1565.65 504.324C1564.8 503.903 1563.78 503.693 1562.6 503.693H1556.41V512.966ZM1556.41 498.699H1561.89C1562.9 498.699 1563.8 498.523 1564.58 498.17C1565.38 497.807 1566 497.295 1566.45 496.636C1566.92 495.977 1567.15 495.188 1567.15 494.267C1567.15 493.006 1566.7 491.989 1565.81 491.216C1564.92 490.443 1563.66 490.057 1562.02 490.057H1556.41V498.699Z" fill="white"/>
<path d="M1577.84 651.312H1570.37C1570.23 650.347 1569.95 649.489 1569.53 648.739C1569.11 647.977 1568.57 647.33 1567.91 646.795C1567.26 646.261 1566.49 645.852 1565.63 645.568C1564.78 645.284 1563.85 645.142 1562.85 645.142C1561.05 645.142 1559.47 645.591 1558.13 646.489C1556.79 647.375 1555.75 648.67 1555.01 650.375C1554.27 652.068 1553.9 654.125 1553.9 656.545C1553.9 659.034 1554.27 661.125 1555.01 662.818C1555.76 664.511 1556.81 665.79 1558.15 666.653C1559.49 667.517 1561.04 667.949 1562.8 667.949C1563.79 667.949 1564.7 667.818 1565.55 667.557C1566.4 667.295 1567.15 666.915 1567.81 666.415C1568.47 665.903 1569.02 665.284 1569.45 664.557C1569.89 663.83 1570.2 663 1570.37 662.068L1577.84 662.102C1577.64 663.705 1577.16 665.25 1576.39 666.739C1575.63 668.216 1574.6 669.54 1573.3 670.71C1572.02 671.869 1570.48 672.79 1568.7 673.472C1566.93 674.142 1564.92 674.477 1562.68 674.477C1559.57 674.477 1556.78 673.773 1554.33 672.364C1551.89 670.955 1549.95 668.915 1548.53 666.244C1547.12 663.574 1546.42 660.341 1546.42 656.545C1546.42 652.739 1547.14 649.5 1548.57 646.83C1550 644.159 1551.94 642.125 1554.4 640.727C1556.85 639.318 1559.61 638.614 1562.68 638.614C1564.7 638.614 1566.58 638.898 1568.31 639.466C1570.05 640.034 1571.59 640.864 1572.93 641.955C1574.27 643.034 1575.36 644.358 1576.2 645.926C1577.05 647.494 1577.6 649.29 1577.84 651.312Z" fill="white"/>
<rect x="1496" y="747" width="130" height="130" fill="#72A0F9"/>
<path d="M1559.41 829H1547.03V794.091H1559.51C1563.02 794.091 1566.05 794.79 1568.58 796.188C1571.11 797.574 1573.06 799.568 1574.43 802.17C1575.8 804.773 1576.49 807.886 1576.49 811.511C1576.49 815.148 1575.8 818.273 1574.43 820.886C1573.06 823.5 1571.1 825.506 1568.55 826.903C1566 828.301 1562.95 829 1559.41 829ZM1554.41 822.676H1559.1C1561.28 822.676 1563.12 822.29 1564.61 821.517C1566.11 820.733 1567.23 819.523 1567.98 817.886C1568.74 816.239 1569.12 814.114 1569.12 811.511C1569.12 808.932 1568.74 806.824 1567.98 805.188C1567.23 803.551 1566.11 802.347 1564.62 801.574C1563.14 800.801 1561.3 800.415 1559.12 800.415H1554.41V822.676Z" fill="black"/>
<path d="M587.536 408.464C585.583 406.512 582.417 406.512 580.464 408.464L548.645 440.284C546.692 442.237 546.692 445.403 548.645 447.355C550.597 449.308 553.763 449.308 555.716 447.355L584 419.071L612.284 447.355C614.237 449.308 617.403 449.308 619.355 447.355C621.308 445.403 621.308 442.237 619.355 440.284L587.536 408.464ZM580.464 595.536C582.417 597.488 585.583 597.488 587.536 595.536L619.355 563.716C621.308 561.763 621.308 558.597 619.355 556.645C617.403 554.692 614.237 554.692 612.284 556.645L584 584.929L555.716 556.645C553.763 554.692 550.597 554.692 548.645 556.645C546.692 558.597 546.692 561.763 548.645 563.716L580.464 595.536ZM579 412L579 592L589 592L589 412L579 412Z" fill="black"/>
<path d="M336.727 519.511C334.08 519.511 331.79 518.949 329.858 517.824C327.938 516.687 326.455 515.108 325.409 513.085C324.364 511.051 323.841 508.693 323.841 506.011C323.841 503.307 324.364 500.943 325.409 498.92C326.455 496.886 327.938 495.307 329.858 494.182C331.79 493.045 334.08 492.477 336.727 492.477C339.375 492.477 341.659 493.045 343.58 494.182C345.511 495.307 347 496.886 348.045 498.92C349.091 500.943 349.614 503.307 349.614 506.011C349.614 508.693 349.091 511.051 348.045 513.085C347 515.108 345.511 516.687 343.58 517.824C341.659 518.949 339.375 519.511 336.727 519.511ZM336.761 513.886C337.966 513.886 338.972 513.545 339.778 512.864C340.585 512.17 341.193 511.227 341.602 510.034C342.023 508.841 342.233 507.483 342.233 505.96C342.233 504.438 342.023 503.08 341.602 501.886C341.193 500.693 340.585 499.75 339.778 499.057C338.972 498.364 337.966 498.017 336.761 498.017C335.545 498.017 334.523 498.364 333.693 499.057C332.875 499.75 332.256 500.693 331.835 501.886C331.426 503.08 331.222 504.438 331.222 505.96C331.222 507.483 331.426 508.841 331.835 510.034C332.256 511.227 332.875 512.17 333.693 512.864C334.523 513.545 335.545 513.886 336.761 513.886ZM368.415 492.818V498.273H352.256V492.818H368.415ZM355.955 519V490.926C355.955 489.028 356.324 487.455 357.062 486.205C357.812 484.955 358.835 484.017 360.131 483.392C361.426 482.767 362.898 482.455 364.545 482.455C365.659 482.455 366.676 482.54 367.597 482.71C368.528 482.881 369.222 483.034 369.676 483.17L368.381 488.625C368.097 488.534 367.744 488.449 367.324 488.369C366.915 488.29 366.494 488.25 366.062 488.25C364.994 488.25 364.25 488.5 363.83 489C363.409 489.489 363.199 490.176 363.199 491.062V519H355.955ZM386.93 492.818V498.273H370.771V492.818H386.93ZM374.47 519V490.926C374.47 489.028 374.839 487.455 375.578 486.205C376.328 484.955 377.351 484.017 378.646 483.392C379.942 482.767 381.413 482.455 383.061 482.455C384.175 482.455 385.192 482.54 386.112 482.71C387.044 482.881 387.737 483.034 388.192 483.17L386.896 488.625C386.612 488.534 386.26 488.449 385.839 488.369C385.43 488.29 385.01 488.25 384.578 488.25C383.51 488.25 382.766 488.5 382.345 489C381.925 489.489 381.714 490.176 381.714 491.062V519H374.47ZM412.307 500.284L405.659 500.693C405.545 500.125 405.301 499.614 404.926 499.159C404.551 498.693 404.057 498.324 403.443 498.051C402.841 497.767 402.119 497.625 401.278 497.625C400.153 497.625 399.205 497.864 398.432 498.341C397.659 498.807 397.273 499.432 397.273 500.216C397.273 500.841 397.523 501.369 398.023 501.801C398.523 502.233 399.381 502.58 400.597 502.841L405.335 503.795C407.881 504.318 409.778 505.159 411.028 506.318C412.278 507.477 412.903 509 412.903 510.886C412.903 512.602 412.398 514.108 411.386 515.403C410.386 516.699 409.011 517.71 407.261 518.438C405.523 519.153 403.517 519.511 401.244 519.511C397.778 519.511 395.017 518.79 392.96 517.347C390.915 515.892 389.716 513.915 389.364 511.415L396.506 511.04C396.722 512.097 397.244 512.903 398.074 513.46C398.903 514.006 399.966 514.278 401.261 514.278C402.534 514.278 403.557 514.034 404.33 513.545C405.114 513.045 405.511 512.403 405.523 511.619C405.511 510.96 405.233 510.42 404.688 510C404.142 509.568 403.301 509.239 402.165 509.011L397.631 508.108C395.074 507.597 393.17 506.71 391.92 505.449C390.682 504.187 390.062 502.58 390.062 500.625C390.062 498.943 390.517 497.494 391.426 496.278C392.347 495.062 393.636 494.125 395.295 493.466C396.966 492.807 398.92 492.477 401.159 492.477C404.466 492.477 407.068 493.176 408.966 494.574C410.875 495.972 411.989 497.875 412.307 500.284ZM429.408 519.511C426.714 519.511 424.396 518.966 422.453 517.875C420.521 516.773 419.033 515.216 417.987 513.205C416.942 511.182 416.419 508.79 416.419 506.028C416.419 503.335 416.942 500.972 417.987 498.938C419.033 496.903 420.504 495.318 422.402 494.182C424.311 493.045 426.55 492.477 429.118 492.477C430.845 492.477 432.453 492.756 433.942 493.312C435.442 493.858 436.749 494.682 437.862 495.784C438.987 496.886 439.862 498.273 440.487 499.943C441.112 501.602 441.425 503.545 441.425 505.773V507.767H419.317V503.267H434.589C434.589 502.222 434.362 501.295 433.908 500.489C433.453 499.682 432.822 499.051 432.016 498.597C431.22 498.131 430.294 497.898 429.237 497.898C428.135 497.898 427.158 498.153 426.305 498.665C425.464 499.165 424.805 499.841 424.328 500.693C423.851 501.534 423.607 502.472 423.595 503.506V507.784C423.595 509.08 423.834 510.199 424.311 511.142C424.8 512.085 425.487 512.812 426.374 513.324C427.26 513.835 428.311 514.091 429.527 514.091C430.334 514.091 431.072 513.977 431.743 513.75C432.413 513.523 432.987 513.182 433.464 512.727C433.942 512.273 434.305 511.716 434.555 511.057L441.271 511.5C440.93 513.114 440.232 514.523 439.175 515.727C438.129 516.92 436.777 517.852 435.118 518.523C433.47 519.182 431.567 519.511 429.408 519.511ZM460.089 492.818V498.273H444.322V492.818H460.089ZM447.902 486.545H455.163V510.955C455.163 511.625 455.266 512.148 455.47 512.523C455.675 512.886 455.959 513.142 456.322 513.29C456.697 513.437 457.129 513.511 457.618 513.511C457.959 513.511 458.3 513.483 458.641 513.426C458.982 513.358 459.243 513.307 459.425 513.273L460.567 518.676C460.203 518.79 459.692 518.92 459.033 519.068C458.374 519.227 457.572 519.324 456.629 519.358C454.879 519.426 453.345 519.193 452.027 518.659C450.72 518.125 449.703 517.295 448.976 516.17C448.249 515.045 447.891 513.625 447.902 511.909V486.545Z" fill="black"/>
</svg>
