<svg width="932" height="1191" viewBox="0 0 932 1191" fill="none" xmlns="http://www.w3.org/2000/svg">
<rect width="932" height="1191" fill="#18181B"/>
<path d="M466 469L338 341H466V469Z" fill="#FAFAFA"/>
<path fill-rule="evenodd" clip-rule="evenodd" d="M338 213H210L338 341H210L338 469H210V725H466V597C466 622.316 473.507 647.063 487.572 668.113C501.637 689.163 521.628 705.569 545.017 715.257C568.406 724.945 594.142 727.479 618.972 722.541C643.801 717.602 666.609 705.411 684.51 687.51C702.411 669.608 714.602 646.801 719.541 621.972C724.479 597.142 721.945 571.405 712.257 548.017C702.569 524.627 686.162 504.637 665.113 490.572C644.063 476.507 619.316 469 594 469C664.692 469 722 411.692 722 341C722 270.308 664.692 213 594 213C523.308 213 466 270.308 466 341V213H338ZM338 213L466 341C466 411.692 523.308 469 594 469H466H338V341V213ZM594 469V597H466L594 469ZM274 533V661H402V533H274ZM658 341C658 376.346 629.346 405 594 405C558.654 405 530 376.346 530 341C530 305.654 558.654 277 594 277C629.346 277 658 305.654 658 341Z" fill="#FAFAFA"/>
<path d="M286.402 979.717C286.402 989.314 282.95 996.281 276.047 1000.62C269.237 1004.86 260.001 1006.99 248.341 1006.99H210V910.091H246.102C252.818 910.091 258.789 911.013 264.013 912.859C269.237 914.612 273.341 917.335 276.327 921.026C279.312 924.625 280.804 929.193 280.804 934.73C280.804 939.436 279.545 943.496 277.026 946.911C274.508 950.325 271.056 953.001 266.671 954.939C272.269 956.877 276.933 959.876 280.664 963.937C284.489 967.905 286.402 973.165 286.402 979.717ZM243.443 928.224H233.648V948.572H243.443C247.548 948.572 250.719 947.649 252.958 945.803C255.197 943.958 256.317 941.42 256.317 938.19C256.317 934.96 255.197 932.515 252.958 930.854C250.719 929.1 247.548 928.224 243.443 928.224ZM233.648 988.853H245.682C250.253 988.853 254.078 987.93 257.156 986.084C260.328 984.238 261.914 981.009 261.914 976.395C261.914 972.15 260.328 969.197 257.156 967.536C254.078 965.782 250.253 964.906 245.682 964.906H233.648V988.853Z" fill="#FAFAFA"/>
<path d="M302.922 910.091H338.604C351.104 910.091 360.573 913.044 367.01 918.95C373.54 924.856 376.805 932.469 376.805 941.789C376.805 948.433 375.126 954.293 371.767 959.369C368.502 964.352 363.651 968.043 357.215 970.442L382.682 1006.99H354.836L333.846 973.488H326.57V1006.99H302.922V910.091ZM336.925 930.023H326.57V955.216H336.925C341.682 955.216 345.414 954.109 348.119 951.894C350.825 949.679 352.177 946.588 352.177 942.62C352.177 938.559 350.825 935.468 348.119 933.345C345.414 931.131 341.682 930.023 336.925 930.023Z" fill="#FAFAFA"/>
<path d="M392.821 910.091H416.469V973.488C416.469 978.379 417.775 982.347 420.387 985.392C422.999 988.437 426.917 989.96 432.141 989.96C437.365 989.96 441.283 988.437 443.895 985.392C446.601 982.347 447.953 978.379 447.953 973.488V910.091H471.602V975.149C471.602 983.27 469.829 990.006 466.284 995.358C462.833 1000.62 458.122 1004.54 452.151 1007.12C446.181 1009.71 439.511 1011 432.141 1011C424.772 1011 418.102 1009.71 412.131 1007.12C406.254 1004.54 401.543 1000.62 397.999 995.358C394.547 990.006 392.821 983.27 392.821 975.149V910.091Z" fill="#FAFAFA"/>
<path d="M481.84 931.131V910.091H559.361V931.131H532.495V1006.99H508.707V931.131H481.84Z" fill="#FAFAFA"/>
<path d="M621.901 1006.99L612.666 988.299H581.601L572.506 1006.99H545.64L597.274 904L648.768 1006.99H621.901ZM597.274 945.803L586.359 970.442H608.048L597.274 945.803Z" fill="#FAFAFA"/>
<path d="M659.032 910.091H682.68V986.776H722V1006.99H659.032V910.091Z" fill="#FAFAFA"/>
</svg>
